<?xml version="1.0" encoding="utf-8" standalone="no"?>
<!DOCTYPE svg PUBLIC "-//W3C//DTD SVG 1.1//EN"
  "http://www.w3.org/Graphics/SVG/1.1/DTD/svg11.dtd">
<!-- Created with matplotlib (https://matplotlib.org/) -->
<svg height="576pt" version="1.1" viewBox="0 0 648 576" width="648pt" xmlns="http://www.w3.org/2000/svg" xmlns:xlink="http://www.w3.org/1999/xlink">
 <metadata>
  <rdf:RDF xmlns:cc="http://creativecommons.org/ns#" xmlns:dc="http://purl.org/dc/elements/1.1/" xmlns:rdf="http://www.w3.org/1999/02/22-rdf-syntax-ns#">
   <cc:Work>
    <dc:type rdf:resource="http://purl.org/dc/dcmitype/StillImage"/>
    <dc:date>2022-04-27T14:46:57.568008</dc:date>
    <dc:format>image/svg+xml</dc:format>
    <dc:creator>
     <cc:Agent>
      <dc:title>Matplotlib v3.3.4, https://matplotlib.org/</dc:title>
     </cc:Agent>
    </dc:creator>
   </cc:Work>
  </rdf:RDF>
 </metadata>
 <defs>
  <style type="text/css">*{stroke-linecap:butt;stroke-linejoin:round;}</style>
 </defs>
 <g id="figure_1">
  <g id="patch_1">
   <path d="M 0 576 
L 648 576 
L 648 0 
L 0 0 
z
" style="fill:none;"/>
  </g>
  <g id="axes_1">
   <g id="patch_2">
    <path d="M 81 504 
L 583.2 504 
L 583.2 69.12 
L 81 69.12 
z
" style="fill:#ffffff;"/>
   </g>
   <g id="PolyCollection_1">
    <path clip-path="url(#pa87ae92a9a)" d="M -689.04 338.940983 
L -689.04 342.799065 
L -680.897977 344.250315 
L -672.755953 345.658637 
L -664.61393 346.820913 
L -656.471907 347.487306 
L -648.329883 347.487306 
L -640.18786 346.820913 
L -632.045837 345.658637 
L -623.903813 344.250315 
L -615.76179 342.799065 
L -607.619767 341.390724 
L -599.477743 340.042265 
L -591.33572 338.749729 
L -583.193696 337.489176 
L -575.051673 336.22556 
L -566.90965 334.905054 
L -558.767626 333.49271 
L -550.625603 332.026542 
L -542.48358 330.573024 
L -534.341556 329.2058 
L -526.199533 327.97209 
L -518.05751 326.909193 
L -509.915486 326.055612 
L -501.773463 325.445295 
L -493.63144 325.136207 
L -485.489416 325.173928 
L -477.347393 325.555929 
L -469.20537 326.258073 
L -461.063346 327.244086 
L -452.921323 328.487333 
L -444.7793 329.967379 
L -436.637276 331.661527 
L -428.495253 333.554406 
L -420.35323 335.638332 
L -412.211206 337.912732 
L -404.069183 340.385183 
L -395.92716 343.070617 
L -387.785136 345.986031 
L -379.643113 349.144131 
L -371.501089 352.541589 
L -363.359066 356.135208 
L -355.217043 359.873351 
L -347.075019 363.725201 
L -338.932996 367.658072 
L -330.790973 371.62944 
L -322.648949 375.58306 
L -314.506926 379.447692 
L -306.364903 383.139274 
L -298.222879 386.578329 
L -290.080856 389.728958 
L -281.938833 392.580371 
L -273.796809 395.12027 
L -265.654786 397.349139 
L -257.512763 399.274249 
L -249.370739 400.902366 
L -241.228716 402.235102 
L -233.086693 403.267924 
L -224.944669 403.991318 
L -216.802646 404.392771 
L -208.660623 404.457249 
L -200.518599 404.163013 
L -192.376576 403.481426 
L -184.234553 402.374396 
L -176.092529 400.791756 
L -167.950506 398.680041 
L -159.808482 396.030378 
L -151.666459 392.841634 
L -143.524436 389.074283 
L -135.382412 384.690756 
L -127.240389 379.683926 
L -119.098366 374.104164 
L -110.956342 368.05201 
L -102.814319 361.670687 
L -94.672296 355.119205 
L -86.530272 348.486087 
L -78.388249 341.821769 
L -70.246226 335.187307 
L -62.104202 328.620766 
L -53.962179 322.144023 
L -45.820156 315.749146 
L -37.678132 309.482291 
L -29.536109 303.360377 
L -21.394086 297.382059 
L -13.252062 291.54823 
L -5.110039 285.878151 
L 3.031984 280.423255 
L 11.174008 275.271057 
L 19.316031 270.537403 
L 27.458054 266.351204 
L 35.600078 262.838995 
L 43.742101 260.11209 
L 51.884125 258.258442 
L 60.026148 257.340078 
L 68.168171 257.397469 
L 76.310195 258.455997 
L 84.452218 260.55039 
L 92.594241 263.62364 
L 100.736265 267.671401 
L 108.878288 272.644341 
L 117.020311 278.480953 
L 125.162335 285.115465 
L 133.304358 292.479526 
L 141.446381 300.493082 
L 149.588405 309.049344 
L 157.730428 318.007101 
L 165.872451 327.193781 
L 174.014475 336.418877 
L 182.156498 345.491272 
L 190.298521 354.231605 
L 198.440545 362.479743 
L 206.582568 370.099681 
L 214.724591 376.982912 
L 222.866615 383.054402 
L 231.008638 388.281624 
L 239.150661 392.685398 
L 247.292685 396.351237 
L 255.434708 399.474907 
L 263.576732 402.331849 
L 271.718755 405.23864 
L 279.860778 408.580723 
L 288.002802 412.806456 
L 296.144825 418.383639 
L 304.286848 425.675744 
L 312.428872 434.763649 
L 320.570895 445.304273 
L 328.712918 456.471491 
L 336.854942 467.112158 
L 344.996965 475.989954 
L 353.138988 481.97352 
L 361.281012 484.232727 
L 369.423035 482.365806 
L 377.565058 476.442363 
L 385.707082 466.969967 
L 393.849105 454.803115 
L 401.991128 441.013778 
L 410.133152 426.739491 
L 418.275175 413.023123 
L 426.417198 400.661742 
L 434.559222 390.088007 
L 442.701245 381.314514 
L 450.843268 373.968768 
L 458.985292 367.42084 
L 467.127315 360.96926 
L 475.269339 354.025574 
L 483.411362 346.23867 
L 491.553385 337.527808 
L 499.695409 328.033276 
L 507.837432 318.02473 
L 515.979455 307.812357 
L 524.121479 297.687079 
L 532.263502 287.893643 
L 540.405525 278.628053 
L 548.547549 270.047691 
L 556.689572 262.284007 
L 564.831595 255.450158 
L 572.973619 249.641352 
L 581.115642 244.931688 
L 589.257665 241.373191 
L 597.399689 238.997682 
L 605.541712 237.819186 
L 613.683735 237.835545 
L 621.825759 239.027202 
L 629.967782 241.353069 
L 638.109805 244.747296 
L 646.251829 249.120473 
L 654.393852 254.364721 
L 662.535875 260.358547 
L 670.677899 266.970141 
L 678.819922 274.061274 
L 686.961946 281.493544 
L 695.103969 289.13776 
L 703.245992 296.883064 
L 711.388016 304.641641 
L 719.530039 312.349232 
L 727.672062 319.962142 
L 735.814086 327.451217 
L 743.956109 334.795385 
L 752.098132 341.97687 
L 760.240156 348.979217 
L 768.382179 355.786954 
L 776.524202 362.385681 
L 784.666226 368.762525 
L 792.808249 374.904231 
L 800.950272 380.791583 
L 809.092296 386.393029 
L 817.234319 391.66286 
L 825.376342 396.547376 
L 833.518366 400.995791 
L 841.660389 404.969053 
L 849.802412 408.441007 
L 857.944436 411.392094 
L 866.086459 413.800688 
L 874.228482 415.63802 
L 882.370506 416.871473 
L 890.512529 417.474906 
L 898.654553 417.439981 
L 906.796576 416.782707 
L 914.938599 415.541677 
L 923.080623 413.76843 
L 931.222646 411.514241 
L 939.364669 408.819639 
L 947.506693 405.71076 
L 955.648716 402.203653 
L 963.790739 398.315091 
L 971.932763 394.073871 
L 980.074786 389.525244 
L 988.216809 384.726327 
L 996.358833 379.737111 
L 1004.500856 374.61229 
L 1012.642879 369.396435 
L 1020.784903 364.124706 
L 1028.926926 358.828054 
L 1037.068949 353.538889 
L 1045.210973 348.294799 
L 1053.352996 343.139695 
L 1061.495019 338.123212 
L 1069.637043 333.299529 
L 1077.779066 328.726316 
L 1085.921089 324.463976 
L 1094.063113 320.574307 
L 1102.205136 317.118563 
L 1110.34716 314.15396 
L 1118.489183 311.726839 
L 1126.631206 309.864975 
L 1134.77323 308.572473 
L 1142.915253 307.828088 
L 1151.057276 307.588472 
L 1159.1993 307.797626 
L 1167.341323 308.398523 
L 1175.483346 309.339684 
L 1183.62537 310.576379 
L 1191.767393 312.070284 
L 1199.909416 313.787251 
L 1208.05144 315.694756 
L 1216.193463 317.76395 
L 1224.335486 319.975111 
L 1232.47751 322.32082 
L 1240.619533 324.805435 
L 1248.761556 327.442055 
L 1256.90358 330.245566 
L 1265.045603 333.222548 
L 1273.187626 336.362738 
L 1281.32965 339.6336 
L 1289.471673 342.977823 
L 1297.613696 346.3172 
L 1305.75572 349.563959 
L 1313.897743 352.633111 
L 1322.039767 355.451318 
L 1330.18179 357.963874 
L 1338.323813 360.139554 
L 1346.465837 361.929909 
L 1354.60786 363.233202 
L 1362.749883 363.927142 
L 1370.891907 363.927142 
L 1379.03393 363.233202 
L 1387.175953 361.929909 
L 1395.317977 360.139554 
L 1403.46 357.963874 
L 1403.46 354.145889 
L 1403.46 354.145889 
L 1395.317977 356.34031 
L 1387.175953 358.13558 
L 1379.03393 359.421038 
L 1370.891907 360.092536 
L 1362.749883 360.092536 
L 1354.60786 359.421038 
L 1346.465837 358.13558 
L 1338.323813 356.34031 
L 1330.18179 354.145889 
L 1322.039767 351.610396 
L 1313.897743 348.763812 
L 1305.75572 345.661918 
L 1297.613696 342.381642 
L 1289.471673 339.012923 
L 1281.32965 335.648018 
L 1273.187626 332.367488 
L 1265.045603 329.228092 
L 1256.90358 326.25934 
L 1248.761556 323.467339 
L 1240.619533 320.841894 
L 1232.47751 318.366392 
L 1224.335486 316.028291 
L 1216.193463 313.825346 
L 1208.05144 311.767068 
L 1199.909416 309.873757 
L 1191.767393 308.173053 
L 1183.62537 306.695308 
L 1175.483346 305.472493 
L 1167.341323 304.541501 
L 1159.1993 303.946907 
L 1151.057276 303.741211 
L 1142.915253 303.982709 
L 1134.77323 304.727703 
L 1126.631206 306.018396 
L 1118.489183 307.874252 
L 1110.34716 310.290343 
L 1102.205136 313.240223 
L 1094.063113 316.681078 
L 1085.921089 320.560249 
L 1077.779066 324.82048 
L 1069.637043 329.402342 
L 1061.495019 334.246078 
L 1053.352996 339.293547 
L 1045.210973 344.489472 
L 1037.068949 349.782595 
L 1028.926926 355.126922 
L 1020.784903 360.482675 
L 1012.642879 365.815752 
L 1004.500856 371.094706 
L 996.358833 376.285413 
L 988.216809 381.345311 
L 980.074786 386.221363 
L 971.932763 390.853454 
L 963.790739 395.181588 
L 955.648716 399.154864 
L 947.506693 402.737461 
L 939.364669 405.906672 
L 931.222646 408.643921 
L 923.080623 410.924661 
L 914.938599 412.712729 
L 906.796576 413.961662 
L 898.654553 414.623326 
L 890.512529 414.660452 
L 882.370506 414.056656 
L 874.228482 412.819035 
L 866.086459 410.972275 
L 857.944436 408.547552 
L 849.802412 405.572253 
L 841.660389 402.066956 
L 833.518366 398.05118 
L 825.376342 393.552789 
L 817.234319 388.614245 
L 809.092296 383.290336 
L 800.950272 377.637784 
L 792.808249 371.703147 
L 784.666226 365.516428 
L 776.524202 359.093996 
L 768.382179 352.446945 
L 760.240156 345.588572 
L 752.098132 338.536863 
L 743.956109 331.312791 
L 735.814086 323.937863 
L 727.672062 316.432283 
L 719.530039 308.816193 
L 711.388016 301.115547 
L 703.245992 293.370223 
L 695.103969 285.641108 
L 686.961946 278.013738 
L 678.819922 270.598221 
L 670.677899 263.524426 
L 662.535875 256.932226 
L 654.393852 250.961107 
L 646.251829 245.742888 
L 638.109805 241.397133 
L 629.967782 238.027877 
L 621.825759 235.7199 
L 613.683735 234.535577 
L 605.541712 234.515279 
L 597.399689 235.68115 
L 589.257665 238.040724 
L 581.115642 241.586935 
L 572.973619 246.294919 
L 564.831595 252.118017 
L 556.689572 258.98494 
L 548.547549 266.800825 
L 540.405525 275.451121 
L 532.263502 284.801892 
L 524.121479 294.692233 
L 515.979455 304.921181 
L 507.837432 315.23746 
L 499.695409 325.342791 
L 491.553385 334.920395 
L 483.411362 343.696666 
L 475.269339 351.531181 
L 467.127315 358.508455 
L 458.985292 364.986583 
L 450.843268 371.562749 
L 442.701245 378.946315 
L 434.559222 387.771055 
L 426.417198 398.406733 
L 418.275175 410.831147 
L 410.133152 424.598049 
L 401.991128 438.898463 
L 393.849105 452.685222 
L 385.707082 464.826394 
L 377.565058 474.262177 
L 369.423035 480.150585 
L 361.281012 481.992125 
L 353.138988 479.719517 
L 344.996965 473.73278 
L 336.854942 464.858927 
L 328.712918 454.226702 
L 320.570895 443.070721 
L 312.428872 432.543214 
L 304.286848 423.458609 
L 296.144825 416.152805 
L 288.002802 410.567443 
L 279.860778 406.36255 
L 271.718755 403.05617 
L 263.576732 400.161693 
L 255.434708 397.282313 
L 247.292685 394.126067 
L 239.150661 390.42435 
L 231.008638 385.972779 
L 222.866615 380.686545 
L 214.724591 374.545317 
L 206.582568 367.581791 
L 198.440545 359.871666 
L 190.298521 351.525631 
L 182.156498 342.683566 
L 174.014475 333.510391 
L 165.872451 324.189931 
L 157.730428 314.916357 
L 149.588405 305.881012 
L 141.446381 297.25511 
L 133.304358 289.178073 
L 125.162335 281.757196 
L 117.020311 275.076251 
L 108.878288 269.208193 
L 100.736265 264.221006 
L 92.594241 260.174658 
L 84.452218 257.11431 
L 76.310195 255.03862 
L 68.168171 254.000399 
L 60.026148 253.959131 
L 51.884125 254.885264 
L 43.742101 256.736587 
L 35.600078 259.452599 
L 27.458054 262.949144 
L 19.316031 267.118346 
L 11.174008 271.834904 
L 3.031984 276.969529 
L -5.110039 282.406238 
L -13.252062 288.058029 
L -21.394086 293.873232 
L -29.536109 299.831013 
L -37.678132 305.929188 
L -45.820156 312.169611 
L -53.962179 318.53806 
L -62.104202 324.987171 
L -70.246226 331.52646 
L -78.388249 338.137324 
L -86.530272 344.786587 
L -94.672296 351.416873 
L -102.814319 357.978532 
L -110.956342 364.376973 
L -119.098366 370.449282 
L -127.240389 376.063025 
L -135.382412 381.12859 
L -143.524436 385.586185 
L -151.666459 389.421238 
L -159.808482 392.665536 
L -167.950506 395.373229 
L -176.092529 397.547536 
L -184.234553 399.188669 
L -192.376576 400.34786 
L -200.518599 401.072593 
L -208.660623 401.398093 
L -216.802646 401.351486 
L -224.944669 400.954953 
L -233.086693 400.225404 
L -241.228716 399.177905 
L -249.370739 397.824425 
L -257.512763 396.171497 
L -265.654786 394.219085 
L -273.796809 391.96155 
L -281.938833 389.392157 
L -290.080856 386.510388 
L -298.222879 383.32816 
L -306.364903 379.855448 
L -314.506926 376.125949 
L -322.648949 372.217931 
L -330.790973 368.219023 
L -338.932996 364.205866 
L -347.075019 360.236168 
L -355.217043 356.350456 
L -363.359066 352.581591 
L -371.501089 348.964265 
L -379.643113 345.553633 
L -387.785136 342.39406 
L -395.92716 339.487728 
L -404.069183 336.819025 
L -412.211206 334.366736 
L -420.35323 332.111177 
L -428.495253 330.0406 
L -436.637276 328.152927 
L -444.7793 326.455027 
L -452.921323 324.963092 
L -461.063346 323.702115 
L -469.20537 322.695999 
L -477.347393 321.974797 
L -485.489416 321.577453 
L -493.63144 321.529801 
L -501.773463 321.834117 
L -509.915486 322.442212 
L -518.05751 323.289875 
L -526.199533 324.337834 
L -534.341556 325.549939 
L -542.48358 326.892684 
L -550.625603 328.315721 
L -558.767626 329.738138 
L -566.90965 331.09324 
L -575.051673 332.353479 
L -583.193696 333.57025 
L -591.33572 334.807013 
L -599.477743 336.104412 
L -607.619767 337.483869 
L -615.76179 338.940983 
L -623.903813 340.448616 
L -632.045837 341.896953 
L -640.18786 343.062988 
L -648.329883 343.715119 
L -656.471907 343.715119 
L -664.61393 343.062988 
L -672.755953 341.896953 
L -680.897977 340.448616 
L -689.04 338.940983 
z
" style="fill:#808080;fill-opacity:0.3;stroke:#ffffff;stroke-opacity:0.3;"/>
   </g>
   <g id="PolyCollection_2">
    <path clip-path="url(#pa87ae92a9a)" d="M -689.04 355.085407 
L -689.04 358.600904 
L -680.897977 357.960557 
L -672.755953 357.47287 
L -664.61393 357.160074 
L -656.471907 357.010601 
L -648.329883 357.010601 
L -640.18786 357.160074 
L -632.045837 357.47287 
L -623.903813 357.960557 
L -615.76179 358.600904 
L -607.619767 359.331748 
L -599.477743 360.080036 
L -591.33572 360.840691 
L -583.193696 361.59101 
L -575.051673 362.203398 
L -566.90965 362.540648 
L -558.767626 362.526728 
L -550.625603 362.191445 
L -542.48358 361.635326 
L -534.341556 360.964041 
L -526.199533 360.256484 
L -518.05751 359.505127 
L -509.915486 358.703157 
L -501.773463 357.912294 
L -493.63144 357.1809 
L -485.489416 356.525308 
L -477.347393 355.927789 
L -469.20537 355.364754 
L -461.063346 354.819946 
L -452.921323 354.269039 
L -444.7793 353.683435 
L -436.637276 353.038256 
L -428.495253 352.316249 
L -420.35323 351.506494 
L -412.211206 350.598692 
L -404.069183 349.585549 
L -395.92716 348.472142 
L -387.785136 347.279198 
L -379.643113 346.041495 
L -371.501089 344.801335 
L -363.359066 343.599929 
L -355.217043 342.472012 
L -347.075019 341.445935 
L -338.932996 340.549741 
L -330.790973 339.811508 
L -322.648949 339.253106 
L -314.506926 338.887684 
L -306.364903 338.719291 
L -298.222879 338.744869 
L -290.080856 338.957527 
L -281.938833 339.349192 
L -273.796809 339.913081 
L -265.654786 340.645892 
L -257.512763 341.54756 
L -249.370739 342.618876 
L -241.228716 343.85913 
L -233.086693 345.264375 
L -224.944669 346.826011 
L -216.802646 348.530168 
L -208.660623 350.358185 
L -200.518599 352.329838 
L -192.376576 354.441957 
L -184.234553 356.607764 
L -176.092529 358.719321 
L -167.950506 360.691744 
L -159.808482 362.503502 
L -151.666459 364.196647 
L -143.524436 365.83955 
L -135.382412 367.490161 
L -127.240389 369.140403 
L -119.098366 370.741134 
L -110.956342 372.291174 
L -102.814319 373.826192 
L -94.672296 375.374623 
L -86.530272 376.943843 
L -78.388249 378.518556 
L -70.246226 380.06297 
L -62.104202 381.584129 
L -53.962179 383.061583 
L -45.820156 384.4083 
L -37.678132 385.523946 
L -29.536109 386.320558 
L -21.394086 386.807231 
L -13.252062 387.098205 
L -5.110039 387.323803 
L 3.031984 387.548637 
L 11.174008 387.719462 
L 19.316031 387.75725 
L 27.458054 387.642172 
L 35.600078 387.357051 
L 43.742101 386.883943 
L 51.884125 386.198329 
L 60.026148 385.253006 
L 68.168171 383.999607 
L 76.310195 382.410497 
L 84.452218 380.468668 
L 92.594241 378.173855 
L 100.736265 375.545049 
L 108.878288 372.617302 
L 117.020311 369.430461 
L 125.162335 366.02096 
L 133.304358 362.420902 
L 141.446381 358.658025 
L 149.588405 354.756275 
L 157.730428 350.733925 
L 165.872451 346.600281 
L 174.014475 342.355526 
L 182.156498 337.995343 
L 190.298521 333.521087 
L 198.440545 328.945588 
L 206.582568 324.291223 
L 214.724591 319.588528 
L 222.866615 314.876433 
L 231.008638 310.204403 
L 239.150661 305.636899 
L 247.292685 301.258195 
L 255.434708 297.174981 
L 263.576732 293.518371 
L 271.718755 290.442956 
L 279.860778 288.119578 
L 288.002802 286.718601 
L 296.144825 286.383028 
L 304.286848 287.199641 
L 312.428872 289.178843 
L 320.570895 292.247976 
L 328.712918 296.257478 
L 336.854942 300.99642 
L 344.996965 306.213684 
L 353.138988 311.641839 
L 361.281012 317.022382 
L 369.423035 322.131616 
L 377.565058 326.802809 
L 385.707082 330.939809 
L 393.849105 334.521625 
L 401.991128 337.598194 
L 410.133152 340.275862 
L 418.275175 342.694317 
L 426.417198 345.000403 
L 434.559222 347.324055 
L 442.701245 349.761002 
L 450.843268 352.364977 
L 458.985292 355.147882 
L 467.127315 358.084597 
L 475.269339 361.121086 
L 483.411362 364.185484 
L 491.553385 367.200871 
L 499.695409 370.097931 
L 507.837432 372.825331 
L 515.979455 375.354102 
L 524.121479 377.675219 
L 532.263502 379.794767 
L 540.405525 381.729485 
L 548.547549 383.501137 
L 556.689572 385.128316 
L 564.831595 386.617417 
L 572.973619 387.954884 
L 581.115642 389.103559 
L 589.257665 390.007292 
L 597.399689 390.602302 
L 605.541712 390.829891 
L 613.683735 390.647244 
L 621.825759 390.033741 
L 629.967782 388.990712 
L 638.109805 387.534296 
L 646.251829 385.685506 
L 654.393852 383.463569 
L 662.535875 380.884942 
L 670.677899 377.967986 
L 678.819922 374.739359 
L 686.961946 371.236107 
L 695.103969 367.502634 
L 703.245992 363.586246 
L 711.388016 359.53528 
L 719.530039 355.400938 
L 727.672062 351.240359 
L 735.814086 347.117366 
L 743.956109 343.09792 
L 752.098132 339.241118 
L 760.240156 335.589916 
L 768.382179 332.16588 
L 776.524202 328.971404 
L 784.666226 325.972237 
L 792.808249 323.15112 
L 800.950272 320.552755 
L 809.092296 318.236314 
L 817.234319 316.246898 
L 825.376342 314.598642 
L 833.518366 313.269376 
L 841.660389 312.204287 
L 849.802412 311.333072 
L 857.944436 310.624013 
L 866.086459 310.064106 
L 874.228482 309.624116 
L 882.370506 309.287193 
L 890.512529 309.052403 
L 898.654553 308.935532 
L 906.796576 308.96811 
L 914.938599 309.196012 
L 923.080623 309.674415 
L 931.222646 310.457025 
L 939.364669 311.583017 
L 947.506693 313.067688 
L 955.648716 314.900582 
L 963.790739 317.050648 
L 971.932763 319.475558 
L 980.074786 322.128759 
L 988.216809 324.961397 
L 996.358833 327.922967 
L 1004.500856 330.962342 
L 1012.642879 334.02899 
L 1020.784903 337.075677 
L 1028.926926 340.062413 
L 1037.068949 342.958778 
L 1045.210973 345.742538 
L 1053.352996 348.397107 
L 1061.495019 350.909616 
L 1069.637043 353.268822 
L 1077.779066 355.465539 
L 1085.921089 357.496271 
L 1094.063113 359.365924 
L 1102.205136 361.086069 
L 1110.34716 362.670007 
L 1118.489183 364.12829 
L 1126.631206 365.465818 
L 1134.77323 366.680841 
L 1142.915253 367.765803 
L 1151.057276 368.7084 
L 1159.1993 369.492654 
L 1167.341323 370.100762 
L 1175.483346 370.516023 
L 1183.62537 370.725802 
L 1191.767393 370.722961 
L 1199.909416 370.506818 
L 1208.05144 370.085008 
L 1216.193463 369.47482 
L 1224.335486 368.701153 
L 1232.47751 367.792014 
L 1240.619533 366.774464 
L 1248.761556 365.669801 
L 1256.90358 364.488076 
L 1265.045603 363.225362 
L 1273.187626 361.86583 
L 1281.32965 360.388795 
L 1289.471673 358.778526 
L 1297.613696 357.034163 
L 1305.75572 355.174688 
L 1313.897743 353.235146 
L 1322.039767 351.258872 
L 1330.18179 349.289647 
L 1338.323813 347.365058 
L 1346.465837 345.599148 
L 1354.60786 344.218731 
L 1362.749883 343.457155 
L 1370.891907 343.457155 
L 1379.03393 344.218731 
L 1387.175953 345.599148 
L 1395.317977 347.365058 
L 1403.46 349.289647 
L 1403.46 345.602438 
L 1403.46 345.602438 
L 1395.317977 343.628999 
L 1387.175953 341.820016 
L 1379.03393 340.393891 
L 1370.891907 339.598183 
L 1362.749883 339.598183 
L 1354.60786 340.393891 
L 1346.465837 341.820016 
L 1338.323813 343.628999 
L 1330.18179 345.602438 
L 1322.039767 347.631769 
L 1313.897743 349.671022 
L 1305.75572 351.667343 
L 1297.613696 353.570305 
L 1289.471673 355.341387 
L 1281.32965 356.961426 
L 1273.187626 358.433078 
L 1265.045603 359.775299 
L 1256.90358 361.013898 
L 1248.761556 362.17198 
L 1240.619533 363.261611 
L 1232.47751 364.278667 
L 1224.335486 365.202482 
L 1216.193463 366.000875 
L 1208.05144 366.637655 
L 1199.909416 367.080425 
L 1191.767393 367.307761 
L 1183.62537 367.312297 
L 1175.483346 367.098866 
L 1167.341323 366.680506 
L 1159.1993 366.074612 
L 1151.057276 365.299539 
L 1142.915253 364.371685 
L 1134.77323 363.304097 
L 1126.631206 362.106367 
L 1118.489183 360.784626 
L 1110.34716 359.340606 
L 1102.205136 357.77017 
L 1094.063113 356.06333 
L 1085.921089 354.206239 
L 1077.779066 352.185397 
L 1069.637043 349.993357 
L 1061.495019 347.632031 
L 1053.352996 345.111338 
L 1045.210973 342.445754 
L 1037.068949 339.652654 
L 1028.926926 336.752117 
L 1020.784903 333.766608 
L 1012.642879 330.722799 
L 1004.500856 327.654493 
L 996.358833 324.603573 
L 988.216809 321.619252 
L 980.074786 318.756319 
L 971.932763 316.07199 
L 963.790739 313.621498 
L 955.648716 311.454845 
L 947.506693 309.614622 
L 939.364669 308.130863 
L 931.222646 307.014093 
L 923.080623 306.251044 
L 914.938599 305.805237 
L 906.796576 305.623563 
L 898.654553 305.646745 
L 890.512529 305.819661 
L 882.370506 306.098987 
L 874.228482 306.459339 
L 866.086459 306.898423 
L 857.944436 307.436994 
L 849.802412 308.112302 
L 841.660389 308.944967 
L 833.518366 309.967652 
L 825.376342 311.248814 
L 817.234319 312.847514 
L 809.092296 314.791266 
L 800.950272 317.064729 
L 792.808249 319.62057 
L 784.666226 322.406153 
L 776.524202 325.387684 
L 768.382179 328.583283 
L 760.240156 332.022457 
L 752.098132 335.698763 
L 743.956109 339.585779 
L 735.814086 343.635308 
L 727.672062 347.782947 
L 719.530039 351.958289 
L 711.388016 356.09498 
L 703.245992 360.135182 
L 695.103969 364.028133 
L 686.961946 367.727256 
L 678.819922 371.189916 
L 670.677899 374.380312 
L 662.535875 377.27184 
L 654.393852 379.845908 
L 646.251829 382.087098 
L 638.109805 383.977209 
L 629.967782 385.492538 
L 621.825759 386.606169 
L 613.683735 387.295013 
L 605.541712 387.550291 
L 597.399689 387.38593 
L 589.257665 386.84031 
L 581.115642 385.970849 
L 572.973619 384.843124 
L 564.831595 383.517445 
L 556.689572 382.036384 
L 548.547549 380.418613 
L 540.405525 378.660691 
L 532.263502 376.743266 
L 524.121479 374.640174 
L 515.979455 372.328836 
L 507.837432 369.799105 
L 499.695409 367.060063 
L 491.553385 364.145067 
L 483.411362 361.11236 
L 475.269339 358.037988 
L 467.127315 355.00287 
L 458.985292 352.078482 
L 450.843268 349.314096 
L 442.701245 346.727836 
L 434.559222 344.301828 
L 426.417198 341.979121 
L 418.275175 339.662578 
L 410.133152 337.220711 
L 401.991128 334.504439 
L 393.849105 331.372716 
L 385.707082 327.720986 
L 377.565058 323.505137 
L 369.423035 318.754652 
L 361.281012 313.574132 
L 353.138988 308.136088 
L 344.996965 302.665938 
L 336.854942 297.420019 
L 328.712918 292.660933 
L 320.570895 288.634091 
L 312.428872 285.545815 
L 304.286848 283.54392 
L 296.144825 282.703161 
L 288.002802 283.018642 
L 279.860778 284.410696 
L 271.718755 286.742748 
L 263.576732 289.848287 
L 255.434708 293.556459 
L 247.292685 297.707975 
L 239.150661 302.162184 
L 231.008638 306.799511 
L 222.866615 311.5235 
L 214.724591 316.263617 
L 206.582568 320.973602 
L 198.440545 325.625309 
L 190.298521 330.200854 
L 182.156498 334.686531 
L 174.014475 339.071197 
L 165.872451 343.34918 
L 157.730428 347.51602 
L 149.588405 351.560461 
L 141.446381 355.464703 
L 133.304358 359.208751 
L 125.162335 362.774458 
L 117.020311 366.144448 
L 108.878288 369.297534 
L 100.736265 372.206122 
L 92.594241 374.835839 
L 84.452218 377.153003 
L 76.310195 379.135546 
L 68.168171 380.776362 
L 60.026148 382.081968 
L 51.884125 383.068994 
L 43.742101 383.777555 
L 35.600078 384.250124 
L 27.458054 384.511998 
L 19.316031 384.589828 
L 11.174008 384.512635 
L 3.031984 384.307619 
L -5.110039 384.053712 
L -13.252062 383.783978 
L -21.394086 383.420055 
L -29.536109 382.870471 
L -37.678132 382.076781 
L -45.820156 381.032842 
L -53.962179 379.770166 
L -62.104202 378.339013 
L -70.246226 376.825619 
L -78.388249 375.268565 
L -86.530272 373.674237 
L -94.672296 372.088051 
L -102.814319 370.523908 
L -110.956342 368.967799 
L -119.098366 367.393198 
L -127.240389 365.7734 
L -135.382412 364.110749 
L -143.524436 362.450132 
L -151.666459 360.786957 
L -159.808482 359.05163 
L -167.950506 357.192211 
L -176.092529 355.196833 
L -184.234553 353.091104 
L -192.376576 350.931009 
L -200.518599 348.79903 
L -208.660623 346.786792 
L -216.802646 344.915973 
L -224.944669 343.176441 
L -233.086693 341.591139 
L -241.228716 340.175883 
L -249.370739 338.937809 
L -257.512763 337.875819 
L -265.654786 336.983609 
L -273.796809 336.254495 
L -281.938833 335.68646 
L -290.080856 335.285035 
L -298.222879 335.062073 
L -306.364903 335.031528 
L -314.506926 335.205354 
L -322.648949 335.589539 
L -330.790973 336.179705 
L -338.932996 336.958689 
L -347.075019 337.897733 
L -355.217043 338.960815 
L -363.359066 340.113676 
L -371.501089 341.324412 
L -379.643113 342.557071 
L -387.785136 343.772471 
L -395.92716 344.933619 
L -404.069183 346.012561 
L -412.211206 346.994603 
L -420.35323 347.878901 
L -428.495253 348.675412 
L -436.637276 349.395319 
L -444.7793 350.047753 
L -452.921323 350.645101 
L -461.063346 351.205473 
L -469.20537 351.751353 
L -477.347393 352.304224 
L -485.489416 352.881406 
L -493.63144 353.510386 
L -501.773463 354.213658 
L -509.915486 354.980074 
L -518.05751 355.767319 
L -526.199533 356.517405 
L -534.341556 357.233872 
L -542.48358 357.900097 
L -550.625603 358.416674 
L -558.767626 358.708126 
L -566.90965 358.72615 
L -575.051673 358.448133 
L -583.193696 357.905818 
L -591.33572 357.201627 
L -599.477743 356.474083 
L -607.619767 355.766484 
L -615.76179 355.085407 
L -623.903813 354.497928 
L -632.045837 354.048794 
L -640.18786 353.74443 
L -648.329883 353.586664 
L -656.471907 353.586664 
L -664.61393 353.74443 
L -672.755953 354.048794 
L -680.897977 354.497928 
L -689.04 355.085407 
z
" style="fill:#f08080;fill-opacity:0.3;stroke:#ffffff;stroke-opacity:0.3;"/>
   </g>
   <g id="PolyCollection_3">
    <path clip-path="url(#pa87ae92a9a)" d="M -689.04 346.297062 
L -689.04 351.270753 
L -680.897977 352.097297 
L -672.755953 353.03252 
L -664.61393 353.889219 
L -656.471907 354.407088 
L -648.329883 354.407088 
L -640.18786 353.889219 
L -632.045837 353.03252 
L -623.903813 352.097297 
L -615.76179 351.270753 
L -607.619767 350.580903 
L -599.477743 349.971484 
L -591.33572 349.43295 
L -583.193696 348.916565 
L -575.051673 348.258678 
L -566.90965 347.28306 
L -558.767626 345.861427 
L -550.625603 344.069637 
L -542.48358 342.068893 
L -534.341556 340.036025 
L -526.199533 338.098582 
L -518.05751 336.287674 
L -509.915486 334.636698 
L -501.773463 333.24408 
L -493.63144 332.216557 
L -485.489416 331.613522 
L -477.347393 331.412784 
L -469.20537 331.564429 
L -461.063346 332.013642 
L -452.921323 332.707765 
L -444.7793 333.597099 
L -436.637276 334.634684 
L -428.495253 335.789752 
L -420.35323 337.046568 
L -412.211206 338.397568 
L -404.069183 339.846002 
L -395.92716 341.413854 
L -387.785136 343.139344 
L -379.643113 345.069061 
L -371.501089 347.240169 
L -363.359066 349.647673 
L -355.217043 352.272026 
L -347.075019 355.110326 
L -338.932996 358.15929 
L -330.790973 361.40649 
L -322.648949 364.818176 
L -314.506926 368.334668 
L -306.364903 371.873345 
L -298.222879 375.349684 
L -290.080856 378.721096 
L -281.938833 381.96977 
L -273.796809 385.077044 
L -265.654786 388.040574 
L -257.512763 390.868048 
L -249.370739 393.567423 
L -241.228716 396.139663 
L -233.086693 398.575834 
L -224.944669 400.857052 
L -216.802646 402.956356 
L -208.660623 404.840046 
L -200.518599 406.505872 
L -192.376576 407.921449 
L -184.234553 408.964177 
L -176.092529 409.479827 
L -167.950506 409.329561 
L -159.808482 408.47945 
L -151.666459 406.966881 
L -143.524436 404.820764 
L -135.382412 402.067132 
L -127.240389 398.692683 
L -119.098366 394.699912 
L -110.956342 390.189936 
L -102.814319 385.341623 
L -94.672296 380.343357 
L -86.530272 375.291357 
L -78.388249 370.218744 
L -70.246226 365.146567 
L -62.104202 360.115365 
L -53.962179 355.123945 
L -45.820156 350.103096 
L -37.678132 344.956139 
L -29.536109 339.644641 
L -21.394086 334.175382 
L -13.252062 328.655704 
L -5.110039 323.227949 
L 3.031984 318.008502 
L 11.174008 313.036299 
L 19.316031 308.353215 
L 27.458054 304.071372 
L 35.600078 300.297755 
L 43.742101 297.1194 
L 51.884125 294.594173 
L 60.026148 292.735876 
L 68.168171 291.536647 
L 76.310195 290.994751 
L 84.452218 291.13624 
L 92.594241 291.897238 
L 100.736265 293.30156 
L 108.878288 295.338102 
L 117.020311 297.986471 
L 125.162335 301.216755 
L 133.304358 304.991389 
L 141.446381 309.257152 
L 149.588405 313.93117 
L 157.730428 318.890903 
L 165.872451 323.973076 
L 174.014475 328.986542 
L 182.156498 333.734279 
L 190.298521 338.036279 
L 198.440545 341.743009 
L 206.582568 344.738612 
L 214.724591 346.943482 
L 222.866615 348.32105 
L 231.008638 348.889091 
L 239.150661 348.734513 
L 247.292685 348.028689 
L 255.434708 347.079199 
L 263.576732 346.292282 
L 271.718755 346.129214 
L 279.860778 347.144874 
L 288.002802 349.965832 
L 296.144825 355.207532 
L 304.286848 363.316925 
L 312.428872 374.381582 
L 320.570895 387.987679 
L 328.712918 403.160502 
L 336.854942 418.534875 
L 344.996965 432.624566 
L 353.138988 444.033209 
L 361.281012 451.675046 
L 369.423035 454.9265 
L 377.565058 453.689926 
L 385.707082 448.373162 
L 393.849105 439.803795 
L 401.991128 429.0976 
L 410.133152 417.494797 
L 418.275175 406.178114 
L 426.417198 396.094588 
L 434.559222 387.810891 
L 442.701245 381.438857 
L 450.843268 376.662091 
L 458.985292 372.863844 
L 467.127315 369.318008 
L 475.269339 365.382164 
L 483.411362 360.633387 
L 491.553385 354.914223 
L 499.695409 348.295955 
L 507.837432 340.997077 
L 515.979455 333.298617 
L 524.121479 325.482057 
L 532.263502 317.798064 
L 540.405525 310.459789 
L 548.547549 303.647134 
L 556.689572 297.510667 
L 564.831595 292.169698 
L 572.973619 287.704702 
L 581.115642 284.150778 
L 589.257665 281.501835 
L 597.399689 279.7244 
L 605.541712 278.773143 
L 613.683735 278.603431 
L 621.825759 279.176265 
L 629.967782 280.45349 
L 638.109805 282.386751 
L 646.251829 284.908063 
L 654.393852 287.927905 
L 662.535875 291.339455 
L 670.677899 295.027274 
L 678.819922 298.878305 
L 686.961946 302.790812 
L 695.103969 306.681088 
L 703.245992 310.487947 
L 711.388016 314.174846 
L 719.530039 317.731488 
L 727.672062 321.173473 
L 735.814086 324.536913 
L 743.956109 327.86739 
L 752.098132 331.20594 
L 760.240156 334.57761 
L 768.382179 337.986067 
L 776.524202 341.416568 
L 784.666226 344.820132 
L 792.808249 348.164398 
L 800.950272 351.473504 
L 809.092296 354.776381 
L 817.234319 358.075369 
L 825.376342 361.332264 
L 833.518366 364.47249 
L 841.660389 367.39975 
L 849.802412 370.016832 
L 857.944436 372.273206 
L 866.086459 374.134169 
L 874.228482 375.540351 
L 882.370506 376.440536 
L 890.512529 376.806308 
L 898.654553 376.644777 
L 906.796576 376.004198 
L 914.938599 374.970474 
L 923.080623 373.651984 
L 931.222646 372.155075 
L 939.364669 370.560232 
L 947.506693 368.909094 
L 955.648716 367.207184 
L 963.790739 365.440228 
L 971.932763 363.594862 
L 980.074786 361.670011 
L 988.216809 359.674086 
L 996.358833 357.616608 
L 1004.500856 355.501216 
L 1012.642879 353.322278 
L 1020.784903 351.068351 
L 1028.926926 348.731207 
L 1037.068949 346.313599 
L 1045.210973 343.83138 
L 1053.352996 341.312035 
L 1061.495019 338.792307 
L 1069.637043 336.315286 
L 1077.779066 333.930004 
L 1085.921089 331.694112 
L 1094.063113 329.674655 
L 1102.205136 327.943797 
L 1110.34716 326.570243 
L 1118.489183 325.608486 
L 1126.631206 325.089207 
L 1134.77323 325.013984 
L 1142.915253 325.354539 
L 1151.057276 326.056385 
L 1159.1993 327.048517 
L 1167.341323 328.256301 
L 1175.483346 329.610949 
L 1183.62537 331.054238 
L 1191.767393 332.540451 
L 1199.909416 334.035684 
L 1208.05144 335.517051 
L 1216.193463 336.975224 
L 1224.335486 338.416753 
L 1232.47751 339.862058 
L 1240.619533 341.340873 
L 1248.761556 342.885042 
L 1256.90358 344.51702 
L 1265.045603 346.237981 
L 1273.187626 348.021872 
L 1281.32965 349.816844 
L 1289.471673 351.551667 
L 1297.613696 353.148507 
L 1305.75572 354.538796 
L 1313.897743 355.672154 
L 1322.039767 356.518079 
L 1330.18179 357.065472 
L 1338.323813 357.320882 
L 1346.465837 357.347299 
L 1354.60786 357.267102 
L 1362.749883 357.194949 
L 1370.891907 357.194949 
L 1379.03393 357.267102 
L 1387.175953 357.347299 
L 1395.317977 357.320882 
L 1403.46 357.065472 
L 1403.46 352.105311 
L 1403.46 352.105311 
L 1395.317977 352.321974 
L 1387.175953 352.306289 
L 1379.03393 352.168695 
L 1370.891907 352.049002 
L 1362.749883 352.049002 
L 1354.60786 352.168695 
L 1346.465837 352.306289 
L 1338.323813 352.321974 
L 1330.18179 352.105311 
L 1322.039767 351.603211 
L 1313.897743 350.799873 
L 1305.75572 349.698047 
L 1297.613696 348.323738 
L 1289.471673 346.727927 
L 1281.32965 344.983931 
L 1273.187626 343.176197 
L 1265.045603 341.382255 
L 1256.90358 339.658794 
L 1248.761556 338.035068 
L 1240.619533 336.511466 
L 1232.47751 335.06477 
L 1224.335486 333.659219 
L 1216.193463 332.258703 
L 1208.05144 330.836371 
L 1199.909416 329.381502 
L 1191.767393 327.902543 
L 1183.62537 326.424482 
L 1175.483346 324.985052 
L 1167.341323 323.633926 
L 1159.1993 322.432217 
L 1151.057276 321.450172 
L 1142.915253 320.762682 
L 1134.77323 320.440064 
L 1126.631206 320.535284 
L 1118.489183 321.074455 
L 1110.34716 322.053608 
L 1102.205136 323.440165 
L 1094.063113 325.178918 
L 1085.921089 327.201558 
L 1077.779066 329.436663 
L 1069.637043 331.817698 
L 1061.495019 334.287565 
L 1053.352996 336.798587 
L 1045.210973 339.310118 
L 1037.068949 341.788252 
L 1028.926926 344.207234 
L 1020.784903 346.55025 
L 1012.642879 348.810633 
L 1004.500856 350.991549 
L 996.358833 353.101391 
L 988.216809 355.147136 
L 980.074786 357.130609 
L 971.932763 359.048947 
L 963.790739 360.897532 
L 955.648716 362.675694 
L 947.506693 364.390373 
L 939.364669 366.048894 
L 931.222646 367.643139 
L 923.080623 369.1355 
L 914.938599 370.454114 
L 906.796576 371.50078 
L 898.654553 372.169742 
L 890.512529 372.370049 
L 882.370506 372.042707 
L 874.228482 371.169094 
L 866.086459 369.770259 
L 857.944436 367.896382 
L 849.802412 365.610737 
L 841.660389 362.954449 
L 833.518366 359.980443 
L 825.376342 356.784292 
L 817.234319 353.465084 
L 809.092296 350.103499 
L 800.950272 346.742282 
L 792.808249 343.383605 
L 784.666226 340.006147 
L 776.524202 336.591132 
L 768.382179 333.16593 
L 760.240156 329.771487 
L 752.098132 326.416609 
L 743.956109 323.09342 
L 735.814086 319.773775 
L 727.672062 316.413194 
L 719.530039 312.962099 
L 711.388016 309.381537 
L 703.245992 305.655703 
L 695.103969 301.797482 
L 686.961946 297.848769 
L 678.819922 293.8794 
L 670.677899 289.984526 
L 662.535875 286.277034 
L 654.393852 282.876333 
L 646.251829 279.896838 
L 638.109805 277.438117 
L 629.967782 275.579641 
L 621.825759 274.379682 
L 613.683735 273.878884 
L 605.541712 274.110438 
L 597.399689 275.1116 
L 589.257665 276.928617 
L 581.115642 279.611188 
L 572.973619 283.198512 
L 564.831595 287.702274 
L 556.689572 293.091915 
L 548.547549 299.290067 
L 540.405525 306.178497 
L 532.263502 313.604439 
L 524.121479 321.381584 
L 515.979455 329.286794 
L 507.837432 337.058484 
L 499.695409 344.407041 
L 491.553385 351.048852 
L 483.411362 356.768727 
L 475.269339 361.502599 
L 467.127315 365.416108 
L 458.985292 368.938878 
L 450.843268 372.717434 
L 442.701245 377.479745 
L 434.559222 383.842988 
L 426.417198 392.122346 
L 418.275175 402.201985 
L 410.133152 413.508252 
L 401.991128 425.086209 
L 393.849105 435.747817 
L 385.707082 444.252928 
L 377.565058 449.491495 
L 369.423035 450.645093 
L 361.281012 447.315255 
L 353.138988 439.606691 
L 344.996965 428.146726 
L 336.854942 414.021583 
L 328.712918 398.625038 
L 320.570895 383.438316 
L 312.428872 369.818874 
L 304.286848 358.729924 
L 296.144825 350.584037 
L 288.002802 345.314244 
L 279.860778 342.497607 
L 271.718755 341.520235 
L 263.576732 341.736853 
L 255.434708 342.578396 
L 247.292685 343.58372 
L 239.150661 344.343252 
L 231.008638 344.538161 
L 222.866615 343.988765 
L 214.724591 342.605826 
L 206.582568 340.37662 
L 198.440545 337.348232 
L 190.298521 333.611833 
L 182.156498 329.291367 
L 174.014475 324.538384 
L 165.872451 319.529031 
L 157.730428 314.451434 
L 149.588405 309.484857 
L 141.446381 304.782703 
L 133.304358 300.464798 
L 125.162335 296.620259 
L 117.020311 293.314576 
L 108.878288 290.598202 
L 100.736265 288.510953 
L 92.594241 287.07969 
L 84.452218 286.319066 
L 76.310195 286.204408 
L 68.168171 286.796457 
L 60.026148 288.057601 
L 51.884125 289.975536 
L 43.742101 292.548572 
L 35.600078 295.758225 
L 27.458054 299.540666 
L 19.316031 303.80882 
L 11.174008 308.464339 
L 3.031984 313.408237 
L -5.110039 318.608379 
L -13.252062 324.015156 
L -21.394086 329.498339 
L -29.536109 334.937744 
L -37.678132 340.264303 
L -45.820156 345.472196 
L -53.962179 350.558822 
L -62.104202 355.584648 
L -70.246226 360.624724 
L -78.388249 365.696405 
L -86.530272 370.768332 
L -94.672296 375.82433 
L -102.814319 380.82663 
L -110.956342 385.666954 
L -119.098366 390.1568 
L -127.240389 394.137006 
L -135.382412 397.522059 
L -143.524436 400.298321 
L -151.666459 402.448529 
L -159.808482 403.940531 
L -167.950506 404.776599 
L -176.092529 404.944554 
L -184.234553 404.46669 
L -192.376576 403.449739 
L -200.518599 402.027538 
L -208.660623 400.329209 
L -216.802646 398.402976 
L -224.944669 396.260606 
L -233.086693 393.941944 
L -241.228716 391.477292 
L -249.370739 388.884988 
L -257.512763 386.170013 
L -265.654786 383.326085 
L -273.796809 380.341286 
L -281.938833 377.207345 
L -290.080856 373.929749 
L -298.222879 370.532682 
L -306.364903 367.041131 
L -314.506926 363.500948 
L -322.648949 359.994395 
L -330.790973 356.60212 
L -338.932996 353.382012 
L -347.075019 350.363646 
L -355.217043 347.553544 
L -363.359066 344.951666 
L -371.501089 342.560367 
L -379.643113 340.396204 
L -387.785136 338.46135 
L -395.92716 336.719186 
L -404.069183 335.125251 
L -412.211206 333.644131 
L -420.35323 332.257271 
L -428.495253 330.96585 
L -436.637276 329.78228 
L -444.7793 328.72543 
L -452.921323 327.825735 
L -461.063346 327.126913 
L -469.20537 326.674684 
L -477.347393 326.518889 
L -485.489416 326.713507 
L -493.63144 327.309673 
L -501.773463 328.330219 
L -509.915486 329.713292 
L -518.05751 331.352776 
L -526.199533 333.154166 
L -534.341556 335.086563 
L -542.48358 337.101174 
L -550.625603 339.049679 
L -558.767626 340.77321 
L -566.90965 342.150967 
L -575.051673 343.119268 
L -583.193696 343.786638 
L -591.33572 344.311994 
L -599.477743 344.873653 
L -607.619767 345.534604 
L -615.76179 346.297062 
L -623.903813 347.201398 
L -632.045837 348.187018 
L -640.18786 349.043003 
L -648.329883 349.537521 
L -656.471907 349.537521 
L -664.61393 349.043003 
L -672.755953 348.187018 
L -680.897977 347.201398 
L -689.04 346.297062 
z
" style="fill:#ff0000;fill-opacity:0.3;stroke:#ffffff;stroke-opacity:0.3;"/>
   </g>
   <g id="PolyCollection_4">
    <path clip-path="url(#pa87ae92a9a)" d="M -689.04 174.896153 
L -689.04 180.199524 
L -680.897977 181.168863 
L -672.755953 182.158933 
L -664.61393 182.996365 
L -656.471907 183.48135 
L -648.329883 183.48135 
L -640.18786 182.996365 
L -632.045837 182.158933 
L -623.903813 181.168863 
L -615.76179 180.199524 
L -607.619767 179.319732 
L -599.477743 178.534322 
L -591.33572 177.852131 
L -583.193696 177.284086 
L -575.051673 176.83488 
L -566.90965 176.502607 
L -558.767626 176.288676 
L -550.625603 176.200258 
L -542.48358 176.250637 
L -534.341556 176.461147 
L -526.199533 176.857912 
L -518.05751 177.465113 
L -509.915486 178.300524 
L -501.773463 179.379115 
L -493.63144 180.712328 
L -485.489416 182.305706 
L -477.347393 184.158307 
L -469.20537 186.263167 
L -461.063346 188.608098 
L -452.921323 191.175543 
L -444.7793 193.942277 
L -436.637276 196.877941 
L -428.495253 199.946622 
L -420.35323 203.110794 
L -412.211206 206.333622 
L -404.069183 209.581403 
L -395.92716 212.823925 
L -387.785136 216.033488 
L -379.643113 219.184597 
L -371.501089 222.278626 
L -363.359066 225.283266 
L -355.217043 228.136844 
L -347.075019 230.86209 
L -338.932996 233.442531 
L -330.790973 235.856836 
L -322.648949 238.07852 
L -314.506926 240.076132 
L -306.364903 241.814502 
L -298.222879 243.256877 
L -290.080856 244.366703 
L -281.938833 245.109258 
L -273.796809 245.451175 
L -265.654786 245.363593 
L -257.512763 244.826821 
L -249.370739 243.832019 
L -241.228716 242.383038 
L -233.086693 240.49089 
L -224.944669 238.165926 
L -216.802646 235.416032 
L -208.660623 232.247334 
L -200.518599 228.669135 
L -192.376576 224.697016 
L -184.234553 220.353397 
L -176.092529 215.667718 
L -167.950506 210.672189 
L -159.808482 205.401713 
L -151.666459 199.89611 
L -143.524436 194.200202 
L -135.382412 188.366555 
L -127.240389 182.455809 
L -119.098366 176.535353 
L -110.956342 170.67891 
L -102.814319 164.96324 
L -94.672296 159.46653 
L -86.530272 154.266764 
L -78.388249 149.438081 
L -70.246226 145.045189 
L -62.104202 141.134952 
L -53.962179 137.733114 
L -45.820156 134.845511 
L -37.678132 132.46014 
L -29.536109 130.553195 
L -21.394086 129.094615 
L -13.252062 128.05275 
L -5.110039 127.398505 
L 3.031984 127.1073 
L 11.174008 127.160416 
L 19.316031 127.545086 
L 27.458054 128.254255 
L 35.600078 129.286254 
L 43.742101 130.643779 
L 51.884125 132.332424 
L 60.026148 134.359441 
L 68.168171 136.733241 
L 76.310195 139.464028 
L 84.452218 142.56539 
L 92.594241 146.05563 
L 100.736265 149.957398 
L 108.878288 154.295182 
L 117.020311 159.091594 
L 125.162335 164.363441 
L 133.304358 170.118157 
L 141.446381 176.350782 
L 149.588405 183.042168 
L 157.730428 190.159046 
L 165.872451 197.655698 
L 174.014475 205.47684 
L 182.156498 213.56117 
L 190.298521 221.845182 
L 198.440545 230.267108 
L 206.582568 238.770956 
L 214.724591 247.310665 
L 222.866615 255.8536 
L 231.008638 264.38235 
L 239.150661 272.894427 
L 247.292685 281.399775 
L 255.434708 289.915993 
L 263.576732 298.460709 
L 271.718755 307.039268 
L 279.860778 315.624799 
L 288.002802 324.129444 
L 296.144825 332.370914 
L 304.286848 340.045726 
L 312.428872 346.723801 
L 320.570895 351.873685 
L 328.712918 354.916036 
L 336.854942 355.291892 
L 344.996965 352.528913 
L 353.138988 346.293493 
L 361.281012 336.425849 
L 369.423035 322.961903 
L 377.565058 306.145189 
L 385.707082 286.427819 
L 393.849105 264.456574 
L 401.991128 241.037828 
L 410.133152 217.080954 
L 418.275175 193.525803 
L 426.417198 171.264384 
L 434.559222 151.071677 
L 442.701245 133.556831 
L 450.843268 119.139319 
L 458.985292 108.044888 
L 467.127315 100.310329 
L 475.269339 95.79182 
L 483.411362 94.176229 
L 491.553385 95.002291 
L 499.695409 97.701087 
L 507.837432 101.654578 
L 515.979455 106.262166 
L 524.121479 110.999678 
L 532.263502 115.458312 
L 540.405525 119.359096 
L 548.547549 122.546226 
L 556.689572 124.968504 
L 564.831595 126.656964 
L 572.973619 127.702372 
L 581.115642 128.234807 
L 589.257665 128.406081 
L 597.399689 128.375233 
L 605.541712 128.297525 
L 613.683735 128.317727 
L 621.825759 128.567646 
L 629.967782 129.16626 
L 638.109805 130.220071 
L 646.251829 131.822105 
L 654.393852 134.049268 
L 662.535875 137.0101 
L 670.677899 140.639896 
L 678.819922 144.99364 
L 686.961946 150.052883 
L 695.103969 155.775436 
L 703.245992 162.099424 
L 711.388016 168.948188 
L 719.530039 176.235156 
L 727.672062 183.868048 
L 735.814086 191.752206 
L 743.956109 199.793233 
L 752.098132 207.899036 
L 760.240156 215.98127 
L 768.382179 223.955884 
L 776.524202 231.742596 
L 784.666226 239.263691 
L 792.808249 246.443003 
L 800.950272 253.205948 
L 809.092296 259.480869 
L 817.234319 265.201336 
L 825.376342 270.308509 
L 833.518366 274.752525 
L 841.660389 278.492795 
L 849.802412 281.495052 
L 857.944436 283.731815 
L 866.086459 285.185241 
L 874.228482 285.847793 
L 882.370506 285.721689 
L 890.512529 284.816249 
L 898.654553 283.146813 
L 906.796576 280.735108 
L 914.938599 277.610606 
L 923.080623 273.814802 
L 931.222646 269.401448 
L 939.364669 264.432354 
L 947.506693 258.977164 
L 955.648716 253.113572 
L 963.790739 246.924824 
L 971.932763 240.494868 
L 980.074786 233.903401 
L 988.216809 227.222747 
L 996.358833 220.51712 
L 1004.500856 213.844339 
L 1012.642879 207.260025 
L 1020.784903 200.81873 
L 1028.926926 194.573494 
L 1037.068949 188.574773 
L 1045.210973 182.871843 
L 1053.352996 177.515647 
L 1061.495019 172.556131 
L 1069.637043 168.038072 
L 1077.779066 163.996943 
L 1085.921089 160.455924 
L 1094.063113 157.424372 
L 1102.205136 154.897726 
L 1110.34716 152.861824 
L 1118.489183 151.295656 
L 1126.631206 150.172072 
L 1134.77323 149.461718 
L 1142.915253 149.136093 
L 1151.057276 149.169375 
L 1159.1993 149.536757 
L 1167.341323 150.216638 
L 1175.483346 151.196086 
L 1183.62537 152.470723 
L 1191.767393 154.041364 
L 1199.909416 155.908791 
L 1208.05144 158.068572 
L 1216.193463 160.50771 
L 1224.335486 163.204008 
L 1232.47751 166.130467 
L 1240.619533 169.255723 
L 1248.761556 172.543625 
L 1256.90358 175.95575 
L 1265.045603 179.451435 
L 1273.187626 182.989286 
L 1281.32965 186.528833 
L 1289.471673 190.032269 
L 1297.613696 193.465757 
L 1305.75572 196.799962 
L 1313.897743 200.010296 
L 1322.039767 203.075932 
L 1330.18179 205.979108 
L 1338.323813 208.705214 
L 1346.465837 211.242118 
L 1354.60786 213.493303 
L 1362.749883 215.228233 
L 1370.891907 216.183121 
L 1379.03393 216.183121 
L 1387.175953 215.228233 
L 1395.317977 213.493303 
L 1403.46 211.242118 
L 1403.46 205.728236 
L 1403.46 205.728236 
L 1395.317977 207.98306 
L 1387.175953 209.713504 
L 1379.03393 210.661815 
L 1370.891907 210.661815 
L 1362.749883 209.713504 
L 1354.60786 207.98306 
L 1346.465837 205.728236 
L 1338.323813 203.18219 
L 1330.18179 200.444215 
L 1322.039767 197.525206 
L 1313.897743 194.439408 
L 1305.75572 191.205133 
L 1297.613696 187.844503 
L 1289.471673 184.383898 
L 1281.32965 180.854575 
L 1273.187626 177.292003 
L 1265.045603 173.735141 
L 1256.90358 170.22505 
L 1248.761556 166.803153 
L 1240.619533 163.509639 
L 1232.47751 160.382128 
L 1224.335486 157.455864 
L 1216.193463 154.761341 
L 1208.05144 152.32474 
L 1199.909416 150.167414 
L 1191.767393 148.301363 
L 1183.62537 146.730009 
L 1175.483346 145.451898 
L 1167.341323 144.466069 
L 1159.1993 143.777074 
L 1151.057276 143.398028 
L 1142.915253 143.350702 
L 1134.77323 143.660513 
L 1126.631206 144.354443 
L 1118.489183 145.462391 
L 1110.34716 147.015127 
L 1102.205136 149.041002 
L 1094.063113 151.561823 
L 1085.921089 154.592086 
L 1077.779066 158.136241 
L 1069.637043 162.184457 
L 1061.495019 166.713056 
L 1053.352996 171.686553 
L 1045.210973 177.060924 
L 1037.068949 182.787521 
L 1028.926926 188.816772 
L 1020.784903 195.100521 
L 1012.642879 201.589284 
L 1004.500856 208.230816 
L 996.358833 214.970931 
L 988.216809 221.753837 
L 980.074786 228.520835 
L 971.932763 235.206031 
L 963.790739 241.734746 
L 955.648716 248.024533 
L 947.506693 253.988534 
L 939.364669 259.540495 
L 931.222646 264.599665 
L 923.080623 269.093525 
L 914.938599 272.957926 
L 906.796576 276.137576 
L 898.654553 278.590589 
L 890.512529 280.288065 
L 882.370506 281.209129 
L 874.228482 281.339305 
L 866.086459 280.670236 
L 857.944436 279.200888 
L 849.802412 276.940059 
L 841.660389 273.906772 
L 833.518366 270.129645 
L 825.376342 265.644194 
L 817.234319 260.492434 
L 809.092296 254.725765 
L 800.950272 248.404509 
L 792.808249 241.596389 
L 784.666226 234.374066 
L 776.524202 226.812846 
L 768.382179 218.989387 
L 760.240156 210.981743 
L 752.098132 202.870411 
L 743.956109 194.739517 
L 735.814086 186.677277 
L 727.672062 178.775373 
L 719.530039 171.127453 
L 711.388016 163.827119 
L 703.245992 156.965412 
L 695.103969 150.62772 
L 686.961946 144.889864 
L 678.819922 139.813527 
L 670.677899 135.441535 
L 662.535875 131.793804 
L 654.393852 128.818017 
L 646.251829 126.579899 
L 638.109805 124.973067 
L 629.967782 123.921355 
L 621.825759 123.33128 
L 613.683735 123.094738 
L 605.541712 123.090307 
L 597.399689 123.18333 
L 589.257665 123.22623 
L 581.115642 123.061333 
L 572.973619 122.527815 
L 564.831595 121.472839 
L 556.689572 119.766185 
L 548.547549 117.318001 
L 540.405525 114.099433 
L 532.263502 110.165225 
L 524.121479 105.675896 
L 515.979455 100.915625 
L 507.837432 96.297917 
L 499.695409 92.350161 
L 491.553385 89.674146 
L 483.411362 88.887273 
L 475.269339 90.556893 
L 467.127315 95.143032 
L 458.985292 102.959 
L 450.843268 114.150572 
L 442.701245 128.684112 
L 434.559222 146.336776 
L 426.417198 166.689899 
L 418.275175 189.131569 
L 410.133152 212.879894 
L 401.991128 237.032417 
L 393.849105 260.637098 
L 385.707082 282.773085 
L 377.565058 302.625663 
L 369.423035 319.544309 
L 361.281012 333.077697 
L 353.138988 342.986207 
L 344.996965 349.239128 
L 336.854942 352.001284 
L 328.712918 351.610452 
L 320.570895 348.542144 
L 312.428872 343.357681 
L 304.286848 336.63816 
L 296.144825 328.916346 
L 288.002802 320.623287 
L 279.860778 312.063148 
L 271.718755 303.418627 
L 263.576732 294.777721 
L 255.434708 286.167227 
L 247.292685 277.581605 
L 239.150661 269.003085 
L 231.008638 260.414166 
L 222.866615 251.805384 
L 214.724591 243.180131 
L 206.582568 234.55708 
L 198.440545 225.970341 
L 190.298521 217.467502 
L 182.156498 209.106 
L 174.014475 200.948894 
L 165.872451 193.060757 
L 157.730428 185.50365 
L 149.588405 178.333244 
L 141.446381 171.595266 
L 133.304358 165.322673 
L 125.162335 159.534083 
L 117.020311 154.233799 
L 108.878288 149.413657 
L 100.736265 145.056079 
L 92.594241 141.137665 
L 84.452218 137.633138 
L 76.310195 134.519087 
L 68.168171 131.77654 
L 60.026148 129.391428 
L 51.884125 127.35334 
L 43.742101 125.653926 
L 35.600078 124.286176 
L 27.458054 123.244747 
L 19.316031 122.527028 
L 11.174008 122.134473 
L 3.031984 122.073576 
L -5.110039 122.356289 
L -13.252062 123.000423 
L -21.394086 124.029699 
L -29.536109 125.4725 
L -37.678132 127.359923 
L -45.820156 129.721584 
L -53.962179 132.580946 
L -62.104202 135.94984 
L -70.246226 139.822598 
L -78.388249 144.174148 
L -86.530272 148.959022 
L -94.672296 154.114423 
L -102.814319 159.567994 
L -110.956342 165.243115 
L -119.098366 171.062672 
L -127.240389 176.950959 
L -135.382412 182.835425 
L -143.524436 188.649887 
L -151.666459 194.334847 
L -159.808482 199.838655 
L -167.950506 205.117033 
L -176.092529 210.130218 
L -184.234553 214.842728 
L -192.376576 219.221284 
L -200.518599 223.234838 
L -208.660623 226.858584 
L -216.802646 230.074051 
L -224.944669 232.869344 
L -233.086693 235.236555 
L -241.228716 237.16663 
L -249.370739 238.648392 
L -257.512763 239.670457 
L -265.654786 240.229169 
L -273.796809 240.33382 
L -281.938833 240.004451 
L -290.080856 239.270098 
L -298.222879 238.164404 
L -306.364903 236.722547 
L -314.506926 234.981574 
L -322.648949 232.978746 
L -330.790973 230.749728 
L -338.932996 228.326422 
L -347.075019 225.735706 
L -355.217043 222.999232 
L -363.359066 220.133719 
L -371.501089 217.115729 
L -379.643113 214.007846 
L -387.785136 210.84419 
L -395.92716 207.62256 
L -404.069183 204.368792 
L -412.211206 201.110934 
L -420.35323 197.879662 
L -428.495253 194.709246 
L -436.637276 191.637051 
L -444.7793 188.700928 
L -452.921323 185.936778 
L -461.063346 183.374582 
L -469.20537 181.036823 
L -477.347393 178.940034 
L -485.489416 177.095285 
L -493.63144 175.508553 
L -501.773463 174.180115 
L -509.915486 173.104128 
L -518.05751 172.269089 
L -526.199533 171.660104 
L -534.341556 171.25945 
L -542.48358 171.043043 
L -550.625603 170.984972 
L -558.767626 171.064129 
L -566.90965 171.267548 
L -575.051673 171.588554 
L -583.193696 172.026281 
L -591.33572 172.582951 
L -599.477743 173.25381 
L -607.619767 174.027752 
L -615.76179 174.896153 
L -623.903813 175.854836 
L -632.045837 176.831604 
L -640.18786 177.651117 
L -648.329883 178.121752 
L -656.471907 178.121752 
L -664.61393 177.651117 
L -672.755953 176.831604 
L -680.897977 175.854836 
L -689.04 174.896153 
z
" style="fill:#008000;fill-opacity:0.3;stroke:#ffffff;stroke-opacity:0.3;"/>
   </g>
   <g id="matplotlib.axis_1">
    <g id="xtick_1">
     <g id="line2d_1">
      <defs>
       <path d="M 0 0 
L 0 3.5 
" id="m9789151d68" style="stroke:#000000;stroke-width:0.8;"/>
      </defs>
      <g>
       <use style="stroke:#000000;stroke-width:0.8;" x="127.035" xlink:href="#m9789151d68" y="504"/>
      </g>
     </g>
     <g id="text_1">
      <!-- 0.325 -->
      <g transform="translate(106.995313 521.637812)scale(0.14 -0.14)">
       <defs>
        <path d="M 31.78125 66.40625 
Q 24.171875 66.40625 20.328125 58.90625 
Q 16.5 51.421875 16.5 36.375 
Q 16.5 21.390625 20.328125 13.890625 
Q 24.171875 6.390625 31.78125 6.390625 
Q 39.453125 6.390625 43.28125 13.890625 
Q 47.125 21.390625 47.125 36.375 
Q 47.125 51.421875 43.28125 58.90625 
Q 39.453125 66.40625 31.78125 66.40625 
z
M 31.78125 74.21875 
Q 44.046875 74.21875 50.515625 64.515625 
Q 56.984375 54.828125 56.984375 36.375 
Q 56.984375 17.96875 50.515625 8.265625 
Q 44.046875 -1.421875 31.78125 -1.421875 
Q 19.53125 -1.421875 13.0625 8.265625 
Q 6.59375 17.96875 6.59375 36.375 
Q 6.59375 54.828125 13.0625 64.515625 
Q 19.53125 74.21875 31.78125 74.21875 
z
" id="DejaVuSans-48"/>
        <path d="M 10.6875 12.40625 
L 21 12.40625 
L 21 0 
L 10.6875 0 
z
" id="DejaVuSans-46"/>
        <path d="M 40.578125 39.3125 
Q 47.65625 37.796875 51.625 33 
Q 55.609375 28.21875 55.609375 21.1875 
Q 55.609375 10.40625 48.1875 4.484375 
Q 40.765625 -1.421875 27.09375 -1.421875 
Q 22.515625 -1.421875 17.65625 -0.515625 
Q 12.796875 0.390625 7.625 2.203125 
L 7.625 11.71875 
Q 11.71875 9.328125 16.59375 8.109375 
Q 21.484375 6.890625 26.8125 6.890625 
Q 36.078125 6.890625 40.9375 10.546875 
Q 45.796875 14.203125 45.796875 21.1875 
Q 45.796875 27.640625 41.28125 31.265625 
Q 36.765625 34.90625 28.71875 34.90625 
L 20.21875 34.90625 
L 20.21875 43.015625 
L 29.109375 43.015625 
Q 36.375 43.015625 40.234375 45.921875 
Q 44.09375 48.828125 44.09375 54.296875 
Q 44.09375 59.90625 40.109375 62.90625 
Q 36.140625 65.921875 28.71875 65.921875 
Q 24.65625 65.921875 20.015625 65.03125 
Q 15.375 64.15625 9.8125 62.3125 
L 9.8125 71.09375 
Q 15.4375 72.65625 20.34375 73.4375 
Q 25.25 74.21875 29.59375 74.21875 
Q 40.828125 74.21875 47.359375 69.109375 
Q 53.90625 64.015625 53.90625 55.328125 
Q 53.90625 49.265625 50.4375 45.09375 
Q 46.96875 40.921875 40.578125 39.3125 
z
" id="DejaVuSans-51"/>
        <path d="M 19.1875 8.296875 
L 53.609375 8.296875 
L 53.609375 0 
L 7.328125 0 
L 7.328125 8.296875 
Q 12.9375 14.109375 22.625 23.890625 
Q 32.328125 33.6875 34.8125 36.53125 
Q 39.546875 41.84375 41.421875 45.53125 
Q 43.3125 49.21875 43.3125 52.78125 
Q 43.3125 58.59375 39.234375 62.25 
Q 35.15625 65.921875 28.609375 65.921875 
Q 23.96875 65.921875 18.8125 64.3125 
Q 13.671875 62.703125 7.8125 59.421875 
L 7.8125 69.390625 
Q 13.765625 71.78125 18.9375 73 
Q 24.125 74.21875 28.421875 74.21875 
Q 39.75 74.21875 46.484375 68.546875 
Q 53.21875 62.890625 53.21875 53.421875 
Q 53.21875 48.921875 51.53125 44.890625 
Q 49.859375 40.875 45.40625 35.40625 
Q 44.1875 33.984375 37.640625 27.21875 
Q 31.109375 20.453125 19.1875 8.296875 
z
" id="DejaVuSans-50"/>
        <path d="M 10.796875 72.90625 
L 49.515625 72.90625 
L 49.515625 64.59375 
L 19.828125 64.59375 
L 19.828125 46.734375 
Q 21.96875 47.46875 24.109375 47.828125 
Q 26.265625 48.1875 28.421875 48.1875 
Q 40.625 48.1875 47.75 41.5 
Q 54.890625 34.8125 54.890625 23.390625 
Q 54.890625 11.625 47.5625 5.09375 
Q 40.234375 -1.421875 26.90625 -1.421875 
Q 22.3125 -1.421875 17.546875 -0.640625 
Q 12.796875 0.140625 7.71875 1.703125 
L 7.71875 11.625 
Q 12.109375 9.234375 16.796875 8.0625 
Q 21.484375 6.890625 26.703125 6.890625 
Q 35.15625 6.890625 40.078125 11.328125 
Q 45.015625 15.765625 45.015625 23.390625 
Q 45.015625 31 40.078125 35.4375 
Q 35.15625 39.890625 26.703125 39.890625 
Q 22.75 39.890625 18.8125 39.015625 
Q 14.890625 38.140625 10.796875 36.28125 
z
" id="DejaVuSans-53"/>
       </defs>
       <use xlink:href="#DejaVuSans-48"/>
       <use x="63.623047" xlink:href="#DejaVuSans-46"/>
       <use x="95.410156" xlink:href="#DejaVuSans-51"/>
       <use x="159.033203" xlink:href="#DejaVuSans-50"/>
       <use x="222.65625" xlink:href="#DejaVuSans-53"/>
      </g>
     </g>
    </g>
    <g id="xtick_2">
     <g id="line2d_2">
      <g>
       <use style="stroke:#000000;stroke-width:0.8;" x="189.81" xlink:href="#m9789151d68" y="504"/>
      </g>
     </g>
     <g id="text_2">
      <!-- 0.350 -->
      <g transform="translate(169.770313 521.637812)scale(0.14 -0.14)">
       <use xlink:href="#DejaVuSans-48"/>
       <use x="63.623047" xlink:href="#DejaVuSans-46"/>
       <use x="95.410156" xlink:href="#DejaVuSans-51"/>
       <use x="159.033203" xlink:href="#DejaVuSans-53"/>
       <use x="222.65625" xlink:href="#DejaVuSans-48"/>
      </g>
     </g>
    </g>
    <g id="xtick_3">
     <g id="line2d_3">
      <g>
       <use style="stroke:#000000;stroke-width:0.8;" x="252.585" xlink:href="#m9789151d68" y="504"/>
      </g>
     </g>
     <g id="text_3">
      <!-- 0.375 -->
      <g transform="translate(232.545313 521.637812)scale(0.14 -0.14)">
       <defs>
        <path d="M 8.203125 72.90625 
L 55.078125 72.90625 
L 55.078125 68.703125 
L 28.609375 0 
L 18.3125 0 
L 43.21875 64.59375 
L 8.203125 64.59375 
z
" id="DejaVuSans-55"/>
       </defs>
       <use xlink:href="#DejaVuSans-48"/>
       <use x="63.623047" xlink:href="#DejaVuSans-46"/>
       <use x="95.410156" xlink:href="#DejaVuSans-51"/>
       <use x="159.033203" xlink:href="#DejaVuSans-55"/>
       <use x="222.65625" xlink:href="#DejaVuSans-53"/>
      </g>
     </g>
    </g>
    <g id="xtick_4">
     <g id="line2d_4">
      <g>
       <use style="stroke:#000000;stroke-width:0.8;" x="315.36" xlink:href="#m9789151d68" y="504"/>
      </g>
     </g>
     <g id="text_4">
      <!-- 0.400 -->
      <g transform="translate(295.320313 521.637812)scale(0.14 -0.14)">
       <defs>
        <path d="M 37.796875 64.3125 
L 12.890625 25.390625 
L 37.796875 25.390625 
z
M 35.203125 72.90625 
L 47.609375 72.90625 
L 47.609375 25.390625 
L 58.015625 25.390625 
L 58.015625 17.1875 
L 47.609375 17.1875 
L 47.609375 0 
L 37.796875 0 
L 37.796875 17.1875 
L 4.890625 17.1875 
L 4.890625 26.703125 
z
" id="DejaVuSans-52"/>
       </defs>
       <use xlink:href="#DejaVuSans-48"/>
       <use x="63.623047" xlink:href="#DejaVuSans-46"/>
       <use x="95.410156" xlink:href="#DejaVuSans-52"/>
       <use x="159.033203" xlink:href="#DejaVuSans-48"/>
       <use x="222.65625" xlink:href="#DejaVuSans-48"/>
      </g>
     </g>
    </g>
    <g id="xtick_5">
     <g id="line2d_5">
      <g>
       <use style="stroke:#000000;stroke-width:0.8;" x="378.135" xlink:href="#m9789151d68" y="504"/>
      </g>
     </g>
     <g id="text_5">
      <!-- 0.425 -->
      <g transform="translate(358.095313 521.637812)scale(0.14 -0.14)">
       <use xlink:href="#DejaVuSans-48"/>
       <use x="63.623047" xlink:href="#DejaVuSans-46"/>
       <use x="95.410156" xlink:href="#DejaVuSans-52"/>
       <use x="159.033203" xlink:href="#DejaVuSans-50"/>
       <use x="222.65625" xlink:href="#DejaVuSans-53"/>
      </g>
     </g>
    </g>
    <g id="xtick_6">
     <g id="line2d_6">
      <g>
       <use style="stroke:#000000;stroke-width:0.8;" x="440.91" xlink:href="#m9789151d68" y="504"/>
      </g>
     </g>
     <g id="text_6">
      <!-- 0.450 -->
      <g transform="translate(420.870313 521.637812)scale(0.14 -0.14)">
       <use xlink:href="#DejaVuSans-48"/>
       <use x="63.623047" xlink:href="#DejaVuSans-46"/>
       <use x="95.410156" xlink:href="#DejaVuSans-52"/>
       <use x="159.033203" xlink:href="#DejaVuSans-53"/>
       <use x="222.65625" xlink:href="#DejaVuSans-48"/>
      </g>
     </g>
    </g>
    <g id="xtick_7">
     <g id="line2d_7">
      <g>
       <use style="stroke:#000000;stroke-width:0.8;" x="503.685" xlink:href="#m9789151d68" y="504"/>
      </g>
     </g>
     <g id="text_7">
      <!-- 0.475 -->
      <g transform="translate(483.645313 521.637812)scale(0.14 -0.14)">
       <use xlink:href="#DejaVuSans-48"/>
       <use x="63.623047" xlink:href="#DejaVuSans-46"/>
       <use x="95.410156" xlink:href="#DejaVuSans-52"/>
       <use x="159.033203" xlink:href="#DejaVuSans-55"/>
       <use x="222.65625" xlink:href="#DejaVuSans-53"/>
      </g>
     </g>
    </g>
    <g id="xtick_8">
     <g id="line2d_8">
      <g>
       <use style="stroke:#000000;stroke-width:0.8;" x="566.46" xlink:href="#m9789151d68" y="504"/>
      </g>
     </g>
     <g id="text_8">
      <!-- 0.500 -->
      <g transform="translate(546.420313 521.637812)scale(0.14 -0.14)">
       <use xlink:href="#DejaVuSans-48"/>
       <use x="63.623047" xlink:href="#DejaVuSans-46"/>
       <use x="95.410156" xlink:href="#DejaVuSans-53"/>
       <use x="159.033203" xlink:href="#DejaVuSans-48"/>
       <use x="222.65625" xlink:href="#DejaVuSans-48"/>
      </g>
     </g>
    </g>
    <g id="text_9">
     <!-- Time (s) -->
     <g transform="translate(295.507969 542.226562)scale(0.18 -0.18)">
      <defs>
       <path d="M -0.296875 72.90625 
L 61.375 72.90625 
L 61.375 64.59375 
L 35.5 64.59375 
L 35.5 0 
L 25.59375 0 
L 25.59375 64.59375 
L -0.296875 64.59375 
z
" id="DejaVuSans-84"/>
       <path d="M 9.421875 54.6875 
L 18.40625 54.6875 
L 18.40625 0 
L 9.421875 0 
z
M 9.421875 75.984375 
L 18.40625 75.984375 
L 18.40625 64.59375 
L 9.421875 64.59375 
z
" id="DejaVuSans-105"/>
       <path d="M 52 44.1875 
Q 55.375 50.25 60.0625 53.125 
Q 64.75 56 71.09375 56 
Q 79.640625 56 84.28125 50.015625 
Q 88.921875 44.046875 88.921875 33.015625 
L 88.921875 0 
L 79.890625 0 
L 79.890625 32.71875 
Q 79.890625 40.578125 77.09375 44.375 
Q 74.3125 48.1875 68.609375 48.1875 
Q 61.625 48.1875 57.5625 43.546875 
Q 53.515625 38.921875 53.515625 30.90625 
L 53.515625 0 
L 44.484375 0 
L 44.484375 32.71875 
Q 44.484375 40.625 41.703125 44.40625 
Q 38.921875 48.1875 33.109375 48.1875 
Q 26.21875 48.1875 22.15625 43.53125 
Q 18.109375 38.875 18.109375 30.90625 
L 18.109375 0 
L 9.078125 0 
L 9.078125 54.6875 
L 18.109375 54.6875 
L 18.109375 46.1875 
Q 21.1875 51.21875 25.484375 53.609375 
Q 29.78125 56 35.6875 56 
Q 41.65625 56 45.828125 52.96875 
Q 50 49.953125 52 44.1875 
z
" id="DejaVuSans-109"/>
       <path d="M 56.203125 29.59375 
L 56.203125 25.203125 
L 14.890625 25.203125 
Q 15.484375 15.921875 20.484375 11.0625 
Q 25.484375 6.203125 34.421875 6.203125 
Q 39.59375 6.203125 44.453125 7.46875 
Q 49.3125 8.734375 54.109375 11.28125 
L 54.109375 2.78125 
Q 49.265625 0.734375 44.1875 -0.34375 
Q 39.109375 -1.421875 33.890625 -1.421875 
Q 20.796875 -1.421875 13.15625 6.1875 
Q 5.515625 13.8125 5.515625 26.8125 
Q 5.515625 40.234375 12.765625 48.109375 
Q 20.015625 56 32.328125 56 
Q 43.359375 56 49.78125 48.890625 
Q 56.203125 41.796875 56.203125 29.59375 
z
M 47.21875 32.234375 
Q 47.125 39.59375 43.09375 43.984375 
Q 39.0625 48.390625 32.421875 48.390625 
Q 24.90625 48.390625 20.390625 44.140625 
Q 15.875 39.890625 15.1875 32.171875 
z
" id="DejaVuSans-101"/>
       <path id="DejaVuSans-32"/>
       <path d="M 31 75.875 
Q 24.46875 64.65625 21.28125 53.65625 
Q 18.109375 42.671875 18.109375 31.390625 
Q 18.109375 20.125 21.3125 9.0625 
Q 24.515625 -2 31 -13.1875 
L 23.1875 -13.1875 
Q 15.875 -1.703125 12.234375 9.375 
Q 8.59375 20.453125 8.59375 31.390625 
Q 8.59375 42.28125 12.203125 53.3125 
Q 15.828125 64.359375 23.1875 75.875 
z
" id="DejaVuSans-40"/>
       <path d="M 44.28125 53.078125 
L 44.28125 44.578125 
Q 40.484375 46.53125 36.375 47.5 
Q 32.28125 48.484375 27.875 48.484375 
Q 21.1875 48.484375 17.84375 46.4375 
Q 14.5 44.390625 14.5 40.28125 
Q 14.5 37.15625 16.890625 35.375 
Q 19.28125 33.59375 26.515625 31.984375 
L 29.59375 31.296875 
Q 39.15625 29.25 43.1875 25.515625 
Q 47.21875 21.78125 47.21875 15.09375 
Q 47.21875 7.46875 41.1875 3.015625 
Q 35.15625 -1.421875 24.609375 -1.421875 
Q 20.21875 -1.421875 15.453125 -0.5625 
Q 10.6875 0.296875 5.421875 2 
L 5.421875 11.28125 
Q 10.40625 8.6875 15.234375 7.390625 
Q 20.0625 6.109375 24.8125 6.109375 
Q 31.15625 6.109375 34.5625 8.28125 
Q 37.984375 10.453125 37.984375 14.40625 
Q 37.984375 18.0625 35.515625 20.015625 
Q 33.0625 21.96875 24.703125 23.78125 
L 21.578125 24.515625 
Q 13.234375 26.265625 9.515625 29.90625 
Q 5.8125 33.546875 5.8125 39.890625 
Q 5.8125 47.609375 11.28125 51.796875 
Q 16.75 56 26.8125 56 
Q 31.78125 56 36.171875 55.265625 
Q 40.578125 54.546875 44.28125 53.078125 
z
" id="DejaVuSans-115"/>
       <path d="M 8.015625 75.875 
L 15.828125 75.875 
Q 23.140625 64.359375 26.78125 53.3125 
Q 30.421875 42.28125 30.421875 31.390625 
Q 30.421875 20.453125 26.78125 9.375 
Q 23.140625 -1.703125 15.828125 -13.1875 
L 8.015625 -13.1875 
Q 14.5 -2 17.703125 9.0625 
Q 20.90625 20.125 20.90625 31.390625 
Q 20.90625 42.671875 17.703125 53.65625 
Q 14.5 64.65625 8.015625 75.875 
z
" id="DejaVuSans-41"/>
      </defs>
      <use xlink:href="#DejaVuSans-84"/>
      <use x="57.958984" xlink:href="#DejaVuSans-105"/>
      <use x="85.742188" xlink:href="#DejaVuSans-109"/>
      <use x="183.154297" xlink:href="#DejaVuSans-101"/>
      <use x="244.677734" xlink:href="#DejaVuSans-32"/>
      <use x="276.464844" xlink:href="#DejaVuSans-40"/>
      <use x="315.478516" xlink:href="#DejaVuSans-115"/>
      <use x="367.578125" xlink:href="#DejaVuSans-41"/>
     </g>
    </g>
   </g>
   <g id="matplotlib.axis_2">
    <g id="ytick_1">
     <g id="line2d_9">
      <defs>
       <path d="M 0 0 
L -3.5 0 
" id="mdb10a9217b" style="stroke:#000000;stroke-width:0.8;"/>
      </defs>
      <g>
       <use style="stroke:#000000;stroke-width:0.8;" x="81" xlink:href="#mdb10a9217b" y="478.841355"/>
      </g>
     </g>
     <g id="text_10">
      <!-- 20 -->
      <g transform="translate(44.453437 484.160261)scale(0.14 -0.14)">
       <defs>
        <path d="M 10.59375 35.5 
L 73.1875 35.5 
L 73.1875 27.203125 
L 10.59375 27.203125 
z
" id="DejaVuSans-8722"/>
       </defs>
       <use xlink:href="#DejaVuSans-8722"/>
       <use x="83.789062" xlink:href="#DejaVuSans-50"/>
       <use x="147.412109" xlink:href="#DejaVuSans-48"/>
      </g>
     </g>
    </g>
    <g id="ytick_2">
     <g id="line2d_10">
      <g>
       <use style="stroke:#000000;stroke-width:0.8;" x="81" xlink:href="#mdb10a9217b" y="413.878444"/>
      </g>
     </g>
     <g id="text_11">
      <!-- 10 -->
      <g transform="translate(44.453437 419.19735)scale(0.14 -0.14)">
       <defs>
        <path d="M 12.40625 8.296875 
L 28.515625 8.296875 
L 28.515625 63.921875 
L 10.984375 60.40625 
L 10.984375 69.390625 
L 28.421875 72.90625 
L 38.28125 72.90625 
L 38.28125 8.296875 
L 54.390625 8.296875 
L 54.390625 0 
L 12.40625 0 
z
" id="DejaVuSans-49"/>
       </defs>
       <use xlink:href="#DejaVuSans-8722"/>
       <use x="83.789062" xlink:href="#DejaVuSans-49"/>
       <use x="147.412109" xlink:href="#DejaVuSans-48"/>
      </g>
     </g>
    </g>
    <g id="ytick_3">
     <g id="line2d_11">
      <g>
       <use style="stroke:#000000;stroke-width:0.8;" x="81" xlink:href="#mdb10a9217b" y="348.915533"/>
      </g>
     </g>
     <g id="text_12">
      <!-- 0 -->
      <g transform="translate(65.0925 354.234439)scale(0.14 -0.14)">
       <use xlink:href="#DejaVuSans-48"/>
      </g>
     </g>
    </g>
    <g id="ytick_4">
     <g id="line2d_12">
      <g>
       <use style="stroke:#000000;stroke-width:0.8;" x="81" xlink:href="#mdb10a9217b" y="283.952622"/>
      </g>
     </g>
     <g id="text_13">
      <!-- 10 -->
      <g transform="translate(56.185 289.271528)scale(0.14 -0.14)">
       <use xlink:href="#DejaVuSans-49"/>
       <use x="63.623047" xlink:href="#DejaVuSans-48"/>
      </g>
     </g>
    </g>
    <g id="ytick_5">
     <g id="line2d_13">
      <g>
       <use style="stroke:#000000;stroke-width:0.8;" x="81" xlink:href="#mdb10a9217b" y="218.98971"/>
      </g>
     </g>
     <g id="text_14">
      <!-- 20 -->
      <g transform="translate(56.185 224.308617)scale(0.14 -0.14)">
       <use xlink:href="#DejaVuSans-50"/>
       <use x="63.623047" xlink:href="#DejaVuSans-48"/>
      </g>
     </g>
    </g>
    <g id="ytick_6">
     <g id="line2d_14">
      <g>
       <use style="stroke:#000000;stroke-width:0.8;" x="81" xlink:href="#mdb10a9217b" y="154.026799"/>
      </g>
     </g>
     <g id="text_15">
      <!-- 30 -->
      <g transform="translate(56.185 159.345706)scale(0.14 -0.14)">
       <use xlink:href="#DejaVuSans-51"/>
       <use x="63.623047" xlink:href="#DejaVuSans-48"/>
      </g>
     </g>
    </g>
    <g id="ytick_7">
     <g id="line2d_15">
      <g>
       <use style="stroke:#000000;stroke-width:0.8;" x="81" xlink:href="#mdb10a9217b" y="89.063888"/>
      </g>
     </g>
     <g id="text_16">
      <!-- 40 -->
      <g transform="translate(56.185 94.382795)scale(0.14 -0.14)">
       <use xlink:href="#DejaVuSans-52"/>
       <use x="63.623047" xlink:href="#DejaVuSans-48"/>
      </g>
     </g>
    </g>
    <g id="text_17">
     <!-- Angular Momentum (g-cm2/s) -->
     <g transform="translate(36.71 421.697812)rotate(-90)scale(0.18 -0.18)">
      <defs>
       <path d="M 34.1875 63.1875 
L 20.796875 26.90625 
L 47.609375 26.90625 
z
M 28.609375 72.90625 
L 39.796875 72.90625 
L 67.578125 0 
L 57.328125 0 
L 50.6875 18.703125 
L 17.828125 18.703125 
L 11.1875 0 
L 0.78125 0 
z
" id="DejaVuSans-65"/>
       <path d="M 54.890625 33.015625 
L 54.890625 0 
L 45.90625 0 
L 45.90625 32.71875 
Q 45.90625 40.484375 42.875 44.328125 
Q 39.84375 48.1875 33.796875 48.1875 
Q 26.515625 48.1875 22.3125 43.546875 
Q 18.109375 38.921875 18.109375 30.90625 
L 18.109375 0 
L 9.078125 0 
L 9.078125 54.6875 
L 18.109375 54.6875 
L 18.109375 46.1875 
Q 21.34375 51.125 25.703125 53.5625 
Q 30.078125 56 35.796875 56 
Q 45.21875 56 50.046875 50.171875 
Q 54.890625 44.34375 54.890625 33.015625 
z
" id="DejaVuSans-110"/>
       <path d="M 45.40625 27.984375 
Q 45.40625 37.75 41.375 43.109375 
Q 37.359375 48.484375 30.078125 48.484375 
Q 22.859375 48.484375 18.828125 43.109375 
Q 14.796875 37.75 14.796875 27.984375 
Q 14.796875 18.265625 18.828125 12.890625 
Q 22.859375 7.515625 30.078125 7.515625 
Q 37.359375 7.515625 41.375 12.890625 
Q 45.40625 18.265625 45.40625 27.984375 
z
M 54.390625 6.78125 
Q 54.390625 -7.171875 48.1875 -13.984375 
Q 42 -20.796875 29.203125 -20.796875 
Q 24.46875 -20.796875 20.265625 -20.09375 
Q 16.0625 -19.390625 12.109375 -17.921875 
L 12.109375 -9.1875 
Q 16.0625 -11.328125 19.921875 -12.34375 
Q 23.78125 -13.375 27.78125 -13.375 
Q 36.625 -13.375 41.015625 -8.765625 
Q 45.40625 -4.15625 45.40625 5.171875 
L 45.40625 9.625 
Q 42.625 4.78125 38.28125 2.390625 
Q 33.9375 0 27.875 0 
Q 17.828125 0 11.671875 7.65625 
Q 5.515625 15.328125 5.515625 27.984375 
Q 5.515625 40.671875 11.671875 48.328125 
Q 17.828125 56 27.875 56 
Q 33.9375 56 38.28125 53.609375 
Q 42.625 51.21875 45.40625 46.390625 
L 45.40625 54.6875 
L 54.390625 54.6875 
z
" id="DejaVuSans-103"/>
       <path d="M 8.5 21.578125 
L 8.5 54.6875 
L 17.484375 54.6875 
L 17.484375 21.921875 
Q 17.484375 14.15625 20.5 10.265625 
Q 23.53125 6.390625 29.59375 6.390625 
Q 36.859375 6.390625 41.078125 11.03125 
Q 45.3125 15.671875 45.3125 23.6875 
L 45.3125 54.6875 
L 54.296875 54.6875 
L 54.296875 0 
L 45.3125 0 
L 45.3125 8.40625 
Q 42.046875 3.421875 37.71875 1 
Q 33.40625 -1.421875 27.6875 -1.421875 
Q 18.265625 -1.421875 13.375 4.4375 
Q 8.5 10.296875 8.5 21.578125 
z
M 31.109375 56 
z
" id="DejaVuSans-117"/>
       <path d="M 9.421875 75.984375 
L 18.40625 75.984375 
L 18.40625 0 
L 9.421875 0 
z
" id="DejaVuSans-108"/>
       <path d="M 34.28125 27.484375 
Q 23.390625 27.484375 19.1875 25 
Q 14.984375 22.515625 14.984375 16.5 
Q 14.984375 11.71875 18.140625 8.90625 
Q 21.296875 6.109375 26.703125 6.109375 
Q 34.1875 6.109375 38.703125 11.40625 
Q 43.21875 16.703125 43.21875 25.484375 
L 43.21875 27.484375 
z
M 52.203125 31.203125 
L 52.203125 0 
L 43.21875 0 
L 43.21875 8.296875 
Q 40.140625 3.328125 35.546875 0.953125 
Q 30.953125 -1.421875 24.3125 -1.421875 
Q 15.921875 -1.421875 10.953125 3.296875 
Q 6 8.015625 6 15.921875 
Q 6 25.140625 12.171875 29.828125 
Q 18.359375 34.515625 30.609375 34.515625 
L 43.21875 34.515625 
L 43.21875 35.40625 
Q 43.21875 41.609375 39.140625 45 
Q 35.0625 48.390625 27.6875 48.390625 
Q 23 48.390625 18.546875 47.265625 
Q 14.109375 46.140625 10.015625 43.890625 
L 10.015625 52.203125 
Q 14.9375 54.109375 19.578125 55.046875 
Q 24.21875 56 28.609375 56 
Q 40.484375 56 46.34375 49.84375 
Q 52.203125 43.703125 52.203125 31.203125 
z
" id="DejaVuSans-97"/>
       <path d="M 41.109375 46.296875 
Q 39.59375 47.171875 37.8125 47.578125 
Q 36.03125 48 33.890625 48 
Q 26.265625 48 22.1875 43.046875 
Q 18.109375 38.09375 18.109375 28.8125 
L 18.109375 0 
L 9.078125 0 
L 9.078125 54.6875 
L 18.109375 54.6875 
L 18.109375 46.1875 
Q 20.953125 51.171875 25.484375 53.578125 
Q 30.03125 56 36.53125 56 
Q 37.453125 56 38.578125 55.875 
Q 39.703125 55.765625 41.0625 55.515625 
z
" id="DejaVuSans-114"/>
       <path d="M 9.8125 72.90625 
L 24.515625 72.90625 
L 43.109375 23.296875 
L 61.8125 72.90625 
L 76.515625 72.90625 
L 76.515625 0 
L 66.890625 0 
L 66.890625 64.015625 
L 48.09375 14.015625 
L 38.1875 14.015625 
L 19.390625 64.015625 
L 19.390625 0 
L 9.8125 0 
z
" id="DejaVuSans-77"/>
       <path d="M 30.609375 48.390625 
Q 23.390625 48.390625 19.1875 42.75 
Q 14.984375 37.109375 14.984375 27.296875 
Q 14.984375 17.484375 19.15625 11.84375 
Q 23.34375 6.203125 30.609375 6.203125 
Q 37.796875 6.203125 41.984375 11.859375 
Q 46.1875 17.53125 46.1875 27.296875 
Q 46.1875 37.015625 41.984375 42.703125 
Q 37.796875 48.390625 30.609375 48.390625 
z
M 30.609375 56 
Q 42.328125 56 49.015625 48.375 
Q 55.71875 40.765625 55.71875 27.296875 
Q 55.71875 13.875 49.015625 6.21875 
Q 42.328125 -1.421875 30.609375 -1.421875 
Q 18.84375 -1.421875 12.171875 6.21875 
Q 5.515625 13.875 5.515625 27.296875 
Q 5.515625 40.765625 12.171875 48.375 
Q 18.84375 56 30.609375 56 
z
" id="DejaVuSans-111"/>
       <path d="M 18.3125 70.21875 
L 18.3125 54.6875 
L 36.8125 54.6875 
L 36.8125 47.703125 
L 18.3125 47.703125 
L 18.3125 18.015625 
Q 18.3125 11.328125 20.140625 9.421875 
Q 21.96875 7.515625 27.59375 7.515625 
L 36.8125 7.515625 
L 36.8125 0 
L 27.59375 0 
Q 17.1875 0 13.234375 3.875 
Q 9.28125 7.765625 9.28125 18.015625 
L 9.28125 47.703125 
L 2.6875 47.703125 
L 2.6875 54.6875 
L 9.28125 54.6875 
L 9.28125 70.21875 
z
" id="DejaVuSans-116"/>
       <path d="M 4.890625 31.390625 
L 31.203125 31.390625 
L 31.203125 23.390625 
L 4.890625 23.390625 
z
" id="DejaVuSans-45"/>
       <path d="M 48.78125 52.59375 
L 48.78125 44.1875 
Q 44.96875 46.296875 41.140625 47.34375 
Q 37.3125 48.390625 33.40625 48.390625 
Q 24.65625 48.390625 19.8125 42.84375 
Q 14.984375 37.3125 14.984375 27.296875 
Q 14.984375 17.28125 19.8125 11.734375 
Q 24.65625 6.203125 33.40625 6.203125 
Q 37.3125 6.203125 41.140625 7.25 
Q 44.96875 8.296875 48.78125 10.40625 
L 48.78125 2.09375 
Q 45.015625 0.34375 40.984375 -0.53125 
Q 36.96875 -1.421875 32.421875 -1.421875 
Q 20.0625 -1.421875 12.78125 6.34375 
Q 5.515625 14.109375 5.515625 27.296875 
Q 5.515625 40.671875 12.859375 48.328125 
Q 20.21875 56 33.015625 56 
Q 37.15625 56 41.109375 55.140625 
Q 45.0625 54.296875 48.78125 52.59375 
z
" id="DejaVuSans-99"/>
       <path d="M 25.390625 72.90625 
L 33.6875 72.90625 
L 8.296875 -9.28125 
L 0 -9.28125 
z
" id="DejaVuSans-47"/>
      </defs>
      <use xlink:href="#DejaVuSans-65"/>
      <use x="68.408203" xlink:href="#DejaVuSans-110"/>
      <use x="131.787109" xlink:href="#DejaVuSans-103"/>
      <use x="195.263672" xlink:href="#DejaVuSans-117"/>
      <use x="258.642578" xlink:href="#DejaVuSans-108"/>
      <use x="286.425781" xlink:href="#DejaVuSans-97"/>
      <use x="347.705078" xlink:href="#DejaVuSans-114"/>
      <use x="388.818359" xlink:href="#DejaVuSans-32"/>
      <use x="420.605469" xlink:href="#DejaVuSans-77"/>
      <use x="506.884766" xlink:href="#DejaVuSans-111"/>
      <use x="568.066406" xlink:href="#DejaVuSans-109"/>
      <use x="665.478516" xlink:href="#DejaVuSans-101"/>
      <use x="727.001953" xlink:href="#DejaVuSans-110"/>
      <use x="790.380859" xlink:href="#DejaVuSans-116"/>
      <use x="829.589844" xlink:href="#DejaVuSans-117"/>
      <use x="892.96875" xlink:href="#DejaVuSans-109"/>
      <use x="990.380859" xlink:href="#DejaVuSans-32"/>
      <use x="1022.167969" xlink:href="#DejaVuSans-40"/>
      <use x="1061.181641" xlink:href="#DejaVuSans-103"/>
      <use x="1124.658203" xlink:href="#DejaVuSans-45"/>
      <use x="1160.742188" xlink:href="#DejaVuSans-99"/>
      <use x="1215.722656" xlink:href="#DejaVuSans-109"/>
      <use x="1313.134766" xlink:href="#DejaVuSans-50"/>
      <use x="1376.757812" xlink:href="#DejaVuSans-47"/>
      <use x="1410.449219" xlink:href="#DejaVuSans-115"/>
      <use x="1462.548828" xlink:href="#DejaVuSans-41"/>
     </g>
    </g>
   </g>
   <g id="line2d_16">
    <path clip-path="url(#pa87ae92a9a)" d="M -1 281.39319 
L 3.031984 278.696392 
L 11.174008 273.55298 
L 19.316031 268.827874 
L 27.458054 264.650174 
L 35.600078 261.145797 
L 43.742101 258.424338 
L 51.884125 256.571853 
L 60.026148 255.649605 
L 68.168171 255.698934 
L 76.310195 256.747309 
L 84.452218 258.83235 
L 92.594241 261.899149 
L 100.736265 265.946203 
L 108.878288 270.926267 
L 117.020311 276.778602 
L 125.162335 283.43633 
L 133.304358 290.828799 
L 141.446381 298.874096 
L 149.588405 307.465178 
L 157.730428 316.461729 
L 182.156498 344.087419 
L 190.298521 352.878618 
L 198.440545 361.175704 
L 206.582568 368.840736 
L 214.724591 375.764114 
L 222.866615 381.870474 
L 231.008638 387.127202 
L 239.150661 391.554874 
L 247.292685 395.238652 
L 255.434708 398.37861 
L 271.718755 404.147405 
L 279.860778 407.471636 
L 288.002802 411.686949 
L 296.144825 417.268222 
L 304.286848 424.567177 
L 312.428872 433.653432 
L 320.570895 444.187497 
L 328.712918 455.349097 
L 336.854942 465.985542 
L 344.996965 474.861367 
L 353.138988 480.846519 
L 361.281012 483.112426 
L 369.423035 481.258195 
L 377.565058 475.35227 
L 385.707082 465.89818 
L 393.849105 453.744168 
L 401.991128 439.95612 
L 410.133152 425.66877 
L 418.275175 411.927135 
L 426.417198 399.534237 
L 434.559222 388.929531 
L 442.701245 380.130414 
L 450.843268 372.765759 
L 467.127315 359.738857 
L 475.269339 352.778377 
L 483.411362 344.967668 
L 491.553385 336.224101 
L 499.695409 326.688033 
L 507.837432 316.631095 
L 524.121479 296.189656 
L 532.263502 286.347767 
L 540.405525 277.039587 
L 548.547549 268.424258 
L 556.689572 260.634474 
L 564.831595 253.784088 
L 572.973619 247.968136 
L 581.115642 243.259311 
L 589.257665 239.706958 
L 597.399689 237.339416 
L 605.541712 236.167233 
L 613.683735 236.185561 
L 621.825759 237.373551 
L 629.967782 239.690473 
L 638.109805 243.072214 
L 646.251829 247.431681 
L 649 249.197375 
L 649 249.197375 
" style="fill:none;stroke:#808080;stroke-linecap:round;stroke-width:1.5;"/>
   </g>
   <g id="line2d_17">
    <path clip-path="url(#pa87ae92a9a)" d="M 81 504 
L 81 -1 
" style="fill:none;stroke:#808080;stroke-linecap:round;stroke-width:0.2;"/>
   </g>
   <g id="line2d_18">
    <path clip-path="url(#pa87ae92a9a)" d="M 164.7 504 
L 164.7 -1 
" style="fill:none;stroke:#808080;stroke-linecap:round;stroke-width:0.2;"/>
   </g>
   <g id="line2d_19">
    <path clip-path="url(#pa87ae92a9a)" d="M 248.4 504 
L 248.4 -1 
" style="fill:none;stroke:#808080;stroke-linecap:round;stroke-width:0.2;"/>
   </g>
   <g id="line2d_20">
    <path clip-path="url(#pa87ae92a9a)" d="M 332.1 504 
L 332.1 -1 
" style="fill:none;stroke:#808080;stroke-linecap:round;stroke-width:0.2;"/>
   </g>
   <g id="line2d_21">
    <path clip-path="url(#pa87ae92a9a)" d="M 415.8 504 
L 415.8 -1 
" style="fill:none;stroke:#808080;stroke-linecap:round;stroke-width:0.2;"/>
   </g>
   <g id="line2d_22">
    <path clip-path="url(#pa87ae92a9a)" d="M 499.5 504 
L 499.5 -1 
" style="fill:none;stroke:#808080;stroke-linecap:round;stroke-width:0.2;"/>
   </g>
   <g id="line2d_23">
    <path clip-path="url(#pa87ae92a9a)" d="M 583.2 504 
L 583.2 -1 
" style="fill:none;stroke:#808080;stroke-linecap:round;stroke-width:0.2;"/>
   </g>
   <g id="line2d_24">
    <path clip-path="url(#pa87ae92a9a)" d="M -1 385.80959 
L 11.174008 386.116048 
L 19.316031 386.173539 
L 27.458054 386.077085 
L 35.600078 385.803588 
L 43.742101 385.330749 
L 51.884125 384.633661 
L 60.026148 383.667487 
L 68.168171 382.387984 
L 76.310195 380.773021 
L 84.452218 378.810835 
L 92.594241 376.504847 
L 100.736265 373.875586 
L 108.878288 370.957418 
L 117.020311 367.787455 
L 125.162335 364.397709 
L 133.304358 360.814826 
L 141.446381 357.061364 
L 149.588405 353.158368 
L 165.872451 344.97473 
L 182.156498 336.340937 
L 198.440545 327.285449 
L 222.866615 313.199966 
L 239.150661 303.899542 
L 247.292685 299.483085 
L 255.434708 295.36572 
L 263.576732 291.683329 
L 271.718755 288.592852 
L 279.860778 286.265137 
L 288.002802 284.868621 
L 296.144825 284.543095 
L 304.286848 285.37178 
L 312.428872 287.362329 
L 320.570895 290.441034 
L 328.712918 294.459206 
L 336.854942 299.208219 
L 344.996965 304.439811 
L 361.281012 315.298257 
L 369.423035 320.443134 
L 377.565058 325.153973 
L 385.707082 329.330397 
L 393.849105 332.94717 
L 401.991128 336.051316 
L 410.133152 338.748287 
L 418.275175 341.178448 
L 434.559222 345.812941 
L 442.701245 348.244419 
L 450.843268 350.839536 
L 458.985292 353.613182 
L 475.269339 359.579537 
L 491.553385 365.672969 
L 499.695409 368.578997 
L 507.837432 371.312218 
L 515.979455 373.841469 
L 524.121479 376.157697 
L 532.263502 378.269017 
L 540.405525 380.195088 
L 548.547549 381.959875 
L 556.689572 383.58235 
L 564.831595 385.067431 
L 572.973619 386.399004 
L 581.115642 387.537204 
L 589.257665 388.423801 
L 597.399689 388.994116 
L 605.541712 389.190091 
L 613.683735 388.971129 
L 621.825759 388.319955 
L 629.967782 387.241625 
L 638.109805 385.755752 
L 646.251829 383.886302 
L 649 383.133084 
L 649 383.133084 
" style="fill:none;stroke:#f08080;stroke-linecap:round;stroke-width:1.5;"/>
   </g>
   <g id="line2d_25">
    <path clip-path="url(#pa87ae92a9a)" d="M 81 504 
L 81 -1 
" style="fill:none;stroke:#808080;stroke-linecap:round;stroke-width:0.2;"/>
   </g>
   <g id="line2d_26">
    <path clip-path="url(#pa87ae92a9a)" d="M 164.7 504 
L 164.7 -1 
" style="fill:none;stroke:#808080;stroke-linecap:round;stroke-width:0.2;"/>
   </g>
   <g id="line2d_27">
    <path clip-path="url(#pa87ae92a9a)" d="M 248.4 504 
L 248.4 -1 
" style="fill:none;stroke:#808080;stroke-linecap:round;stroke-width:0.2;"/>
   </g>
   <g id="line2d_28">
    <path clip-path="url(#pa87ae92a9a)" d="M 332.1 504 
L 332.1 -1 
" style="fill:none;stroke:#808080;stroke-linecap:round;stroke-width:0.2;"/>
   </g>
   <g id="line2d_29">
    <path clip-path="url(#pa87ae92a9a)" d="M 415.8 504 
L 415.8 -1 
" style="fill:none;stroke:#808080;stroke-linecap:round;stroke-width:0.2;"/>
   </g>
   <g id="line2d_30">
    <path clip-path="url(#pa87ae92a9a)" d="M 499.5 504 
L 499.5 -1 
" style="fill:none;stroke:#808080;stroke-linecap:round;stroke-width:0.2;"/>
   </g>
   <g id="line2d_31">
    <path clip-path="url(#pa87ae92a9a)" d="M 583.2 504 
L 583.2 -1 
" style="fill:none;stroke:#808080;stroke-linecap:round;stroke-width:0.2;"/>
   </g>
   <g id="line2d_32">
    <path clip-path="url(#pa87ae92a9a)" d="M -1 318.288295 
L 3.031984 315.708369 
L 11.174008 310.750319 
L 19.316031 306.081018 
L 27.458054 301.806019 
L 35.600078 298.02799 
L 43.742101 294.833986 
L 51.884125 292.284855 
L 60.026148 290.396739 
L 68.168171 289.166552 
L 76.310195 288.59958 
L 84.452218 288.727653 
L 92.594241 289.488464 
L 100.736265 290.906256 
L 108.878288 292.968152 
L 117.020311 295.650524 
L 125.162335 298.918507 
L 133.304358 302.728093 
L 141.446381 307.019927 
L 149.588405 311.708014 
L 165.872451 321.751054 
L 174.014475 326.762463 
L 182.156498 331.512823 
L 190.298521 335.824056 
L 198.440545 339.54562 
L 206.582568 342.557616 
L 214.724591 344.774654 
L 222.866615 346.154908 
L 231.008638 346.713626 
L 239.150661 346.538883 
L 247.292685 345.806205 
L 255.434708 344.828798 
L 263.576732 344.014567 
L 271.718755 343.824725 
L 279.860778 344.821241 
L 288.002802 347.640038 
L 296.144825 352.895784 
L 304.286848 361.023425 
L 312.428872 372.100228 
L 320.570895 385.712998 
L 336.854942 416.278229 
L 344.996965 430.385646 
L 353.138988 441.81995 
L 361.281012 449.49515 
L 369.423035 452.785797 
L 377.565058 451.59071 
L 385.707082 446.313045 
L 393.849105 437.775806 
L 401.991128 427.091904 
L 410.133152 415.501524 
L 418.275175 404.19005 
L 426.417198 394.108467 
L 434.559222 385.826939 
L 442.701245 379.459301 
L 450.843268 374.689762 
L 458.985292 370.901361 
L 467.127315 367.367058 
L 475.269339 363.442382 
L 483.411362 358.701057 
L 491.553385 352.981538 
L 499.695409 346.351498 
L 507.837432 339.02778 
L 532.263502 315.701252 
L 540.405525 308.319143 
L 548.547549 301.468601 
L 556.689572 295.301291 
L 564.831595 289.935986 
L 572.973619 285.451607 
L 581.115642 281.880983 
L 589.257665 279.215226 
L 597.399689 277.418 
L 605.541712 276.441791 
L 613.683735 276.241157 
L 621.825759 276.777973 
L 629.967782 278.016566 
L 638.109805 279.912434 
L 646.251829 282.40245 
L 649 283.414926 
L 649 283.414926 
" style="fill:none;stroke:#ff0000;stroke-dasharray:5.55,2.4;stroke-dashoffset:0;stroke-width:1.5;"/>
   </g>
   <g id="line2d_33">
    <path clip-path="url(#pa87ae92a9a)" d="M 81 504 
L 81 -1 
" style="fill:none;stroke:#808080;stroke-linecap:round;stroke-width:0.2;"/>
   </g>
   <g id="line2d_34">
    <path clip-path="url(#pa87ae92a9a)" d="M 164.7 504 
L 164.7 -1 
" style="fill:none;stroke:#808080;stroke-linecap:round;stroke-width:0.2;"/>
   </g>
   <g id="line2d_35">
    <path clip-path="url(#pa87ae92a9a)" d="M 248.4 504 
L 248.4 -1 
" style="fill:none;stroke:#808080;stroke-linecap:round;stroke-width:0.2;"/>
   </g>
   <g id="line2d_36">
    <path clip-path="url(#pa87ae92a9a)" d="M 332.1 504 
L 332.1 -1 
" style="fill:none;stroke:#808080;stroke-linecap:round;stroke-width:0.2;"/>
   </g>
   <g id="line2d_37">
    <path clip-path="url(#pa87ae92a9a)" d="M 415.8 504 
L 415.8 -1 
" style="fill:none;stroke:#808080;stroke-linecap:round;stroke-width:0.2;"/>
   </g>
   <g id="line2d_38">
    <path clip-path="url(#pa87ae92a9a)" d="M 499.5 504 
L 499.5 -1 
" style="fill:none;stroke:#808080;stroke-linecap:round;stroke-width:0.2;"/>
   </g>
   <g id="line2d_39">
    <path clip-path="url(#pa87ae92a9a)" d="M 583.2 504 
L 583.2 -1 
" style="fill:none;stroke:#808080;stroke-linecap:round;stroke-width:0.2;"/>
   </g>
   <g id="line2d_40">
    <path clip-path="url(#pa87ae92a9a)" d="M -1 124.732542 
L 3.031984 124.590438 
L 11.174008 124.647445 
L 19.316031 125.036057 
L 27.458054 125.749501 
L 35.600078 126.786215 
L 43.742101 128.148852 
L 51.884125 129.842882 
L 60.026148 131.875434 
L 68.168171 134.25489 
L 76.310195 136.991558 
L 84.452218 140.099264 
L 92.594241 143.596647 
L 100.736265 147.506738 
L 108.878288 151.85442 
L 117.020311 156.662697 
L 125.162335 161.948762 
L 133.304358 167.720415 
L 141.446381 173.973024 
L 149.588405 180.687706 
L 157.730428 187.831348 
L 165.872451 195.358228 
L 174.014475 203.212867 
L 182.156498 211.333585 
L 198.440545 228.118724 
L 263.576732 296.619215 
L 288.002802 322.376366 
L 296.144825 330.64363 
L 304.286848 338.341943 
L 312.428872 345.040741 
L 320.570895 350.207914 
L 328.712918 353.263244 
L 336.854942 353.646588 
L 344.996965 350.88402 
L 353.138988 344.63985 
L 361.281012 334.751773 
L 369.423035 321.253106 
L 377.565058 304.385426 
L 385.707082 284.600452 
L 393.849105 262.546836 
L 401.991128 239.035122 
L 410.133152 214.980424 
L 418.275175 191.328686 
L 426.417198 168.977142 
L 434.559222 148.704227 
L 442.701245 131.120472 
L 450.843268 116.644946 
L 458.985292 105.501944 
L 467.127315 97.726681 
L 475.269339 93.174356 
L 483.411362 91.531751 
L 491.553385 92.338219 
L 499.695409 95.025624 
L 507.837432 98.976248 
L 515.979455 103.588896 
L 524.121479 108.337787 
L 532.263502 112.811769 
L 540.405525 116.729265 
L 548.547549 119.932113 
L 556.689572 122.367345 
L 564.831595 124.064902 
L 572.973619 125.115094 
L 581.115642 125.64807 
L 589.257665 125.816155 
L 613.683735 125.706232 
L 621.825759 125.949463 
L 629.967782 126.543808 
L 638.109805 127.596569 
L 646.251829 129.201002 
L 649 129.954584 
L 649 129.954584 
" style="fill:none;stroke:#008000;stroke-linecap:round;stroke-width:1.5;"/>
   </g>
   <g id="line2d_41">
    <path clip-path="url(#pa87ae92a9a)" d="M 81 504 
L 81 -1 
" style="fill:none;stroke:#808080;stroke-linecap:round;stroke-width:0.2;"/>
   </g>
   <g id="line2d_42">
    <path clip-path="url(#pa87ae92a9a)" d="M 164.7 504 
L 164.7 -1 
" style="fill:none;stroke:#808080;stroke-linecap:round;stroke-width:0.2;"/>
   </g>
   <g id="line2d_43">
    <path clip-path="url(#pa87ae92a9a)" d="M 248.4 504 
L 248.4 -1 
" style="fill:none;stroke:#808080;stroke-linecap:round;stroke-width:0.2;"/>
   </g>
   <g id="line2d_44">
    <path clip-path="url(#pa87ae92a9a)" d="M 332.1 504 
L 332.1 -1 
" style="fill:none;stroke:#808080;stroke-linecap:round;stroke-width:0.2;"/>
   </g>
   <g id="line2d_45">
    <path clip-path="url(#pa87ae92a9a)" d="M 415.8 504 
L 415.8 -1 
" style="fill:none;stroke:#808080;stroke-linecap:round;stroke-width:0.2;"/>
   </g>
   <g id="line2d_46">
    <path clip-path="url(#pa87ae92a9a)" d="M 499.5 504 
L 499.5 -1 
" style="fill:none;stroke:#808080;stroke-linecap:round;stroke-width:0.2;"/>
   </g>
   <g id="line2d_47">
    <path clip-path="url(#pa87ae92a9a)" d="M 583.2 504 
L 583.2 -1 
" style="fill:none;stroke:#808080;stroke-linecap:round;stroke-width:0.2;"/>
   </g>
   <g id="patch_3">
    <path d="M 81 504 
L 81 69.12 
" style="fill:none;stroke:#000000;stroke-linecap:square;stroke-linejoin:miter;stroke-width:0.8;"/>
   </g>
   <g id="patch_4">
    <path d="M 583.2 504 
L 583.2 69.12 
" style="fill:none;stroke:#000000;stroke-linecap:square;stroke-linejoin:miter;stroke-width:0.8;"/>
   </g>
   <g id="patch_5">
    <path d="M 81 504 
L 583.2 504 
" style="fill:none;stroke:#000000;stroke-linecap:square;stroke-linejoin:miter;stroke-width:0.8;"/>
   </g>
   <g id="patch_6">
    <path d="M 81 69.12 
L 583.2 69.12 
" style="fill:none;stroke:#000000;stroke-linecap:square;stroke-linejoin:miter;stroke-width:0.8;"/>
   </g>
   <g id="legend_1">
    <g id="patch_7">
     <path d="M 89.4 498 
L 177.2025 498 
Q 179.6025 498 179.6025 495.6 
L 179.6025 426.345 
Q 179.6025 423.945 177.2025 423.945 
L 89.4 423.945 
Q 87 423.945 87 426.345 
L 87 495.6 
Q 87 498 89.4 498 
z
" style="fill:#eaeaf2;opacity:0.8;stroke:#cccccc;stroke-linejoin:miter;"/>
    </g>
    <g id="line2d_48">
     <path d="M 91.8 433.663125 
L 115.8 433.663125 
" style="fill:none;stroke:#808080;stroke-linecap:round;stroke-width:1.5;"/>
    </g>
    <g id="line2d_49"/>
    <g id="text_18">
     <!-- Hip -->
     <g style="fill:#262626;" transform="translate(125.4 437.863125)scale(0.12 -0.12)">
      <defs>
       <path d="M 9.8125 72.90625 
L 19.671875 72.90625 
L 19.671875 43.015625 
L 55.515625 43.015625 
L 55.515625 72.90625 
L 65.375 72.90625 
L 65.375 0 
L 55.515625 0 
L 55.515625 34.71875 
L 19.671875 34.71875 
L 19.671875 0 
L 9.8125 0 
z
" id="DejaVuSans-72"/>
       <path d="M 18.109375 8.203125 
L 18.109375 -20.796875 
L 9.078125 -20.796875 
L 9.078125 54.6875 
L 18.109375 54.6875 
L 18.109375 46.390625 
Q 20.953125 51.265625 25.265625 53.625 
Q 29.59375 56 35.59375 56 
Q 45.5625 56 51.78125 48.09375 
Q 58.015625 40.1875 58.015625 27.296875 
Q 58.015625 14.40625 51.78125 6.484375 
Q 45.5625 -1.421875 35.59375 -1.421875 
Q 29.59375 -1.421875 25.265625 0.953125 
Q 20.953125 3.328125 18.109375 8.203125 
z
M 48.6875 27.296875 
Q 48.6875 37.203125 44.609375 42.84375 
Q 40.53125 48.484375 33.40625 48.484375 
Q 26.265625 48.484375 22.1875 42.84375 
Q 18.109375 37.203125 18.109375 27.296875 
Q 18.109375 17.390625 22.1875 11.75 
Q 26.265625 6.109375 33.40625 6.109375 
Q 40.53125 6.109375 44.609375 11.75 
Q 48.6875 17.390625 48.6875 27.296875 
z
" id="DejaVuSans-112"/>
      </defs>
      <use xlink:href="#DejaVuSans-72"/>
      <use x="75.195312" xlink:href="#DejaVuSans-105"/>
      <use x="102.978516" xlink:href="#DejaVuSans-112"/>
     </g>
    </g>
    <g id="line2d_50">
     <path d="M 91.8 451.276875 
L 115.8 451.276875 
" style="fill:none;stroke:#f08080;stroke-linecap:round;stroke-width:1.5;"/>
    </g>
    <g id="line2d_51"/>
    <g id="text_19">
     <!-- Tail -->
     <g style="fill:#262626;" transform="translate(125.4 455.476875)scale(0.12 -0.12)">
      <use xlink:href="#DejaVuSans-84"/>
      <use x="44.583984" xlink:href="#DejaVuSans-97"/>
      <use x="105.863281" xlink:href="#DejaVuSans-105"/>
      <use x="133.646484" xlink:href="#DejaVuSans-108"/>
     </g>
    </g>
    <g id="line2d_52">
     <path d="M 91.8 468.890625 
L 115.8 468.890625 
" style="fill:none;stroke:#ff0000;stroke-dasharray:5.55,2.4;stroke-dashoffset:0;stroke-width:1.5;"/>
    </g>
    <g id="line2d_53"/>
    <g id="text_20">
     <!-- Tail+Hip -->
     <g style="fill:#262626;" transform="translate(125.4 473.090625)scale(0.12 -0.12)">
      <defs>
       <path d="M 46 62.703125 
L 46 35.5 
L 73.1875 35.5 
L 73.1875 27.203125 
L 46 27.203125 
L 46 0 
L 37.796875 0 
L 37.796875 27.203125 
L 10.59375 27.203125 
L 10.59375 35.5 
L 37.796875 35.5 
L 37.796875 62.703125 
z
" id="DejaVuSans-43"/>
      </defs>
      <use xlink:href="#DejaVuSans-84"/>
      <use x="44.583984" xlink:href="#DejaVuSans-97"/>
      <use x="105.863281" xlink:href="#DejaVuSans-105"/>
      <use x="133.646484" xlink:href="#DejaVuSans-108"/>
      <use x="161.429688" xlink:href="#DejaVuSans-43"/>
      <use x="245.21875" xlink:href="#DejaVuSans-72"/>
      <use x="320.414062" xlink:href="#DejaVuSans-105"/>
      <use x="348.197266" xlink:href="#DejaVuSans-112"/>
     </g>
    </g>
    <g id="line2d_54">
     <path d="M 91.8 486.504375 
L 115.8 486.504375 
" style="fill:none;stroke:#008000;stroke-linecap:round;stroke-width:1.5;"/>
    </g>
    <g id="line2d_55"/>
    <g id="text_21">
     <!-- step -->
     <g style="fill:#262626;" transform="translate(125.4 490.704375)scale(0.12 -0.12)">
      <use xlink:href="#DejaVuSans-115"/>
      <use x="52.099609" xlink:href="#DejaVuSans-116"/>
      <use x="91.308594" xlink:href="#DejaVuSans-101"/>
      <use x="152.832031" xlink:href="#DejaVuSans-112"/>
     </g>
    </g>
   </g>
  </g>
 </g>
 <defs>
  <clipPath id="pa87ae92a9a">
   <rect height="434.88" width="502.2" x="81" y="69.12"/>
  </clipPath>
 </defs>
</svg>
