<?xml version="1.0" encoding="utf-8" standalone="no"?>
<!DOCTYPE svg PUBLIC "-//W3C//DTD SVG 1.1//EN"
  "http://www.w3.org/Graphics/SVG/1.1/DTD/svg11.dtd">
<!-- Created with matplotlib (https://matplotlib.org/) -->
<svg height="576pt" version="1.1" viewBox="0 0 864 576" width="864pt" xmlns="http://www.w3.org/2000/svg" xmlns:xlink="http://www.w3.org/1999/xlink">
 <metadata>
  <rdf:RDF xmlns:cc="http://creativecommons.org/ns#" xmlns:dc="http://purl.org/dc/elements/1.1/" xmlns:rdf="http://www.w3.org/1999/02/22-rdf-syntax-ns#">
   <cc:Work>
    <dc:type rdf:resource="http://purl.org/dc/dcmitype/StillImage"/>
    <dc:date>2022-08-24T15:35:48.144127</dc:date>
    <dc:format>image/svg+xml</dc:format>
    <dc:creator>
     <cc:Agent>
      <dc:title>Matplotlib v3.3.4, https://matplotlib.org/</dc:title>
     </cc:Agent>
    </dc:creator>
   </cc:Work>
  </rdf:RDF>
 </metadata>
 <defs>
  <style type="text/css">*{stroke-linecap:butt;stroke-linejoin:round;}</style>
 </defs>
 <g id="figure_1">
  <g id="patch_1">
   <path d="M 0 576 
L 864 576 
L 864 0 
L 0 0 
z
" style="fill:none;"/>
  </g>
  <g id="axes_1">
   <g id="patch_2">
    <path d="M 108 504 
L 777.6 504 
L 777.6 69.12 
L 108 69.12 
z
" style="fill:#ffffff;"/>
   </g>
   <g id="PolyCollection_1">
    <defs>
     <path d="M 138.436364 -358.693609 
L 138.436364 -349.445219 
L 145.275996 -350.382135 
L 152.115628 -350.794149 
L 158.95526 -350.13791 
L 165.794893 -349.035933 
L 172.634525 -349.051041 
L 179.474157 -350.26632 
L 186.31379 -351.557998 
L 193.153422 -353.149628 
L 199.993054 -355.862313 
L 206.832686 -359.779818 
L 213.672319 -363.148806 
L 220.511951 -363.965693 
L 227.351583 -363.716347 
L 234.191216 -363.337629 
L 241.030848 -362.295908 
L 247.87048 -360.131872 
L 254.710112 -358.168238 
L 261.549745 -359.090914 
L 268.389377 -363.25129 
L 275.229009 -369.2121 
L 282.068641 -375.674356 
L 288.908274 -382.101067 
L 295.747906 -388.99339 
L 302.587538 -397.88 
L 309.427171 -409.678796 
L 316.266803 -423.232872 
L 323.106435 -436.112532 
L 329.946067 -445.923097 
L 336.7857 -451.119241 
L 343.625332 -451.604174 
L 350.464964 -449.116363 
L 357.304597 -445.878118 
L 364.144229 -442.77258 
L 370.983861 -439.774595 
L 377.823493 -437.152609 
L 384.663126 -435.602392 
L 391.502758 -435.757717 
L 398.34239 -438.055399 
L 405.182022 -441.403606 
L 412.021655 -442.630129 
L 418.861287 -438.902748 
L 425.700919 -430.412466 
L 432.540552 -419.540439 
L 439.380184 -408.774644 
L 446.219816 -400.246741 
L 453.059448 -395.049755 
L 459.899081 -392.36811 
L 466.738713 -390.217968 
L 473.578345 -387.023473 
L 480.417978 -382.50064 
L 487.25761 -377.092982 
L 494.097242 -371.780198 
L 500.936874 -367.946115 
L 507.776507 -366.38315 
L 514.616139 -366.885612 
L 521.455771 -368.30627 
L 528.295403 -369.066762 
L 535.135036 -368.123804 
L 541.974668 -365.565958 
L 548.8143 -362.350051 
L 555.653933 -359.548001 
L 562.493565 -357.723095 
L 569.333197 -356.981815 
L 576.172829 -357.391538 
L 583.012462 -358.984403 
L 589.852094 -361.411403 
L 596.691726 -363.96723 
L 603.531359 -366.138391 
L 610.370991 -367.826413 
L 617.210623 -368.919648 
L 624.050255 -368.96338 
L 630.889888 -367.269229 
L 637.72952 -363.489117 
L 644.569152 -357.952638 
L 651.408784 -351.141087 
L 658.248417 -343.66896 
L 665.088049 -337.074371 
L 671.927681 -332.958081 
L 678.767314 -331.468438 
L 685.606946 -331.228415 
L 692.446578 -330.419563 
L 699.28621 -328.020962 
L 706.125843 -324.51078 
L 712.965475 -321.406057 
L 719.805107 -319.959306 
L 726.64474 -320.413391 
L 733.484372 -322.220908 
L 740.324004 -324.680032 
L 747.163636 -327.435593 
L 747.163636 -338.419721 
L 747.163636 -338.419721 
L 740.324004 -335.479005 
L 733.484372 -333.366289 
L 726.64474 -332.529937 
L 719.805107 -333.092246 
L 712.965475 -334.912402 
L 706.125843 -337.509027 
L 699.28621 -340.26302 
L 692.446578 -342.70179 
L 685.606946 -344.588364 
L 678.767314 -346.148741 
L 671.927681 -348.083435 
L 665.088049 -351.112569 
L 658.248417 -355.66864 
L 651.408784 -361.740565 
L 644.569152 -368.367677 
L 637.72952 -373.942614 
L 630.889888 -377.672141 
L 624.050255 -379.69351 
L 617.210623 -380.319667 
L 610.370991 -379.869707 
L 603.531359 -378.67756 
L 596.691726 -377.034482 
L 589.852094 -375.234957 
L 583.012462 -373.514533 
L 576.172829 -372.070546 
L 569.333197 -371.164145 
L 562.493565 -371.159302 
L 555.653933 -372.446809 
L 548.8143 -375.115288 
L 541.974668 -378.587575 
L 535.135036 -381.744521 
L 528.295403 -383.698429 
L 521.455771 -384.455054 
L 514.616139 -384.634134 
L 507.776507 -384.816986 
L 500.936874 -385.399248 
L 494.097242 -386.837706 
L 487.25761 -389.775017 
L 480.417978 -394.510768 
L 473.578345 -400.098848 
L 466.738713 -405.122452 
L 459.899081 -408.908288 
L 453.059448 -411.75749 
L 446.219816 -415.122525 
L 439.380184 -421.022172 
L 432.540552 -430.322725 
L 425.700919 -440.971693 
L 418.861287 -449.206365 
L 412.021655 -452.876412 
L 405.182022 -452.299321 
L 398.34239 -449.219584 
L 391.502758 -446.372252 
L 384.663126 -446.341457 
L 377.823493 -449.495654 
L 370.983861 -453.877979 
L 364.144229 -457.669466 
L 357.304597 -460.34482 
L 350.464964 -462.104469 
L 343.625332 -462.994356 
L 336.7857 -462.341358 
L 329.946067 -458.394389 
L 323.106435 -449.73835 
L 316.266803 -437.266127 
L 309.427171 -423.762893 
L 302.587538 -411.910548 
L 295.747906 -403.003757 
L 288.908274 -396.892555 
L 282.068641 -391.855003 
L 275.229009 -385.851873 
L 268.389377 -378.936821 
L 261.549745 -373.260828 
L 254.710112 -370.789556 
L 247.87048 -372.253548 
L 241.030848 -377.128769 
L 234.191216 -382.091909 
L 227.351583 -383.673652 
L 220.511951 -381.510959 
L 213.672319 -378.759463 
L 206.832686 -378.59454 
L 199.993054 -378.690164 
L 193.153422 -375.942015 
L 186.31379 -370.277442 
L 179.474157 -364.449929 
L 172.634525 -361.182117 
L 165.794893 -360.139136 
L 158.95526 -359.932704 
L 152.115628 -359.951359 
L 145.275996 -359.660109 
L 138.436364 -358.693609 
z
" id="me12dee0be6" style="stroke:#ffffff;stroke-opacity:0.2;"/>
    </defs>
    <g clip-path="url(#pcf8dea75ec)">
     <use style="fill:#f77189;fill-opacity:0.2;stroke:#ffffff;stroke-opacity:0.2;" x="0" xlink:href="#me12dee0be6" y="576"/>
    </g>
   </g>
   <g id="PolyCollection_2">
    <defs>
     <path d="M 138.436364 -351.325202 
L 138.436364 -350.777407 
L 145.275996 -351.909111 
L 152.115628 -352.960344 
L 158.95526 -353.779874 
L 165.794893 -354.201867 
L 172.634525 -353.997222 
L 179.474157 -352.897756 
L 186.31379 -350.686402 
L 193.153422 -347.170403 
L 199.993054 -342.182506 
L 206.832686 -335.62962 
L 213.672319 -327.433779 
L 220.511951 -317.385143 
L 227.351583 -305.327846 
L 234.191216 -291.586101 
L 241.030848 -276.386792 
L 247.87048 -259.776085 
L 254.710112 -242.389491 
L 261.549745 -225.130351 
L 268.389377 -208.426061 
L 275.229009 -192.39256 
L 282.068641 -177.964444 
L 288.908274 -166.392006 
L 295.747906 -158.137909 
L 302.587538 -152.937913 
L 309.427171 -150.959048 
L 316.266803 -152.98646 
L 323.106435 -159.294677 
L 329.946067 -169.363313 
L 336.7857 -182.296538 
L 343.625332 -197.761597 
L 350.464964 -215.757786 
L 357.304597 -235.804247 
L 364.144229 -256.86474 
L 370.983861 -277.736308 
L 377.823493 -297.652598 
L 384.663126 -316.234411 
L 391.502758 -333.091626 
L 398.34239 -347.783903 
L 405.182022 -359.896468 
L 412.021655 -369.102184 
L 418.861287 -375.191004 
L 425.700919 -378.265599 
L 432.540552 -378.826318 
L 439.380184 -377.442266 
L 446.219816 -374.655129 
L 453.059448 -370.985727 
L 459.899081 -366.884672 
L 466.738713 -362.669174 
L 473.578345 -358.488538 
L 480.417978 -354.336929 
L 487.25761 -350.369085 
L 494.097242 -347.01867 
L 500.936874 -344.570084 
L 507.776507 -343.068784 
L 514.616139 -342.353002 
L 521.455771 -342.096311 
L 528.295403 -342.054886 
L 535.135036 -342.302645 
L 541.974668 -342.910029 
L 548.8143 -343.811689 
L 555.653933 -344.880707 
L 562.493565 -345.972809 
L 569.333197 -346.944932 
L 576.172829 -347.727233 
L 583.012462 -348.37014 
L 589.852094 -348.945076 
L 596.691726 -349.471193 
L 603.531359 -349.912038 
L 610.370991 -350.199075 
L 617.210623 -350.287871 
L 624.050255 -350.212762 
L 630.889888 -350.043143 
L 637.72952 -349.81712 
L 644.569152 -349.545769 
L 651.408784 -349.249528 
L 658.248417 -348.959627 
L 665.088049 -348.687479 
L 671.927681 -348.423933 
L 678.767314 -348.172544 
L 685.606946 -347.957286 
L 692.446578 -347.799023 
L 699.28621 -347.707742 
L 706.125843 -347.688868 
L 712.965475 -347.744695 
L 719.805107 -347.867546 
L 726.64474 -348.03385 
L 733.484372 -348.215485 
L 740.324004 -348.402588 
L 747.163636 -348.601787 
L 747.163636 -349.576671 
L 747.163636 -349.576671 
L 740.324004 -349.368892 
L 733.484372 -349.176485 
L 726.64474 -349.028846 
L 719.805107 -348.937041 
L 712.965475 -348.891344 
L 706.125843 -348.883343 
L 699.28621 -348.916491 
L 692.446578 -348.999289 
L 685.606946 -349.13749 
L 678.767314 -349.334617 
L 671.927681 -349.597572 
L 665.088049 -349.928542 
L 658.248417 -350.301689 
L 651.408784 -350.671722 
L 644.569152 -351.008721 
L 637.72952 -351.299497 
L 630.889888 -351.519505 
L 624.050255 -351.636904 
L 617.210623 -351.65142 
L 610.370991 -351.6007 
L 603.531359 -351.495559 
L 596.691726 -351.277457 
L 589.852094 -350.874162 
L 583.012462 -350.257085 
L 576.172829 -349.466481 
L 569.333197 -348.610589 
L 562.493565 -347.795663 
L 555.653933 -347.030564 
L 548.8143 -346.277585 
L 541.974668 -345.527185 
L 535.135036 -344.81701 
L 528.295403 -344.272988 
L 521.455771 -344.175732 
L 514.616139 -344.814945 
L 507.776507 -346.149307 
L 500.936874 -348.01775 
L 494.097242 -350.359447 
L 487.25761 -353.228043 
L 480.417978 -356.79708 
L 473.578345 -361.249456 
L 466.738713 -366.337211 
L 459.899081 -371.49958 
L 453.059448 -376.192108 
L 446.219816 -379.927328 
L 439.380184 -382.28203 
L 432.540552 -382.887688 
L 425.700919 -381.443152 
L 418.861287 -377.787178 
L 412.021655 -371.866839 
L 405.182022 -363.466169 
L 398.34239 -352.336269 
L 391.502758 -338.41904 
L 384.663126 -321.884434 
L 377.823493 -303.178427 
L 370.983861 -283.063042 
L 364.144229 -262.521648 
L 357.304597 -242.289416 
L 350.464964 -222.721216 
L 343.625332 -204.306947 
L 336.7857 -187.973284 
L 329.946067 -174.929004 
L 323.106435 -165.786666 
L 316.266803 -160.283413 
L 309.427171 -158.192231 
L 302.587538 -159.736148 
L 295.747906 -165.319861 
L 288.908274 -174.435763 
L 282.068641 -185.900868 
L 275.229009 -199.076119 
L 268.389377 -213.994741 
L 261.549745 -230.328397 
L 254.710112 -246.951186 
L 247.87048 -263.130143 
L 241.030848 -278.740189 
L 234.191216 -293.558404 
L 227.351583 -306.966768 
L 220.511951 -318.732553 
L 213.672319 -328.922305 
L 206.832686 -337.310724 
L 199.993054 -343.784375 
L 193.153422 -348.49908 
L 186.31379 -351.700963 
L 179.474157 -353.63431 
L 172.634525 -354.558036 
L 165.794893 -354.717305 
L 158.95526 -354.291116 
L 152.115628 -353.461773 
L 145.275996 -352.423751 
L 138.436364 -351.325202 
z
" id="m810330807c" style="stroke:#ffffff;stroke-opacity:0.2;"/>
    </defs>
    <g clip-path="url(#pcf8dea75ec)">
     <use style="fill:#36ada4;fill-opacity:0.2;stroke:#ffffff;stroke-opacity:0.2;" x="0" xlink:href="#m810330807c" y="576"/>
    </g>
   </g>
   <g id="PolyCollection_3">
    <defs>
     <path d="M 138.436364 -353.033886 
L 138.436364 -323.750106 
L 145.275996 -327.063145 
L 152.115628 -334.530296 
L 158.95526 -341.359969 
L 165.794893 -345.830307 
L 172.634525 -349.420349 
L 179.474157 -353.240288 
L 186.31379 -356.479362 
L 193.153422 -357.585393 
L 199.993054 -355.89511 
L 206.832686 -352.254438 
L 213.672319 -347.736429 
L 220.511951 -343.587375 
L 227.351583 -343.964371 
L 234.191216 -347.361911 
L 241.030848 -350.534897 
L 247.87048 -352.561246 
L 254.710112 -353.57801 
L 261.549745 -353.819311 
L 268.389377 -353.415978 
L 275.229009 -353.674824 
L 282.068641 -357.134446 
L 288.908274 -365.156121 
L 295.747906 -377.063093 
L 302.587538 -391.644745 
L 309.427171 -409.144447 
L 316.266803 -429.000814 
L 323.106435 -447.739137 
L 329.946067 -460.470122 
L 336.7857 -465.293969 
L 343.625332 -465.115834 
L 350.464964 -463.859966 
L 357.304597 -463.288298 
L 364.144229 -460.087333 
L 370.983861 -453.317687 
L 377.823493 -446.678031 
L 384.663126 -442.4202 
L 391.502758 -440.535574 
L 398.34239 -440.96193 
L 405.182022 -447.095592 
L 412.021655 -453.011776 
L 418.861287 -454.402489 
L 425.700919 -451.348802 
L 432.540552 -445.280833 
L 439.380184 -437.147834 
L 446.219816 -430.281218 
L 453.059448 -431.166958 
L 459.899081 -436.940947 
L 466.738713 -440.859583 
L 473.578345 -439.530234 
L 480.417978 -434.437312 
L 487.25761 -427.733368 
L 494.097242 -419.799149 
L 500.936874 -410.738981 
L 507.776507 -400.814309 
L 514.616139 -389.223988 
L 521.455771 -375.539094 
L 528.295403 -361.493957 
L 535.135036 -349.577671 
L 541.974668 -340.971077 
L 548.8143 -334.699266 
L 555.653933 -328.726745 
L 562.493565 -323.51732 
L 569.333197 -320.985214 
L 576.172829 -321.112135 
L 583.012462 -322.035602 
L 589.852094 -322.517623 
L 596.691726 -323.733126 
L 603.531359 -326.969303 
L 610.370991 -332.055772 
L 617.210623 -337.811956 
L 624.050255 -342.545873 
L 630.889888 -344.900337 
L 637.72952 -344.710616 
L 644.569152 -343.111619 
L 651.408784 -341.929959 
L 658.248417 -342.499982 
L 665.088049 -344.838919 
L 671.927681 -348.05902 
L 678.767314 -351.303354 
L 685.606946 -354.000566 
L 692.446578 -355.707667 
L 699.28621 -356.446216 
L 706.125843 -356.585901 
L 712.965475 -356.238024 
L 719.805107 -355.192895 
L 726.64474 -353.589103 
L 733.484372 -351.862607 
L 740.324004 -350.148496 
L 747.163636 -348.47206 
L 747.163636 -355.091279 
L 747.163636 -355.091279 
L 740.324004 -357.011274 
L 733.484372 -359.137017 
L 726.64474 -361.137631 
L 719.805107 -362.914632 
L 712.965475 -364.623959 
L 706.125843 -365.907887 
L 699.28621 -365.899382 
L 692.446578 -364.282741 
L 685.606946 -361.593114 
L 678.767314 -358.551714 
L 671.927681 -355.661501 
L 665.088049 -353.470466 
L 658.248417 -352.471449 
L 651.408784 -352.926262 
L 644.569152 -354.683125 
L 637.72952 -356.745358 
L 630.889888 -357.247155 
L 624.050255 -354.674526 
L 617.210623 -349.312332 
L 610.370991 -343.123891 
L 603.531359 -338.311202 
L 596.691726 -335.845154 
L 589.852094 -335.383002 
L 583.012462 -336.854774 
L 576.172829 -340.380155 
L 569.333197 -344.579501 
L 562.493565 -348.005108 
L 555.653933 -351.004317 
L 548.8143 -355.6572 
L 541.974668 -362.818177 
L 535.135036 -371.398039 
L 528.295403 -381.297676 
L 521.455771 -393.139925 
L 514.616139 -406.839001 
L 507.776507 -420.856237 
L 500.936874 -433.072042 
L 494.097242 -443.418421 
L 487.25761 -453.465297 
L 480.417978 -462.398653 
L 473.578345 -466.87313 
L 466.738713 -465.291106 
L 459.899081 -459.485263 
L 453.059448 -452.597637 
L 446.219816 -448.100114 
L 439.380184 -450.227667 
L 432.540552 -462.941345 
L 425.700919 -477.535158 
L 418.861287 -481.819263 
L 412.021655 -473.33698 
L 405.182022 -460.646346 
L 398.34239 -453.360269 
L 391.502758 -454.316677 
L 384.663126 -465.17129 
L 377.823493 -477.049556 
L 370.983861 -482.182409 
L 364.144229 -481.42194 
L 357.304597 -481.878739 
L 350.464964 -485.343257 
L 343.625332 -487.112727 
L 336.7857 -484.528921 
L 329.946067 -477.340798 
L 323.106435 -466.970088 
L 316.266803 -453.458909 
L 309.427171 -436.547982 
L 302.587538 -418.10302 
L 295.747906 -401.381874 
L 288.908274 -388.203795 
L 282.068641 -377.808728 
L 275.229009 -369.831982 
L 268.389377 -365.216926 
L 261.549745 -364.402314 
L 254.710112 -365.321688 
L 247.87048 -364.954888 
L 241.030848 -361.944704 
L 234.191216 -357.204457 
L 227.351583 -353.270551 
L 220.511951 -352.067813 
L 213.672319 -355.868296 
L 206.832686 -367.336347 
L 199.993054 -380.092633 
L 193.153422 -386.052668 
L 186.31379 -382.383665 
L 179.474157 -372.853373 
L 172.634525 -363.716665 
L 165.794893 -358.204867 
L 158.95526 -355.640875 
L 152.115628 -354.401645 
L 145.275996 -353.609526 
L 138.436364 -353.033886 
z
" id="m4998e5602d" style="stroke:#ffffff;stroke-opacity:0.2;"/>
    </defs>
    <g clip-path="url(#pcf8dea75ec)">
     <use style="fill:#f77189;fill-opacity:0.2;stroke:#ffffff;stroke-opacity:0.2;" x="0" xlink:href="#m4998e5602d" y="576"/>
    </g>
   </g>
   <g id="PolyCollection_4">
    <defs>
     <path d="M 138.436364 -352.422808 
L 138.436364 -351.659253 
L 145.275996 -352.364668 
L 152.115628 -352.970176 
L 158.95526 -353.280248 
L 165.794893 -353.036996 
L 172.634525 -352.080521 
L 179.474157 -350.19799 
L 186.31379 -347.176333 
L 193.153422 -343.07718 
L 199.993054 -337.814594 
L 206.832686 -330.970306 
L 213.672319 -322.801377 
L 220.511951 -313.869237 
L 227.351583 -302.261898 
L 234.191216 -288.747563 
L 241.030848 -276.058375 
L 247.87048 -263.34698 
L 254.710112 -242.040653 
L 261.549745 -219.776386 
L 268.389377 -201.55293 
L 275.229009 -189.605233 
L 282.068641 -181.921078 
L 288.908274 -173.532993 
L 295.747906 -161.488445 
L 302.587538 -149.903409 
L 309.427171 -139.86589 
L 316.266803 -130.730263 
L 323.106435 -122.304003 
L 329.946067 -114.59576 
L 336.7857 -108.307649 
L 343.625332 -104.029721 
L 350.464964 -101.827983 
L 357.304597 -101.371507 
L 364.144229 -102.269161 
L 370.983861 -104.593947 
L 377.823493 -108.833693 
L 384.663126 -115.252366 
L 391.502758 -123.494305 
L 398.34239 -133.080063 
L 405.182022 -144.409027 
L 412.021655 -158.165794 
L 418.861287 -174.127963 
L 425.700919 -191.20085 
L 432.540552 -209.00196 
L 439.380184 -228.076563 
L 446.219816 -248.162966 
L 453.059448 -267.929973 
L 459.899081 -286.597746 
L 466.738713 -304.485697 
L 473.578345 -321.40672 
L 480.417978 -336.444861 
L 487.25761 -349.039366 
L 494.097242 -359.320968 
L 500.936874 -367.232771 
L 507.776507 -372.65043 
L 514.616139 -375.907536 
L 521.455771 -377.331287 
L 528.295403 -376.841785 
L 535.135036 -374.505176 
L 541.974668 -371.094105 
L 548.8143 -367.408826 
L 555.653933 -363.828736 
L 562.493565 -360.352853 
L 569.333197 -356.924361 
L 576.172829 -353.626346 
L 583.012462 -350.535106 
L 589.852094 -347.794394 
L 596.691726 -345.623281 
L 603.531359 -344.067705 
L 610.370991 -343.078784 
L 617.210623 -342.652916 
L 624.050255 -342.788555 
L 630.889888 -343.330065 
L 637.72952 -343.916853 
L 644.569152 -344.520232 
L 651.408784 -345.353214 
L 658.248417 -346.316268 
L 665.088049 -347.187299 
L 671.927681 -347.87032 
L 678.767314 -348.382265 
L 685.606946 -348.857922 
L 692.446578 -349.329446 
L 699.28621 -349.542938 
L 706.125843 -349.465313 
L 712.965475 -349.400759 
L 719.805107 -349.433811 
L 726.64474 -349.436989 
L 733.484372 -349.301345 
L 740.324004 -349.024747 
L 747.163636 -348.696302 
L 747.163636 -350.427048 
L 747.163636 -350.427048 
L 740.324004 -350.614539 
L 733.484372 -350.845818 
L 726.64474 -351.167809 
L 719.805107 -351.532048 
L 712.965475 -351.782144 
L 706.125843 -351.745533 
L 699.28621 -351.46769 
L 692.446578 -351.223458 
L 685.606946 -350.963656 
L 678.767314 -350.434804 
L 671.927681 -349.688859 
L 665.088049 -348.90215 
L 658.248417 -348.156605 
L 651.408784 -347.445573 
L 644.569152 -346.660422 
L 637.72952 -345.83756 
L 630.889888 -345.344872 
L 624.050255 -345.321668 
L 617.210623 -345.580073 
L 610.370991 -346.13081 
L 603.531359 -347.118798 
L 596.691726 -348.651516 
L 589.852094 -350.739225 
L 583.012462 -353.418621 
L 576.172829 -356.816286 
L 569.333197 -360.888585 
L 562.493565 -365.422773 
L 555.653933 -370.110821 
L 548.8143 -374.409788 
L 541.974668 -377.752573 
L 535.135036 -379.895317 
L 528.295403 -380.987696 
L 521.455771 -381.159705 
L 514.616139 -379.881319 
L 507.776507 -376.562211 
L 500.936874 -371.141952 
L 494.097242 -363.721177 
L 487.25761 -354.121142 
L 480.417978 -342.422667 
L 473.578345 -329.087968 
L 466.738713 -314.070656 
L 459.899081 -297.128952 
L 453.059448 -278.875872 
L 446.219816 -260.514597 
L 439.380184 -242.185146 
L 432.540552 -223.463309 
L 425.700919 -204.935352 
L 418.861287 -187.896199 
L 412.021655 -172.585739 
L 405.182022 -158.387962 
L 398.34239 -145.412092 
L 391.502758 -134.535963 
L 384.663126 -126.23201 
L 377.823493 -119.997952 
L 370.983861 -115.386285 
L 364.144229 -112.526221 
L 357.304597 -111.750658 
L 350.464964 -112.975036 
L 343.625332 -115.65938 
L 336.7857 -119.337568 
L 329.946067 -123.952933 
L 323.106435 -129.97913 
L 316.266803 -137.998045 
L 309.427171 -147.881807 
L 302.587538 -159.271844 
L 295.747906 -171.314495 
L 288.908274 -184.837526 
L 282.068641 -203.63785 
L 275.229009 -224.383254 
L 268.389377 -241.669997 
L 261.549745 -253.003389 
L 254.710112 -260.106221 
L 247.87048 -267.456901 
L 241.030848 -282.188315 
L 234.191216 -295.264633 
L 227.351583 -305.438933 
L 220.511951 -315.125582 
L 213.672319 -324.86946 
L 206.832686 -332.636211 
L 199.993054 -338.966233 
L 193.153422 -344.191551 
L 186.31379 -348.054461 
L 179.474157 -350.700687 
L 172.634525 -352.477153 
L 165.794893 -353.490621 
L 158.95526 -353.863331 
L 152.115628 -353.767526 
L 145.275996 -353.258633 
L 138.436364 -352.422808 
z
" id="m737bebfce3" style="stroke:#ffffff;stroke-opacity:0.2;"/>
    </defs>
    <g clip-path="url(#pcf8dea75ec)">
     <use style="fill:#36ada4;fill-opacity:0.2;stroke:#ffffff;stroke-opacity:0.2;" x="0" xlink:href="#m737bebfce3" y="576"/>
    </g>
   </g>
   <g id="PolyCollection_5">
    <defs>
     <path d="M 138.436364 -363.933235 
L 138.436364 -355.265919 
L 145.275996 -357.481711 
L 152.115628 -357.448414 
L 158.95526 -356.05769 
L 165.794893 -354.658114 
L 172.634525 -353.824725 
L 179.474157 -353.656937 
L 186.31379 -354.470605 
L 193.153422 -355.783271 
L 199.993054 -356.761606 
L 206.832686 -357.118109 
L 213.672319 -356.895033 
L 220.511951 -356.077426 
L 227.351583 -354.651548 
L 234.191216 -352.8952 
L 241.030848 -351.399553 
L 247.87048 -350.680172 
L 254.710112 -351.000698 
L 261.549745 -352.464413 
L 268.389377 -355.151137 
L 275.229009 -359.18023 
L 282.068641 -364.750187 
L 288.908274 -372.246823 
L 295.747906 -382.202668 
L 302.587538 -394.769716 
L 309.427171 -409.397486 
L 316.266803 -425.343089 
L 323.106435 -441.177386 
L 329.946067 -454.332876 
L 336.7857 -462.072261 
L 343.625332 -463.177701 
L 350.464964 -459.061601 
L 357.304597 -453.119164 
L 364.144229 -448.71174 
L 370.983861 -446.678413 
L 377.823493 -445.819083 
L 384.663126 -446.564356 
L 391.502758 -449.165347 
L 398.34239 -451.903536 
L 405.182022 -455.252597 
L 412.021655 -461.040255 
L 418.861287 -466.330824 
L 425.700919 -467.916546 
L 432.540552 -466.334837 
L 439.380184 -463.947275 
L 446.219816 -462.550688 
L 453.059448 -462.073265 
L 459.899081 -460.279495 
L 466.738713 -455.33915 
L 473.578345 -447.676848 
L 480.417978 -440.272004 
L 487.25761 -435.338827 
L 494.097242 -431.145116 
L 500.936874 -423.700504 
L 507.776507 -410.749006 
L 514.616139 -394.075162 
L 521.455771 -377.616556 
L 528.295403 -364.057414 
L 535.135036 -353.373101 
L 541.974668 -343.874578 
L 548.8143 -334.237104 
L 555.653933 -324.522255 
L 562.493565 -315.569692 
L 569.333197 -308.575968 
L 576.172829 -304.727726 
L 583.012462 -303.817039 
L 589.852094 -304.168748 
L 596.691726 -303.362309 
L 603.531359 -299.018821 
L 610.370991 -289.947979 
L 617.210623 -278.291124 
L 624.050255 -268.940617 
L 630.889888 -265.907185 
L 637.72952 -269.618608 
L 644.569152 -276.551862 
L 651.408784 -282.651736 
L 658.248417 -286.919643 
L 665.088049 -290.294399 
L 671.927681 -294.30652 
L 678.767314 -300.240908 
L 685.606946 -308.044263 
L 692.446578 -316.545787 
L 699.28621 -324.704808 
L 706.125843 -331.875536 
L 712.965475 -337.604366 
L 719.805107 -342.124904 
L 726.64474 -346.185716 
L 733.484372 -350.15312 
L 740.324004 -353.891998 
L 747.163636 -357.145366 
L 747.163636 -364.439628 
L 747.163636 -364.439628 
L 740.324004 -361.006987 
L 733.484372 -357.212518 
L 726.64474 -353.372699 
L 719.805107 -349.447098 
L 712.965475 -345.067255 
L 706.125843 -339.846174 
L 699.28621 -333.46159 
L 692.446578 -326.144673 
L 685.606946 -318.991799 
L 678.767314 -313.00835 
L 671.927681 -308.421139 
L 665.088049 -304.932223 
L 658.248417 -301.564736 
L 651.408784 -296.914862 
L 644.569152 -291.183116 
L 637.72952 -286.764611 
L 630.889888 -285.597499 
L 624.050255 -288.420965 
L 617.210623 -294.832217 
L 610.370991 -303.449025 
L 603.531359 -312.762647 
L 596.691726 -320.863358 
L 589.852094 -325.938276 
L 583.012462 -327.688623 
L 576.172829 -327.400581 
L 569.333197 -327.653489 
L 562.493565 -331.375031 
L 555.653933 -339.928262 
L 548.8143 -351.551432 
L 541.974668 -363.471116 
L 535.135036 -374.797701 
L 528.295403 -386.800456 
L 521.455771 -401.104002 
L 514.616139 -417.559988 
L 507.776507 -433.806561 
L 500.936874 -446.844513 
L 494.097242 -454.906285 
L 487.25761 -458.488989 
L 480.417978 -460.383478 
L 473.578345 -463.846763 
L 466.738713 -470.005335 
L 459.899081 -476.147069 
L 453.059448 -478.602782 
L 446.219816 -477.615093 
L 439.380184 -476.770011 
L 432.540552 -478.642157 
L 425.700919 -481.191463 
L 418.861287 -480.712527 
L 412.021655 -476.259348 
L 405.182022 -469.364066 
L 398.34239 -463.052797 
L 391.502758 -460.850962 
L 384.663126 -460.885063 
L 377.823493 -459.700652 
L 370.983861 -459.128262 
L 364.144229 -462.354875 
L 357.304597 -468.335022 
L 350.464964 -474.09513 
L 343.625332 -476.970808 
L 336.7857 -475.125915 
L 329.946067 -467.771627 
L 323.106435 -455.104661 
L 316.266803 -438.576573 
L 309.427171 -420.905021 
L 302.587538 -405.123283 
L 295.747906 -392.782364 
L 288.908274 -383.425976 
L 282.068641 -376.173719 
L 275.229009 -370.496565 
L 268.389377 -366.093082 
L 261.549745 -362.773281 
L 254.710112 -360.470428 
L 247.87048 -359.239896 
L 241.030848 -359.19691 
L 234.191216 -360.444941 
L 227.351583 -362.99336 
L 220.511951 -366.479442 
L 213.672319 -369.81066 
L 206.832686 -371.558035 
L 199.993054 -370.947094 
L 193.153422 -368.452035 
L 186.31379 -365.300175 
L 179.474157 -362.569118 
L 172.634525 -361.248757 
L 165.794893 -362.064493 
L 158.95526 -364.189608 
L 152.115628 -366.057461 
L 145.275996 -366.318261 
L 138.436364 -363.933235 
z
" id="mc5d69ea306" style="stroke:#ffffff;stroke-opacity:0.2;"/>
    </defs>
    <g clip-path="url(#pcf8dea75ec)">
     <use style="fill:#f77189;fill-opacity:0.2;stroke:#ffffff;stroke-opacity:0.2;" x="0" xlink:href="#mc5d69ea306" y="576"/>
    </g>
   </g>
   <g id="PolyCollection_6">
    <defs>
     <path d="M 138.436364 -351.606928 
L 138.436364 -351.163466 
L 145.275996 -351.767932 
L 152.115628 -352.205397 
L 158.95526 -352.312894 
L 165.794893 -351.936193 
L 172.634525 -350.987601 
L 179.474157 -349.357484 
L 186.31379 -346.853038 
L 193.153422 -343.25278 
L 199.993054 -338.494339 
L 206.832686 -332.560974 
L 213.672319 -325.401508 
L 220.511951 -316.993266 
L 227.351583 -307.345859 
L 234.191216 -296.423414 
L 241.030848 -284.239153 
L 247.87048 -271.008913 
L 254.710112 -257.03363 
L 261.549745 -242.626582 
L 268.389377 -228.010174 
L 275.229009 -213.029337 
L 282.068641 -197.674186 
L 288.908274 -182.756173 
L 295.747906 -168.996234 
L 302.587538 -156.547259 
L 309.427171 -145.14879 
L 316.266803 -134.84144 
L 323.106435 -126.065798 
L 329.946067 -118.64651 
L 336.7857 -111.37859 
L 343.625332 -104.863008 
L 350.464964 -100.142923 
L 357.304597 -97.186417 
L 364.144229 -95.119302 
L 370.983861 -93.599245 
L 377.823493 -93.155042 
L 384.663126 -93.645311 
L 391.502758 -93.400284 
L 398.34239 -92.231367 
L 405.182022 -91.767273 
L 412.021655 -92.377379 
L 418.861287 -93.355778 
L 425.700919 -93.877864 
L 432.540552 -95.035111 
L 439.380184 -97.916853 
L 446.219816 -102.447224 
L 453.059448 -108.030743 
L 459.899081 -114.596646 
L 466.738713 -122.460024 
L 473.578345 -131.935972 
L 480.417978 -143.415468 
L 487.25761 -156.971485 
L 494.097242 -172.373407 
L 500.936874 -189.48932 
L 507.776507 -208.200279 
L 514.616139 -228.046058 
L 521.455771 -248.449066 
L 528.295403 -269.125353 
L 535.135036 -289.843192 
L 541.974668 -310.128458 
L 548.8143 -329.391301 
L 555.653933 -347.147248 
L 562.493565 -363.015072 
L 569.333197 -376.564477 
L 576.172829 -387.348863 
L 583.012462 -395.2388 
L 589.852094 -400.389855 
L 596.691726 -402.917455 
L 603.531359 -403.001967 
L 610.370991 -400.98273 
L 617.210623 -397.257653 
L 624.050255 -392.232031 
L 630.889888 -386.329117 
L 637.72952 -379.97136 
L 644.569152 -373.524571 
L 651.408784 -367.264627 
L 658.248417 -361.391387 
L 665.088049 -356.050355 
L 671.927681 -351.357493 
L 678.767314 -347.430648 
L 685.606946 -344.35429 
L 692.446578 -342.140597 
L 699.28621 -340.778777 
L 706.125843 -340.234273 
L 712.965475 -340.374578 
L 719.805107 -340.970334 
L 726.64474 -341.829623 
L 733.484372 -342.891863 
L 740.324004 -344.113555 
L 747.163636 -345.389985 
L 747.163636 -346.830151 
L 747.163636 -346.830151 
L 740.324004 -345.699354 
L 733.484372 -344.564995 
L 726.64474 -343.517464 
L 719.805107 -342.74261 
L 712.965475 -342.434476 
L 706.125843 -342.667631 
L 699.28621 -343.473538 
L 692.446578 -344.954146 
L 685.606946 -347.260503 
L 678.767314 -350.496025 
L 671.927681 -354.69497 
L 665.088049 -359.854665 
L 658.248417 -365.884759 
L 651.408784 -372.566687 
L 644.569152 -379.587345 
L 637.72952 -386.574178 
L 630.889888 -393.13524 
L 624.050255 -398.899194 
L 617.210623 -403.51479 
L 610.370991 -406.632971 
L 603.531359 -407.929147 
L 596.691726 -407.155427 
L 589.852094 -404.129008 
L 583.012462 -398.666478 
L 576.172829 -390.70503 
L 569.333197 -380.424937 
L 562.493565 -367.930334 
L 555.653933 -353.210537 
L 548.8143 -336.454682 
L 541.974668 -318.054353 
L 535.135036 -298.411929 
L 528.295403 -277.892728 
L 521.455771 -256.997374 
L 514.616139 -236.440227 
L 507.776507 -216.810316 
L 500.936874 -198.292142 
L 494.097242 -181.047695 
L 487.25761 -165.421503 
L 480.417978 -151.578066 
L 473.578345 -139.417975 
L 466.738713 -128.991101 
L 459.899081 -120.529382 
L 453.059448 -114.076877 
L 446.219816 -109.5933 
L 439.380184 -106.597804 
L 432.540552 -104.060284 
L 425.700919 -101.475166 
L 418.861287 -99.534693 
L 412.021655 -98.990684 
L 405.182022 -98.757049 
L 398.34239 -97.959919 
L 391.502758 -96.902928 
L 384.663126 -97.252352 
L 377.823493 -98.953594 
L 370.983861 -100.552902 
L 364.144229 -102.186202 
L 357.304597 -104.695733 
L 350.464964 -108.061364 
L 343.625332 -111.712515 
L 336.7857 -115.876885 
L 329.946067 -121.791437 
L 323.106435 -130.168012 
L 316.266803 -139.817928 
L 309.427171 -150.481846 
L 302.587538 -162.416348 
L 295.747906 -175.384036 
L 288.908274 -188.763583 
L 282.068641 -202.279558 
L 275.229009 -216.17566 
L 268.389377 -230.757663 
L 261.549745 -245.502742 
L 254.710112 -259.756347 
L 247.87048 -273.27408 
L 241.030848 -285.951901 
L 234.191216 -297.736635 
L 227.351583 -308.563431 
L 220.511951 -318.244803 
L 213.672319 -326.627106 
L 206.832686 -333.684629 
L 199.993054 -339.438079 
L 193.153422 -343.951569 
L 186.31379 -347.385958 
L 179.474157 -349.906802 
L 172.634525 -351.557124 
L 165.794893 -352.430492 
L 158.95526 -352.71079 
L 152.115628 -352.597189 
L 145.275996 -352.20363 
L 138.436364 -351.606928 
z
" id="me8253b69dc" style="stroke:#ffffff;stroke-opacity:0.2;"/>
    </defs>
    <g clip-path="url(#pcf8dea75ec)">
     <use style="fill:#36ada4;fill-opacity:0.2;stroke:#ffffff;stroke-opacity:0.2;" x="0" xlink:href="#me8253b69dc" y="576"/>
    </g>
   </g>
   <g id="matplotlib.axis_1">
    <g id="xtick_1">
     <g id="line2d_1">
      <defs>
       <path d="M 0 0 
L 0 3.5 
" id="m09743621e4" style="stroke:#000000;stroke-width:0.8;"/>
      </defs>
      <g>
       <use style="stroke:#000000;stroke-width:0.8;" x="138.436364" xlink:href="#m09743621e4" y="504"/>
      </g>
     </g>
     <g id="text_1">
      <!-- 0.00 -->
      <g transform="translate(122.850426 521.637812)scale(0.14 -0.14)">
       <defs>
        <path d="M 31.78125 66.40625 
Q 24.171875 66.40625 20.328125 58.90625 
Q 16.5 51.421875 16.5 36.375 
Q 16.5 21.390625 20.328125 13.890625 
Q 24.171875 6.390625 31.78125 6.390625 
Q 39.453125 6.390625 43.28125 13.890625 
Q 47.125 21.390625 47.125 36.375 
Q 47.125 51.421875 43.28125 58.90625 
Q 39.453125 66.40625 31.78125 66.40625 
z
M 31.78125 74.21875 
Q 44.046875 74.21875 50.515625 64.515625 
Q 56.984375 54.828125 56.984375 36.375 
Q 56.984375 17.96875 50.515625 8.265625 
Q 44.046875 -1.421875 31.78125 -1.421875 
Q 19.53125 -1.421875 13.0625 8.265625 
Q 6.59375 17.96875 6.59375 36.375 
Q 6.59375 54.828125 13.0625 64.515625 
Q 19.53125 74.21875 31.78125 74.21875 
z
" id="DejaVuSans-48"/>
        <path d="M 10.6875 12.40625 
L 21 12.40625 
L 21 0 
L 10.6875 0 
z
" id="DejaVuSans-46"/>
       </defs>
       <use xlink:href="#DejaVuSans-48"/>
       <use x="63.623047" xlink:href="#DejaVuSans-46"/>
       <use x="95.410156" xlink:href="#DejaVuSans-48"/>
       <use x="159.033203" xlink:href="#DejaVuSans-48"/>
      </g>
     </g>
    </g>
    <g id="xtick_2">
     <g id="line2d_2">
      <g>
       <use style="stroke:#000000;stroke-width:0.8;" x="239.890909" xlink:href="#m09743621e4" y="504"/>
      </g>
     </g>
     <g id="text_2">
      <!-- 0.05 -->
      <g transform="translate(224.304972 521.637812)scale(0.14 -0.14)">
       <defs>
        <path d="M 10.796875 72.90625 
L 49.515625 72.90625 
L 49.515625 64.59375 
L 19.828125 64.59375 
L 19.828125 46.734375 
Q 21.96875 47.46875 24.109375 47.828125 
Q 26.265625 48.1875 28.421875 48.1875 
Q 40.625 48.1875 47.75 41.5 
Q 54.890625 34.8125 54.890625 23.390625 
Q 54.890625 11.625 47.5625 5.09375 
Q 40.234375 -1.421875 26.90625 -1.421875 
Q 22.3125 -1.421875 17.546875 -0.640625 
Q 12.796875 0.140625 7.71875 1.703125 
L 7.71875 11.625 
Q 12.109375 9.234375 16.796875 8.0625 
Q 21.484375 6.890625 26.703125 6.890625 
Q 35.15625 6.890625 40.078125 11.328125 
Q 45.015625 15.765625 45.015625 23.390625 
Q 45.015625 31 40.078125 35.4375 
Q 35.15625 39.890625 26.703125 39.890625 
Q 22.75 39.890625 18.8125 39.015625 
Q 14.890625 38.140625 10.796875 36.28125 
z
" id="DejaVuSans-53"/>
       </defs>
       <use xlink:href="#DejaVuSans-48"/>
       <use x="63.623047" xlink:href="#DejaVuSans-46"/>
       <use x="95.410156" xlink:href="#DejaVuSans-48"/>
       <use x="159.033203" xlink:href="#DejaVuSans-53"/>
      </g>
     </g>
    </g>
    <g id="xtick_3">
     <g id="line2d_3">
      <g>
       <use style="stroke:#000000;stroke-width:0.8;" x="341.345455" xlink:href="#m09743621e4" y="504"/>
      </g>
     </g>
     <g id="text_3">
      <!-- 0.10 -->
      <g transform="translate(325.759517 521.637812)scale(0.14 -0.14)">
       <defs>
        <path d="M 12.40625 8.296875 
L 28.515625 8.296875 
L 28.515625 63.921875 
L 10.984375 60.40625 
L 10.984375 69.390625 
L 28.421875 72.90625 
L 38.28125 72.90625 
L 38.28125 8.296875 
L 54.390625 8.296875 
L 54.390625 0 
L 12.40625 0 
z
" id="DejaVuSans-49"/>
       </defs>
       <use xlink:href="#DejaVuSans-48"/>
       <use x="63.623047" xlink:href="#DejaVuSans-46"/>
       <use x="95.410156" xlink:href="#DejaVuSans-49"/>
       <use x="159.033203" xlink:href="#DejaVuSans-48"/>
      </g>
     </g>
    </g>
    <g id="xtick_4">
     <g id="line2d_4">
      <g>
       <use style="stroke:#000000;stroke-width:0.8;" x="442.8" xlink:href="#m09743621e4" y="504"/>
      </g>
     </g>
     <g id="text_4">
      <!-- 0.15 -->
      <g transform="translate(427.214063 521.637812)scale(0.14 -0.14)">
       <use xlink:href="#DejaVuSans-48"/>
       <use x="63.623047" xlink:href="#DejaVuSans-46"/>
       <use x="95.410156" xlink:href="#DejaVuSans-49"/>
       <use x="159.033203" xlink:href="#DejaVuSans-53"/>
      </g>
     </g>
    </g>
    <g id="xtick_5">
     <g id="line2d_5">
      <g>
       <use style="stroke:#000000;stroke-width:0.8;" x="544.254545" xlink:href="#m09743621e4" y="504"/>
      </g>
     </g>
     <g id="text_5">
      <!-- 0.20 -->
      <g transform="translate(528.668608 521.637812)scale(0.14 -0.14)">
       <defs>
        <path d="M 19.1875 8.296875 
L 53.609375 8.296875 
L 53.609375 0 
L 7.328125 0 
L 7.328125 8.296875 
Q 12.9375 14.109375 22.625 23.890625 
Q 32.328125 33.6875 34.8125 36.53125 
Q 39.546875 41.84375 41.421875 45.53125 
Q 43.3125 49.21875 43.3125 52.78125 
Q 43.3125 58.59375 39.234375 62.25 
Q 35.15625 65.921875 28.609375 65.921875 
Q 23.96875 65.921875 18.8125 64.3125 
Q 13.671875 62.703125 7.8125 59.421875 
L 7.8125 69.390625 
Q 13.765625 71.78125 18.9375 73 
Q 24.125 74.21875 28.421875 74.21875 
Q 39.75 74.21875 46.484375 68.546875 
Q 53.21875 62.890625 53.21875 53.421875 
Q 53.21875 48.921875 51.53125 44.890625 
Q 49.859375 40.875 45.40625 35.40625 
Q 44.1875 33.984375 37.640625 27.21875 
Q 31.109375 20.453125 19.1875 8.296875 
z
" id="DejaVuSans-50"/>
       </defs>
       <use xlink:href="#DejaVuSans-48"/>
       <use x="63.623047" xlink:href="#DejaVuSans-46"/>
       <use x="95.410156" xlink:href="#DejaVuSans-50"/>
       <use x="159.033203" xlink:href="#DejaVuSans-48"/>
      </g>
     </g>
    </g>
    <g id="xtick_6">
     <g id="line2d_6">
      <g>
       <use style="stroke:#000000;stroke-width:0.8;" x="645.709091" xlink:href="#m09743621e4" y="504"/>
      </g>
     </g>
     <g id="text_6">
      <!-- 0.25 -->
      <g transform="translate(630.123153 521.637812)scale(0.14 -0.14)">
       <use xlink:href="#DejaVuSans-48"/>
       <use x="63.623047" xlink:href="#DejaVuSans-46"/>
       <use x="95.410156" xlink:href="#DejaVuSans-50"/>
       <use x="159.033203" xlink:href="#DejaVuSans-53"/>
      </g>
     </g>
    </g>
    <g id="xtick_7">
     <g id="line2d_7">
      <g>
       <use style="stroke:#000000;stroke-width:0.8;" x="747.163636" xlink:href="#m09743621e4" y="504"/>
      </g>
     </g>
     <g id="text_7">
      <!-- 0.30 -->
      <g transform="translate(731.577699 521.637812)scale(0.14 -0.14)">
       <defs>
        <path d="M 40.578125 39.3125 
Q 47.65625 37.796875 51.625 33 
Q 55.609375 28.21875 55.609375 21.1875 
Q 55.609375 10.40625 48.1875 4.484375 
Q 40.765625 -1.421875 27.09375 -1.421875 
Q 22.515625 -1.421875 17.65625 -0.515625 
Q 12.796875 0.390625 7.625 2.203125 
L 7.625 11.71875 
Q 11.71875 9.328125 16.59375 8.109375 
Q 21.484375 6.890625 26.8125 6.890625 
Q 36.078125 6.890625 40.9375 10.546875 
Q 45.796875 14.203125 45.796875 21.1875 
Q 45.796875 27.640625 41.28125 31.265625 
Q 36.765625 34.90625 28.71875 34.90625 
L 20.21875 34.90625 
L 20.21875 43.015625 
L 29.109375 43.015625 
Q 36.375 43.015625 40.234375 45.921875 
Q 44.09375 48.828125 44.09375 54.296875 
Q 44.09375 59.90625 40.109375 62.90625 
Q 36.140625 65.921875 28.71875 65.921875 
Q 24.65625 65.921875 20.015625 65.03125 
Q 15.375 64.15625 9.8125 62.3125 
L 9.8125 71.09375 
Q 15.4375 72.65625 20.34375 73.4375 
Q 25.25 74.21875 29.59375 74.21875 
Q 40.828125 74.21875 47.359375 69.109375 
Q 53.90625 64.015625 53.90625 55.328125 
Q 53.90625 49.265625 50.4375 45.09375 
Q 46.96875 40.921875 40.578125 39.3125 
z
" id="DejaVuSans-51"/>
       </defs>
       <use xlink:href="#DejaVuSans-48"/>
       <use x="63.623047" xlink:href="#DejaVuSans-46"/>
       <use x="95.410156" xlink:href="#DejaVuSans-51"/>
       <use x="159.033203" xlink:href="#DejaVuSans-48"/>
      </g>
     </g>
    </g>
    <g id="text_8">
     <!-- Time (s) -->
     <g transform="translate(406.207969 542.226562)scale(0.18 -0.18)">
      <defs>
       <path d="M -0.296875 72.90625 
L 61.375 72.90625 
L 61.375 64.59375 
L 35.5 64.59375 
L 35.5 0 
L 25.59375 0 
L 25.59375 64.59375 
L -0.296875 64.59375 
z
" id="DejaVuSans-84"/>
       <path d="M 9.421875 54.6875 
L 18.40625 54.6875 
L 18.40625 0 
L 9.421875 0 
z
M 9.421875 75.984375 
L 18.40625 75.984375 
L 18.40625 64.59375 
L 9.421875 64.59375 
z
" id="DejaVuSans-105"/>
       <path d="M 52 44.1875 
Q 55.375 50.25 60.0625 53.125 
Q 64.75 56 71.09375 56 
Q 79.640625 56 84.28125 50.015625 
Q 88.921875 44.046875 88.921875 33.015625 
L 88.921875 0 
L 79.890625 0 
L 79.890625 32.71875 
Q 79.890625 40.578125 77.09375 44.375 
Q 74.3125 48.1875 68.609375 48.1875 
Q 61.625 48.1875 57.5625 43.546875 
Q 53.515625 38.921875 53.515625 30.90625 
L 53.515625 0 
L 44.484375 0 
L 44.484375 32.71875 
Q 44.484375 40.625 41.703125 44.40625 
Q 38.921875 48.1875 33.109375 48.1875 
Q 26.21875 48.1875 22.15625 43.53125 
Q 18.109375 38.875 18.109375 30.90625 
L 18.109375 0 
L 9.078125 0 
L 9.078125 54.6875 
L 18.109375 54.6875 
L 18.109375 46.1875 
Q 21.1875 51.21875 25.484375 53.609375 
Q 29.78125 56 35.6875 56 
Q 41.65625 56 45.828125 52.96875 
Q 50 49.953125 52 44.1875 
z
" id="DejaVuSans-109"/>
       <path d="M 56.203125 29.59375 
L 56.203125 25.203125 
L 14.890625 25.203125 
Q 15.484375 15.921875 20.484375 11.0625 
Q 25.484375 6.203125 34.421875 6.203125 
Q 39.59375 6.203125 44.453125 7.46875 
Q 49.3125 8.734375 54.109375 11.28125 
L 54.109375 2.78125 
Q 49.265625 0.734375 44.1875 -0.34375 
Q 39.109375 -1.421875 33.890625 -1.421875 
Q 20.796875 -1.421875 13.15625 6.1875 
Q 5.515625 13.8125 5.515625 26.8125 
Q 5.515625 40.234375 12.765625 48.109375 
Q 20.015625 56 32.328125 56 
Q 43.359375 56 49.78125 48.890625 
Q 56.203125 41.796875 56.203125 29.59375 
z
M 47.21875 32.234375 
Q 47.125 39.59375 43.09375 43.984375 
Q 39.0625 48.390625 32.421875 48.390625 
Q 24.90625 48.390625 20.390625 44.140625 
Q 15.875 39.890625 15.1875 32.171875 
z
" id="DejaVuSans-101"/>
       <path id="DejaVuSans-32"/>
       <path d="M 31 75.875 
Q 24.46875 64.65625 21.28125 53.65625 
Q 18.109375 42.671875 18.109375 31.390625 
Q 18.109375 20.125 21.3125 9.0625 
Q 24.515625 -2 31 -13.1875 
L 23.1875 -13.1875 
Q 15.875 -1.703125 12.234375 9.375 
Q 8.59375 20.453125 8.59375 31.390625 
Q 8.59375 42.28125 12.203125 53.3125 
Q 15.828125 64.359375 23.1875 75.875 
z
" id="DejaVuSans-40"/>
       <path d="M 44.28125 53.078125 
L 44.28125 44.578125 
Q 40.484375 46.53125 36.375 47.5 
Q 32.28125 48.484375 27.875 48.484375 
Q 21.1875 48.484375 17.84375 46.4375 
Q 14.5 44.390625 14.5 40.28125 
Q 14.5 37.15625 16.890625 35.375 
Q 19.28125 33.59375 26.515625 31.984375 
L 29.59375 31.296875 
Q 39.15625 29.25 43.1875 25.515625 
Q 47.21875 21.78125 47.21875 15.09375 
Q 47.21875 7.46875 41.1875 3.015625 
Q 35.15625 -1.421875 24.609375 -1.421875 
Q 20.21875 -1.421875 15.453125 -0.5625 
Q 10.6875 0.296875 5.421875 2 
L 5.421875 11.28125 
Q 10.40625 8.6875 15.234375 7.390625 
Q 20.0625 6.109375 24.8125 6.109375 
Q 31.15625 6.109375 34.5625 8.28125 
Q 37.984375 10.453125 37.984375 14.40625 
Q 37.984375 18.0625 35.515625 20.015625 
Q 33.0625 21.96875 24.703125 23.78125 
L 21.578125 24.515625 
Q 13.234375 26.265625 9.515625 29.90625 
Q 5.8125 33.546875 5.8125 39.890625 
Q 5.8125 47.609375 11.28125 51.796875 
Q 16.75 56 26.8125 56 
Q 31.78125 56 36.171875 55.265625 
Q 40.578125 54.546875 44.28125 53.078125 
z
" id="DejaVuSans-115"/>
       <path d="M 8.015625 75.875 
L 15.828125 75.875 
Q 23.140625 64.359375 26.78125 53.3125 
Q 30.421875 42.28125 30.421875 31.390625 
Q 30.421875 20.453125 26.78125 9.375 
Q 23.140625 -1.703125 15.828125 -13.1875 
L 8.015625 -13.1875 
Q 14.5 -2 17.703125 9.0625 
Q 20.90625 20.125 20.90625 31.390625 
Q 20.90625 42.671875 17.703125 53.65625 
Q 14.5 64.65625 8.015625 75.875 
z
" id="DejaVuSans-41"/>
      </defs>
      <use xlink:href="#DejaVuSans-84"/>
      <use x="57.958984" xlink:href="#DejaVuSans-105"/>
      <use x="85.742188" xlink:href="#DejaVuSans-109"/>
      <use x="183.154297" xlink:href="#DejaVuSans-101"/>
      <use x="244.677734" xlink:href="#DejaVuSans-32"/>
      <use x="276.464844" xlink:href="#DejaVuSans-40"/>
      <use x="315.478516" xlink:href="#DejaVuSans-115"/>
      <use x="367.578125" xlink:href="#DejaVuSans-41"/>
     </g>
    </g>
   </g>
   <g id="matplotlib.axis_2">
    <g id="ytick_1">
     <g id="line2d_8">
      <defs>
       <path d="M 0 0 
L -3.5 0 
" id="m63ea580b6f" style="stroke:#000000;stroke-width:0.8;"/>
      </defs>
      <g>
       <use style="stroke:#000000;stroke-width:0.8;" x="108" xlink:href="#m63ea580b6f" y="491.907983"/>
      </g>
     </g>
     <g id="text_9">
      <!-- −125 -->
      <g transform="translate(62.545937 497.22689)scale(0.14 -0.14)">
       <defs>
        <path d="M 10.59375 35.5 
L 73.1875 35.5 
L 73.1875 27.203125 
L 10.59375 27.203125 
z
" id="DejaVuSans-8722"/>
       </defs>
       <use xlink:href="#DejaVuSans-8722"/>
       <use x="83.789062" xlink:href="#DejaVuSans-49"/>
       <use x="147.412109" xlink:href="#DejaVuSans-50"/>
       <use x="211.035156" xlink:href="#DejaVuSans-53"/>
      </g>
     </g>
    </g>
    <g id="ytick_2">
     <g id="line2d_9">
      <g>
       <use style="stroke:#000000;stroke-width:0.8;" x="108" xlink:href="#m63ea580b6f" y="438.860885"/>
      </g>
     </g>
     <g id="text_10">
      <!-- −100 -->
      <g transform="translate(62.545937 444.179791)scale(0.14 -0.14)">
       <use xlink:href="#DejaVuSans-8722"/>
       <use x="83.789062" xlink:href="#DejaVuSans-49"/>
       <use x="147.412109" xlink:href="#DejaVuSans-48"/>
       <use x="211.035156" xlink:href="#DejaVuSans-48"/>
      </g>
     </g>
    </g>
    <g id="ytick_3">
     <g id="line2d_10">
      <g>
       <use style="stroke:#000000;stroke-width:0.8;" x="108" xlink:href="#m63ea580b6f" y="385.813786"/>
      </g>
     </g>
     <g id="text_11">
      <!-- −75 -->
      <g transform="translate(71.453437 391.132692)scale(0.14 -0.14)">
       <defs>
        <path d="M 8.203125 72.90625 
L 55.078125 72.90625 
L 55.078125 68.703125 
L 28.609375 0 
L 18.3125 0 
L 43.21875 64.59375 
L 8.203125 64.59375 
z
" id="DejaVuSans-55"/>
       </defs>
       <use xlink:href="#DejaVuSans-8722"/>
       <use x="83.789062" xlink:href="#DejaVuSans-55"/>
       <use x="147.412109" xlink:href="#DejaVuSans-53"/>
      </g>
     </g>
    </g>
    <g id="ytick_4">
     <g id="line2d_11">
      <g>
       <use style="stroke:#000000;stroke-width:0.8;" x="108" xlink:href="#m63ea580b6f" y="332.766687"/>
      </g>
     </g>
     <g id="text_12">
      <!-- −50 -->
      <g transform="translate(71.453437 338.085594)scale(0.14 -0.14)">
       <use xlink:href="#DejaVuSans-8722"/>
       <use x="83.789062" xlink:href="#DejaVuSans-53"/>
       <use x="147.412109" xlink:href="#DejaVuSans-48"/>
      </g>
     </g>
    </g>
    <g id="ytick_5">
     <g id="line2d_12">
      <g>
       <use style="stroke:#000000;stroke-width:0.8;" x="108" xlink:href="#m63ea580b6f" y="279.719589"/>
      </g>
     </g>
     <g id="text_13">
      <!-- −25 -->
      <g transform="translate(71.453437 285.038495)scale(0.14 -0.14)">
       <use xlink:href="#DejaVuSans-8722"/>
       <use x="83.789062" xlink:href="#DejaVuSans-50"/>
       <use x="147.412109" xlink:href="#DejaVuSans-53"/>
      </g>
     </g>
    </g>
    <g id="ytick_6">
     <g id="line2d_13">
      <g>
       <use style="stroke:#000000;stroke-width:0.8;" x="108" xlink:href="#m63ea580b6f" y="226.67249"/>
      </g>
     </g>
     <g id="text_14">
      <!-- 0 -->
      <g transform="translate(92.0925 231.991396)scale(0.14 -0.14)">
       <use xlink:href="#DejaVuSans-48"/>
      </g>
     </g>
    </g>
    <g id="ytick_7">
     <g id="line2d_14">
      <g>
       <use style="stroke:#000000;stroke-width:0.8;" x="108" xlink:href="#m63ea580b6f" y="173.625391"/>
      </g>
     </g>
     <g id="text_15">
      <!-- 25 -->
      <g transform="translate(83.185 178.944298)scale(0.14 -0.14)">
       <use xlink:href="#DejaVuSans-50"/>
       <use x="63.623047" xlink:href="#DejaVuSans-53"/>
      </g>
     </g>
    </g>
    <g id="ytick_8">
     <g id="line2d_15">
      <g>
       <use style="stroke:#000000;stroke-width:0.8;" x="108" xlink:href="#m63ea580b6f" y="120.578293"/>
      </g>
     </g>
     <g id="text_16">
      <!-- 50 -->
      <g transform="translate(83.185 125.897199)scale(0.14 -0.14)">
       <use xlink:href="#DejaVuSans-53"/>
       <use x="63.623047" xlink:href="#DejaVuSans-48"/>
      </g>
     </g>
    </g>
    <g id="text_17">
     <!-- Angular Momentum (g-cm2/s) -->
     <g transform="translate(54.8025 421.697812)rotate(-90)scale(0.18 -0.18)">
      <defs>
       <path d="M 34.1875 63.1875 
L 20.796875 26.90625 
L 47.609375 26.90625 
z
M 28.609375 72.90625 
L 39.796875 72.90625 
L 67.578125 0 
L 57.328125 0 
L 50.6875 18.703125 
L 17.828125 18.703125 
L 11.1875 0 
L 0.78125 0 
z
" id="DejaVuSans-65"/>
       <path d="M 54.890625 33.015625 
L 54.890625 0 
L 45.90625 0 
L 45.90625 32.71875 
Q 45.90625 40.484375 42.875 44.328125 
Q 39.84375 48.1875 33.796875 48.1875 
Q 26.515625 48.1875 22.3125 43.546875 
Q 18.109375 38.921875 18.109375 30.90625 
L 18.109375 0 
L 9.078125 0 
L 9.078125 54.6875 
L 18.109375 54.6875 
L 18.109375 46.1875 
Q 21.34375 51.125 25.703125 53.5625 
Q 30.078125 56 35.796875 56 
Q 45.21875 56 50.046875 50.171875 
Q 54.890625 44.34375 54.890625 33.015625 
z
" id="DejaVuSans-110"/>
       <path d="M 45.40625 27.984375 
Q 45.40625 37.75 41.375 43.109375 
Q 37.359375 48.484375 30.078125 48.484375 
Q 22.859375 48.484375 18.828125 43.109375 
Q 14.796875 37.75 14.796875 27.984375 
Q 14.796875 18.265625 18.828125 12.890625 
Q 22.859375 7.515625 30.078125 7.515625 
Q 37.359375 7.515625 41.375 12.890625 
Q 45.40625 18.265625 45.40625 27.984375 
z
M 54.390625 6.78125 
Q 54.390625 -7.171875 48.1875 -13.984375 
Q 42 -20.796875 29.203125 -20.796875 
Q 24.46875 -20.796875 20.265625 -20.09375 
Q 16.0625 -19.390625 12.109375 -17.921875 
L 12.109375 -9.1875 
Q 16.0625 -11.328125 19.921875 -12.34375 
Q 23.78125 -13.375 27.78125 -13.375 
Q 36.625 -13.375 41.015625 -8.765625 
Q 45.40625 -4.15625 45.40625 5.171875 
L 45.40625 9.625 
Q 42.625 4.78125 38.28125 2.390625 
Q 33.9375 0 27.875 0 
Q 17.828125 0 11.671875 7.65625 
Q 5.515625 15.328125 5.515625 27.984375 
Q 5.515625 40.671875 11.671875 48.328125 
Q 17.828125 56 27.875 56 
Q 33.9375 56 38.28125 53.609375 
Q 42.625 51.21875 45.40625 46.390625 
L 45.40625 54.6875 
L 54.390625 54.6875 
z
" id="DejaVuSans-103"/>
       <path d="M 8.5 21.578125 
L 8.5 54.6875 
L 17.484375 54.6875 
L 17.484375 21.921875 
Q 17.484375 14.15625 20.5 10.265625 
Q 23.53125 6.390625 29.59375 6.390625 
Q 36.859375 6.390625 41.078125 11.03125 
Q 45.3125 15.671875 45.3125 23.6875 
L 45.3125 54.6875 
L 54.296875 54.6875 
L 54.296875 0 
L 45.3125 0 
L 45.3125 8.40625 
Q 42.046875 3.421875 37.71875 1 
Q 33.40625 -1.421875 27.6875 -1.421875 
Q 18.265625 -1.421875 13.375 4.4375 
Q 8.5 10.296875 8.5 21.578125 
z
M 31.109375 56 
z
" id="DejaVuSans-117"/>
       <path d="M 9.421875 75.984375 
L 18.40625 75.984375 
L 18.40625 0 
L 9.421875 0 
z
" id="DejaVuSans-108"/>
       <path d="M 34.28125 27.484375 
Q 23.390625 27.484375 19.1875 25 
Q 14.984375 22.515625 14.984375 16.5 
Q 14.984375 11.71875 18.140625 8.90625 
Q 21.296875 6.109375 26.703125 6.109375 
Q 34.1875 6.109375 38.703125 11.40625 
Q 43.21875 16.703125 43.21875 25.484375 
L 43.21875 27.484375 
z
M 52.203125 31.203125 
L 52.203125 0 
L 43.21875 0 
L 43.21875 8.296875 
Q 40.140625 3.328125 35.546875 0.953125 
Q 30.953125 -1.421875 24.3125 -1.421875 
Q 15.921875 -1.421875 10.953125 3.296875 
Q 6 8.015625 6 15.921875 
Q 6 25.140625 12.171875 29.828125 
Q 18.359375 34.515625 30.609375 34.515625 
L 43.21875 34.515625 
L 43.21875 35.40625 
Q 43.21875 41.609375 39.140625 45 
Q 35.0625 48.390625 27.6875 48.390625 
Q 23 48.390625 18.546875 47.265625 
Q 14.109375 46.140625 10.015625 43.890625 
L 10.015625 52.203125 
Q 14.9375 54.109375 19.578125 55.046875 
Q 24.21875 56 28.609375 56 
Q 40.484375 56 46.34375 49.84375 
Q 52.203125 43.703125 52.203125 31.203125 
z
" id="DejaVuSans-97"/>
       <path d="M 41.109375 46.296875 
Q 39.59375 47.171875 37.8125 47.578125 
Q 36.03125 48 33.890625 48 
Q 26.265625 48 22.1875 43.046875 
Q 18.109375 38.09375 18.109375 28.8125 
L 18.109375 0 
L 9.078125 0 
L 9.078125 54.6875 
L 18.109375 54.6875 
L 18.109375 46.1875 
Q 20.953125 51.171875 25.484375 53.578125 
Q 30.03125 56 36.53125 56 
Q 37.453125 56 38.578125 55.875 
Q 39.703125 55.765625 41.0625 55.515625 
z
" id="DejaVuSans-114"/>
       <path d="M 9.8125 72.90625 
L 24.515625 72.90625 
L 43.109375 23.296875 
L 61.8125 72.90625 
L 76.515625 72.90625 
L 76.515625 0 
L 66.890625 0 
L 66.890625 64.015625 
L 48.09375 14.015625 
L 38.1875 14.015625 
L 19.390625 64.015625 
L 19.390625 0 
L 9.8125 0 
z
" id="DejaVuSans-77"/>
       <path d="M 30.609375 48.390625 
Q 23.390625 48.390625 19.1875 42.75 
Q 14.984375 37.109375 14.984375 27.296875 
Q 14.984375 17.484375 19.15625 11.84375 
Q 23.34375 6.203125 30.609375 6.203125 
Q 37.796875 6.203125 41.984375 11.859375 
Q 46.1875 17.53125 46.1875 27.296875 
Q 46.1875 37.015625 41.984375 42.703125 
Q 37.796875 48.390625 30.609375 48.390625 
z
M 30.609375 56 
Q 42.328125 56 49.015625 48.375 
Q 55.71875 40.765625 55.71875 27.296875 
Q 55.71875 13.875 49.015625 6.21875 
Q 42.328125 -1.421875 30.609375 -1.421875 
Q 18.84375 -1.421875 12.171875 6.21875 
Q 5.515625 13.875 5.515625 27.296875 
Q 5.515625 40.765625 12.171875 48.375 
Q 18.84375 56 30.609375 56 
z
" id="DejaVuSans-111"/>
       <path d="M 18.3125 70.21875 
L 18.3125 54.6875 
L 36.8125 54.6875 
L 36.8125 47.703125 
L 18.3125 47.703125 
L 18.3125 18.015625 
Q 18.3125 11.328125 20.140625 9.421875 
Q 21.96875 7.515625 27.59375 7.515625 
L 36.8125 7.515625 
L 36.8125 0 
L 27.59375 0 
Q 17.1875 0 13.234375 3.875 
Q 9.28125 7.765625 9.28125 18.015625 
L 9.28125 47.703125 
L 2.6875 47.703125 
L 2.6875 54.6875 
L 9.28125 54.6875 
L 9.28125 70.21875 
z
" id="DejaVuSans-116"/>
       <path d="M 4.890625 31.390625 
L 31.203125 31.390625 
L 31.203125 23.390625 
L 4.890625 23.390625 
z
" id="DejaVuSans-45"/>
       <path d="M 48.78125 52.59375 
L 48.78125 44.1875 
Q 44.96875 46.296875 41.140625 47.34375 
Q 37.3125 48.390625 33.40625 48.390625 
Q 24.65625 48.390625 19.8125 42.84375 
Q 14.984375 37.3125 14.984375 27.296875 
Q 14.984375 17.28125 19.8125 11.734375 
Q 24.65625 6.203125 33.40625 6.203125 
Q 37.3125 6.203125 41.140625 7.25 
Q 44.96875 8.296875 48.78125 10.40625 
L 48.78125 2.09375 
Q 45.015625 0.34375 40.984375 -0.53125 
Q 36.96875 -1.421875 32.421875 -1.421875 
Q 20.0625 -1.421875 12.78125 6.34375 
Q 5.515625 14.109375 5.515625 27.296875 
Q 5.515625 40.671875 12.859375 48.328125 
Q 20.21875 56 33.015625 56 
Q 37.15625 56 41.109375 55.140625 
Q 45.0625 54.296875 48.78125 52.59375 
z
" id="DejaVuSans-99"/>
       <path d="M 25.390625 72.90625 
L 33.6875 72.90625 
L 8.296875 -9.28125 
L 0 -9.28125 
z
" id="DejaVuSans-47"/>
      </defs>
      <use xlink:href="#DejaVuSans-65"/>
      <use x="68.408203" xlink:href="#DejaVuSans-110"/>
      <use x="131.787109" xlink:href="#DejaVuSans-103"/>
      <use x="195.263672" xlink:href="#DejaVuSans-117"/>
      <use x="258.642578" xlink:href="#DejaVuSans-108"/>
      <use x="286.425781" xlink:href="#DejaVuSans-97"/>
      <use x="347.705078" xlink:href="#DejaVuSans-114"/>
      <use x="388.818359" xlink:href="#DejaVuSans-32"/>
      <use x="420.605469" xlink:href="#DejaVuSans-77"/>
      <use x="506.884766" xlink:href="#DejaVuSans-111"/>
      <use x="568.066406" xlink:href="#DejaVuSans-109"/>
      <use x="665.478516" xlink:href="#DejaVuSans-101"/>
      <use x="727.001953" xlink:href="#DejaVuSans-110"/>
      <use x="790.380859" xlink:href="#DejaVuSans-116"/>
      <use x="829.589844" xlink:href="#DejaVuSans-117"/>
      <use x="892.96875" xlink:href="#DejaVuSans-109"/>
      <use x="990.380859" xlink:href="#DejaVuSans-32"/>
      <use x="1022.167969" xlink:href="#DejaVuSans-40"/>
      <use x="1061.181641" xlink:href="#DejaVuSans-103"/>
      <use x="1124.658203" xlink:href="#DejaVuSans-45"/>
      <use x="1160.742188" xlink:href="#DejaVuSans-99"/>
      <use x="1215.722656" xlink:href="#DejaVuSans-109"/>
      <use x="1313.134766" xlink:href="#DejaVuSans-50"/>
      <use x="1376.757812" xlink:href="#DejaVuSans-47"/>
      <use x="1410.449219" xlink:href="#DejaVuSans-115"/>
      <use x="1462.548828" xlink:href="#DejaVuSans-41"/>
     </g>
    </g>
   </g>
   <g id="line2d_16">
    <path clip-path="url(#pcf8dea75ec)" d="M 138.436364 221.930586 
L 145.275996 220.978878 
L 152.115628 220.627246 
L 158.95526 220.964693 
L 165.794893 221.412465 
L 172.634525 220.883421 
L 179.474157 218.641875 
L 186.31379 215.08228 
L 193.153422 211.454179 
L 199.993054 208.723761 
L 206.832686 206.812821 
L 213.672319 205.045865 
L 220.511951 203.261674 
L 227.351583 202.305001 
L 234.191216 203.285231 
L 241.030848 206.287662 
L 247.87048 209.80729 
L 254.710112 211.521103 
L 261.549745 209.824129 
L 268.389377 204.905944 
L 275.229009 198.468013 
L 282.068641 192.23532 
L 288.908274 186.503189 
L 295.747906 180.001426 
L 302.587538 171.104726 
L 309.427171 159.279155 
L 316.266803 145.750501 
L 323.106435 133.074559 
L 329.946067 123.841257 
L 336.7857 119.2697 
L 343.625332 118.700735 
L 350.464964 120.389584 
L 357.304597 122.888531 
L 364.144229 125.778977 
L 370.983861 129.173713 
L 377.823493 132.675868 
L 384.663126 135.028075 
L 391.502758 134.935016 
L 398.34239 132.362509 
L 405.182022 129.148536 
L 412.021655 128.24673 
L 418.861287 131.945443 
L 425.700919 140.307921 
L 432.540552 151.068418 
L 439.380184 161.101592 
L 446.219816 168.315367 
L 453.059448 172.596377 
L 459.899081 175.361801 
L 466.738713 178.32979 
L 473.578345 182.43884 
L 480.417978 187.494296 
L 487.25761 192.566001 
L 494.097242 196.691048 
L 500.936874 199.327319 
L 507.776507 200.399932 
L 514.616139 200.240127 
L 521.455771 199.619338 
L 528.295403 199.617404 
L 535.135036 201.065837 
L 541.974668 203.923234 
L 548.8143 207.267331 
L 555.653933 210.002595 
L 562.493565 211.558802 
L 569.333197 211.92702 
L 576.172829 211.268958 
L 583.012462 209.750532 
L 589.852094 207.67682 
L 596.691726 205.499144 
L 603.531359 203.592025 
L 610.370991 202.15194 
L 617.210623 201.380342 
L 624.050255 201.671555 
L 630.889888 203.529315 
L 637.72952 207.284135 
L 644.569152 212.839842 
L 651.408784 219.559174 
L 658.248417 226.3312 
L 665.088049 231.90653 
L 671.927681 235.479242 
L 678.767314 237.19141 
L 685.606946 238.09161 
L 692.446578 239.439324 
L 699.28621 241.858009 
L 706.125843 244.990097 
L 712.965475 247.840771 
L 719.805107 249.474224 
L 726.64474 249.528336 
L 733.484372 248.206402 
L 740.324004 245.920481 
L 747.163636 243.072343 
" style="fill:none;stroke:#f77189;stroke-linecap:round;stroke-opacity:0.1;stroke-width:1.5;"/>
   </g>
   <g id="line2d_17">
    <path clip-path="url(#pcf8dea75ec)" d="M 611.890909 504 
L 611.890909 -1 
" style="fill:none;stroke:#ff0000;stroke-linecap:round;stroke-width:1.5;"/>
   </g>
   <g id="line2d_18">
    <path clip-path="url(#pcf8dea75ec)" d="M 138.436364 224.948695 
L 145.275996 223.833569 
L 152.115628 222.788942 
L 158.95526 221.964505 
L 165.794893 221.540414 
L 172.634525 221.722371 
L 179.474157 222.733967 
L 186.31379 224.806318 
L 193.153422 228.165259 
L 199.993054 233.01656 
L 206.832686 239.529828 
L 213.672319 247.821958 
L 220.511951 257.941152 
L 227.351583 269.852693 
L 234.191216 283.427747 
L 241.030848 298.436509 
L 247.87048 314.546886 
L 254.710112 331.329662 
L 261.549745 348.270626 
L 268.389377 364.789599 
L 275.229009 380.26566 
L 282.068641 394.067344 
L 288.908274 405.586116 
L 295.747906 414.271115 
L 302.587538 419.662969 
L 309.427171 421.42436 
L 316.266803 419.365064 
L 323.106435 413.459328 
L 329.946067 403.853841 
L 336.7857 390.865089 
L 343.625332 374.965728 
L 350.464964 356.760499 
L 357.304597 336.953168 
L 364.144229 316.306806 
L 370.983861 295.600325 
L 377.823493 275.584487 
L 384.663126 256.940577 
L 391.502758 240.244667 
L 398.34239 225.939914 
L 405.182022 214.318681 
L 412.021655 205.515488 
L 418.861287 199.510909 
L 425.700919 196.145625 
L 432.540552 195.142997 
L 439.380184 196.137852 
L 446.219816 198.708772 
L 453.059448 202.411082 
L 459.899081 206.807874 
L 466.738713 211.496807 
L 473.578345 216.131003 
L 480.417978 220.432996 
L 487.25761 224.201436 
L 494.097242 227.310942 
L 500.936874 229.706083 
L 507.776507 231.390955 
L 514.616139 232.416026 
L 521.455771 232.863979 
L 528.295403 232.836063 
L 535.135036 232.440172 
L 541.974668 231.781393 
L 548.8143 230.955363 
L 555.653933 230.044364 
L 562.493565 229.115764 
L 569.333197 228.222239 
L 576.172829 227.403143 
L 583.012462 226.686388 
L 589.852094 226.090381 
L 596.691726 225.625675 
L 603.531359 225.296202 
L 610.370991 225.100113 
L 617.210623 225.030354 
L 624.050255 225.075167 
L 630.889888 225.218676 
L 637.72952 225.441692 
L 644.569152 225.722755 
L 651.408784 226.039375 
L 658.248417 226.369342 
L 665.088049 226.691989 
L 671.927681 226.989248 
L 678.767314 227.24642 
L 685.606946 227.452612 
L 692.446578 227.600844 
L 699.28621 227.687884 
L 706.125843 227.713895 
L 712.965475 227.681981 
L 719.805107 227.597707 
L 726.64474 227.468652 
L 733.484372 227.304015 
L 740.324004 227.11426 
L 747.163636 226.910771 
" style="fill:none;stroke:#36ada4;stroke-linecap:round;stroke-opacity:0.1;stroke-width:1.5;"/>
   </g>
   <g id="line2d_19">
    <path clip-path="url(#pcf8dea75ec)" d="M 611.890909 504 
L 611.890909 -1 
" style="fill:none;stroke:#ff0000;stroke-linecap:round;stroke-width:1.5;"/>
   </g>
   <g id="line2d_20">
    <path clip-path="url(#pcf8dea75ec)" d="M 138.436364 237.608004 
L 145.275996 235.663664 
L 152.115628 231.534029 
L 158.95526 227.499578 
L 165.794893 223.982413 
L 172.634525 219.431493 
L 179.474157 212.953169 
L 186.31379 206.568487 
L 193.153422 204.18097 
L 199.993054 208.006129 
L 206.832686 216.204608 
L 213.672319 224.197638 
L 220.511951 228.172406 
L 227.351583 227.382539 
L 234.191216 223.716816 
L 241.030848 219.7602 
L 247.87048 217.241933 
L 254.710112 216.550151 
L 261.549745 216.889187 
L 268.389377 216.683548 
L 275.229009 214.246597 
L 282.068641 208.528413 
L 288.908274 199.320042 
L 295.747906 186.777516 
L 302.587538 171.126117 
L 309.427171 153.153785 
L 316.266803 134.770139 
L 323.106435 118.645387 
L 329.946067 107.09454 
L 336.7857 101.088555 
L 343.625332 99.885719 
L 350.464964 101.398389 
L 357.304597 103.416481 
L 364.144229 105.245363 
L 370.983861 108.249952 
L 377.823493 114.136206 
L 384.663126 122.204255 
L 391.502758 128.573874 
L 398.34239 128.8389 
L 405.182022 122.129031 
L 412.021655 112.825622 
L 418.861287 107.889124 
L 425.700919 111.55802 
L 432.540552 121.888911 
L 439.380184 132.312249 
L 446.219816 136.809334 
L 453.059448 134.117703 
L 459.899081 127.786895 
L 466.738713 122.924655 
L 473.578345 122.798318 
L 480.417978 127.582018 
L 487.25761 135.400667 
L 494.097242 144.391215 
L 500.936874 154.094489 
L 507.776507 165.164727 
L 514.616139 177.968506 
L 521.455771 191.660491 
L 528.295403 204.604184 
L 535.135036 215.512145 
L 541.974668 224.105373 
L 548.8143 230.821767 
L 555.653933 236.134469 
L 562.493565 240.238786 
L 569.333197 243.217643 
L 576.172829 245.253855 
L 583.012462 246.554812 
L 589.852094 247.049688 
L 596.691726 246.21086 
L 603.531359 243.359748 
L 610.370991 238.410168 
L 617.210623 232.437856 
L 624.050255 227.389801 
L 630.889888 224.926254 
L 637.72952 225.272013 
L 644.569152 227.102628 
L 651.408784 228.571889 
L 658.248417 228.514285 
L 665.088049 226.845308 
L 671.927681 224.139739 
L 678.767314 221.072466 
L 685.606946 218.20316 
L 692.446578 216.004796 
L 699.28621 214.827201 
L 706.125843 214.753106 
L 712.965475 215.569009 
L 719.805107 216.946237 
L 726.64474 218.636633 
L 733.484372 220.500188 
L 740.324004 222.420115 
L 747.163636 224.218331 
" style="fill:none;stroke:#f77189;stroke-linecap:round;stroke-opacity:0.5;stroke-width:1.5;"/>
   </g>
   <g id="line2d_21">
    <path clip-path="url(#pcf8dea75ec)" d="M 611.890909 504 
L 611.890909 -1 
" style="fill:none;stroke:#ff0000;stroke-linecap:round;stroke-width:1.5;"/>
   </g>
   <g id="line2d_22">
    <path clip-path="url(#pcf8dea75ec)" d="M 138.436364 223.958969 
L 145.275996 223.18835 
L 152.115628 222.631149 
L 158.95526 222.428211 
L 165.794893 222.736192 
L 172.634525 223.721163 
L 179.474157 225.550662 
L 186.31379 228.384603 
L 193.153422 232.365634 
L 199.993054 237.609586 
L 206.832686 244.196742 
L 213.672319 252.164581 
L 220.511951 261.50259 
L 227.351583 272.149585 
L 234.191216 283.993902 
L 241.030848 296.876655 
L 247.87048 310.59806 
L 254.710112 324.926563 
L 261.549745 339.610112 
L 268.389377 354.388536 
L 275.229009 369.005756 
L 282.068641 383.220536 
L 288.908274 396.81474 
L 295.747906 409.59853 
L 302.587538 421.412374 
L 309.427171 432.126152 
L 316.266803 441.635846 
L 323.106435 449.858434 
L 329.946067 456.725654 
L 336.7857 462.177392 
L 343.625332 466.155449 
L 350.464964 468.598491 
L 357.304597 469.438918 
L 364.144229 468.602309 
L 370.983861 466.009884 
L 377.823493 461.584177 
L 384.663126 455.257812 
L 391.502758 446.984866 
L 398.34239 436.753923 
L 405.182022 424.601505 
L 412.021655 410.624234 
L 418.861287 394.987919 
L 425.700919 377.931899 
L 432.540552 359.767366 
L 439.380184 340.869146 
L 446.219816 321.661218 
L 453.059448 302.597077 
L 459.899081 284.136651 
L 466.738713 266.721823 
L 473.578345 250.752656 
L 480.417978 236.566236 
L 487.25761 224.419746 
L 494.097242 214.478928 
L 500.936874 206.812639 
L 507.776507 201.393679 
L 514.616139 198.105572 
L 521.455771 196.754504 
L 528.295403 197.085259 
L 535.135036 198.799754 
L 541.974668 201.576661 
L 548.8143 205.090693 
L 555.653933 209.030222 
L 562.493565 213.112187 
L 569.333197 217.093527 
L 576.172829 220.778684 
L 583.012462 224.023136 
L 589.852094 226.733191 
L 596.691726 228.862602 
L 603.531359 230.406749 
L 610.370991 231.395203 
L 617.210623 231.883506 
L 624.050255 231.944888 
L 630.889888 231.662532 
L 637.72952 231.122794 
L 644.569152 230.409673 
L 651.408784 229.600607 
L 658.248417 228.763564 
L 665.088049 227.955276 
L 671.927681 227.22041 
L 678.767314 226.591465 
L 685.606946 226.089211 
L 692.446578 225.723548 
L 699.28621 225.494686 
L 706.125843 225.394577 
L 712.965475 225.408548 
L 719.805107 225.51707 
L 726.64474 225.697601 
L 733.484372 225.926419 
L 740.324004 226.180357 
L 747.163636 226.438325 
" style="fill:none;stroke:#36ada4;stroke-linecap:round;stroke-opacity:0.5;stroke-width:1.5;"/>
   </g>
   <g id="line2d_23">
    <path clip-path="url(#pcf8dea75ec)" d="M 611.890909 504 
L 611.890909 -1 
" style="fill:none;stroke:#ff0000;stroke-linecap:round;stroke-width:1.5;"/>
   </g>
   <g id="line2d_24">
    <path clip-path="url(#pcf8dea75ec)" d="M 138.436364 216.400423 
L 145.275996 214.100014 
L 152.115628 214.247063 
L 158.95526 215.876351 
L 165.794893 217.638697 
L 172.634525 218.463259 
L 179.474157 217.886973 
L 186.31379 216.11461 
L 193.153422 213.882347 
L 199.993054 212.14565 
L 206.832686 211.661928 
L 213.672319 212.647154 
L 220.511951 214.721566 
L 227.351583 217.177546 
L 234.191216 219.329929 
L 241.030848 220.701769 
L 247.87048 221.039966 
L 254.710112 220.264437 
L 261.549745 218.381153 
L 268.389377 215.377891 
L 275.229009 211.161603 
L 282.068641 205.538047 
L 288.908274 198.1636 
L 295.747906 188.507484 
L 302.587538 176.053501 
L 309.427171 160.848746 
L 316.266803 144.040169 
L 323.106435 127.858977 
L 329.946067 114.947748 
L 336.7857 107.400912 
L 343.625332 105.925746 
L 350.464964 109.421635 
L 357.304597 115.272907 
L 364.144229 120.466693 
L 370.983861 123.096663 
L 377.823493 123.240133 
L 384.663126 122.27529 
L 391.502758 120.991845 
L 398.34239 118.521833 
L 405.182022 113.691669 
L 412.021655 107.350199 
L 418.861287 102.478325 
L 425.700919 101.445996 
L 432.540552 103.511503 
L 439.380184 105.641357 
L 446.219816 105.91711 
L 453.059448 105.661977 
L 459.899081 107.786718 
L 466.738713 113.327757 
L 473.578345 120.238195 
L 480.417978 125.672259 
L 487.25761 129.086092 
L 494.097242 132.9743 
L 500.936874 140.727491 
L 507.776507 153.722217 
L 514.616139 170.182425 
L 521.455771 186.639721 
L 528.295403 200.571065 
L 535.135036 211.914599 
L 541.974668 222.327153 
L 548.8143 233.105732 
L 555.653933 243.774742 
L 562.493565 252.527638 
L 569.333197 257.885272 
L 576.172829 259.935846 
L 583.012462 260.247169 
L 589.852094 260.946488 
L 596.691726 263.887166 
L 603.531359 270.109266 
L 610.370991 279.301498 
L 617.210623 289.43833 
L 624.050255 297.319209 
L 630.889888 300.247658 
L 637.72952 297.808391 
L 644.569152 292.132511 
L 651.408784 286.216701 
L 658.248417 281.75781 
L 665.088049 278.386689 
L 671.927681 274.63617 
L 678.767314 269.375371 
L 685.606946 262.481969 
L 692.446578 254.65477 
L 699.28621 246.916801 
L 706.125843 240.139145 
L 712.965475 234.66419 
L 719.805107 230.213999 
L 726.64474 226.220793 
L 733.484372 222.317181 
L 740.324004 218.550507 
L 747.163636 215.207503 
" style="fill:none;stroke:#f77189;stroke-linecap:round;stroke-width:1.5;"/>
   </g>
   <g id="line2d_25">
    <path clip-path="url(#pcf8dea75ec)" d="M 611.890909 504 
L 611.890909 -1 
" style="fill:none;stroke:#ff0000;stroke-linecap:round;stroke-width:1.5;"/>
   </g>
   <g id="line2d_26">
    <path clip-path="url(#pcf8dea75ec)" d="M 138.436364 224.614803 
L 145.275996 224.014219 
L 152.115628 223.598707 
L 158.95526 223.488158 
L 165.794893 223.816657 
L 172.634525 224.727637 
L 179.474157 226.367857 
L 186.31379 228.880502 
L 193.153422 232.397826 
L 199.993054 237.033791 
L 206.832686 242.877199 
L 213.672319 249.985693 
L 220.511951 258.380966 
L 227.351583 268.045355 
L 234.191216 278.919975 
L 241.030848 290.904473 
L 247.87048 303.858504 
L 254.710112 317.605012 
L 261.549745 331.935338 
L 268.389377 346.616081 
L 275.229009 361.397502 
L 282.068641 376.023128 
L 288.908274 390.240122 
L 295.747906 403.809865 
L 302.587538 416.518197 
L 309.427171 428.184682 
L 316.266803 438.670316 
L 323.106435 447.883095 
L 329.946067 455.781026 
L 336.7857 462.372263 
L 343.625332 467.712239 
L 350.464964 471.897856 
L 357.304597 475.058925 
L 364.144229 477.347248 
L 370.983861 478.923926 
L 377.823493 479.945682 
L 384.663126 480.551168 
L 391.502758 480.848394 
L 398.34239 480.904357 
L 405.182022 480.737839 
L 412.021655 480.315969 
L 418.861287 479.554764 
L 425.700919 478.323485 
L 432.540552 476.452303 
L 439.380184 473.742671 
L 446.219816 469.979738 
L 453.059448 464.94619 
L 459.899081 458.436986 
L 466.738713 450.274437 
L 473.578345 440.323027 
L 480.417978 428.503233 
L 487.25761 414.803506 
L 494.097242 399.289449 
L 500.936874 382.109269 
L 507.776507 363.494703 
L 514.616139 343.756858 
L 521.455771 323.27678 
L 528.295403 302.49096 
L 535.135036 281.872439 
L 541.974668 261.908594 
L 548.8143 243.077009 
L 555.653933 225.821107 
L 562.493565 210.527297 
L 569.333197 197.505293 
L 576.172829 186.973054 
L 583.012462 179.047361 
L 589.852094 173.740568 
L 596.691726 170.963559 
L 603.531359 170.534443 
L 610.370991 172.192149 
L 617.210623 175.613779 
L 624.050255 180.434388 
L 630.889888 186.267822 
L 637.72952 192.727231 
L 644.569152 199.444042 
L 651.408784 206.084343 
L 658.248417 212.361927 
L 665.088049 218.04749 
L 671.927681 222.973768 
L 678.767314 227.036663 
L 685.606946 230.192603 
L 692.446578 232.452629 
L 699.28621 233.873843 
L 706.125843 234.549048 
L 712.965475 234.595473 
L 719.805107 234.143528 
L 726.64474 233.326456 
L 733.484372 232.271571 
L 740.324004 231.093546 
L 747.163636 229.889932 
" style="fill:none;stroke:#36ada4;stroke-linecap:round;stroke-width:1.5;"/>
   </g>
   <g id="line2d_27">
    <path clip-path="url(#pcf8dea75ec)" d="M 611.890909 504 
L 611.890909 -1 
" style="fill:none;stroke:#ff0000;stroke-linecap:round;stroke-width:1.5;"/>
   </g>
   <g id="patch_3">
    <path d="M 108 504 
L 108 69.12 
" style="fill:none;stroke:#000000;stroke-linecap:square;stroke-linejoin:miter;stroke-width:0.8;"/>
   </g>
   <g id="patch_4">
    <path d="M 777.6 504 
L 777.6 69.12 
" style="fill:none;stroke:#000000;stroke-linecap:square;stroke-linejoin:miter;stroke-width:0.8;"/>
   </g>
   <g id="patch_5">
    <path d="M 108 504 
L 777.6 504 
" style="fill:none;stroke:#000000;stroke-linecap:square;stroke-linejoin:miter;stroke-width:0.8;"/>
   </g>
   <g id="patch_6">
    <path d="M 108 69.12 
L 777.6 69.12 
" style="fill:none;stroke:#000000;stroke-linecap:square;stroke-linejoin:miter;stroke-width:0.8;"/>
   </g>
  </g>
 </g>
 <defs>
  <clipPath id="pcf8dea75ec">
   <rect height="434.88" width="669.6" x="108" y="69.12"/>
  </clipPath>
 </defs>
</svg>
